CascadiaCode-ExtraLight.ufo
<glyph name="exclam" format="2">
  <advance width="1200"/>
  <unicode hex="0021"/>
  <outline>
    <contour>
      <point x="557" y="356" type="line"/>
      <point x="639" y="356" type="line"/>
      <point x="645" y="1430" type="line"/>
      <point x="555" y="1430" type="line"/>
    </contour>
    <component base="period"/>
  </outline>
</glyph>
<glyph name="numbersign" format="2">
  <advance width="1200"/>
  <unicode hex="0023"/>
  <outline>
    <contour>
      <point x="740" y="0" type="line"/>
      <point x="826" y="0" type="line"/>
      <point x="946" y="1420" type="line"/>
      <point x="860" y="1420" type="line"/>
    </contour>
    <contour>
      <point x="144" y="420" type="line"/>
      <point x="1096" y="420" type="line"/>
      <point x="1096" y="508" type="line"/>
      <point x="144" y="508" type="line"/>
    </contour>
    <contour>
      <point x="294" y="0" type="line"/>
      <point x="380" y="0" type="line"/>
      <point x="500" y="1420" type="line"/>
      <point x="414" y="1420" type="line"/>
    </contour>
    <contour>
      <point x="144" y="912" type="line"/>
      <point x="1096" y="912" type="line"/>
      <point x="1096" y="1000" type="line"/>
      <point x="144" y="1000" type="line"/>
    </contour>
  </outline>
</glyph>
<glyph name="percent" format="2">
  <advance width="1200"/>
  <unicode hex="0025"/>
  <outline>
    <contour>
      <point x="186" y="306" type="line"/>
      <point x="1074" y="1036" type="line"/>
      <point x="1024" y="1106" type="line"/>
      <point x="136" y="376" type="line"/>
    </contour>
    <contour>
      <point x="830" y="-20" type="curve" smooth="yes"/>
      <point x="1018" y="-20"/>
      <point x="1142" y="108"/>
      <point x="1142" y="302" type="curve" smooth="yes"/>
      <point x="1142" y="497"/>
      <point x="1018" y="626"/>
      <point x="830" y="626" type="curve" smooth="yes"/>
      <point x="641" y="626"/>
      <point x="516" y="497"/>
      <point x="516" y="302" type="curve" smooth="yes"/>
      <point x="516" y="108"/>
      <point x="641" y="-20"/>
    </contour>
    <contour>
      <point x="830" y="70" type="curve" smooth="yes"/>
      <point x="696" y="70"/>
      <point x="608" y="162"/>
      <point x="608" y="302" type="curve" smooth="yes"/>
      <point x="608" y="443"/>
      <point x="696" y="536"/>
      <point x="830" y="536" type="curve" smooth="yes"/>
      <point x="963" y="536"/>
      <point x="1050" y="443"/>
      <point x="1050" y="302" type="curve" smooth="yes"/>
      <point x="1050" y="162"/>
      <point x="963" y="70"/>
    </contour>
    <contour>
      <point x="392" y="793" type="curve" smooth="yes"/>
      <point x="580" y="793"/>
      <point x="704" y="921"/>
      <point x="704" y="1115" type="curve" smooth="yes"/>
      <point x="704" y="1310"/>
      <point x="580" y="1439"/>
      <point x="392" y="1439" type="curve" smooth="yes"/>
      <point x="203" y="1439"/>
      <point x="78" y="1310"/>
      <point x="78" y="1115" type="curve" smooth="yes"/>
      <point x="78" y="921"/>
      <point x="203" y="793"/>
    </contour>
    <contour>
      <point x="392" y="883" type="curve" smooth="yes"/>
      <point x="258" y="883"/>
      <point x="170" y="975"/>
      <point x="170" y="1115" type="curve" smooth="yes"/>
      <point x="170" y="1256"/>
      <point x="258" y="1349"/>
      <point x="392" y="1349" type="curve" smooth="yes"/>
      <point x="525" y="1349"/>
      <point x="612" y="1256"/>
      <point x="612" y="1115" type="curve" smooth="yes"/>
      <point x="612" y="975"/>
      <point x="525" y="883"/>
    </contour>
  </outline>
</glyph>
<glyph name="ampersand" format="2">
  <advance width="1200"/>
  <unicode hex="0026"/>
  <outline>
    <contour>
      <point x="1072" y="0" type="line"/>
      <point x="1200" y="0" type="line"/>
      <point x="445" y="750" type="line" smooth="yes"/>
      <point x="361" y="834"/>
      <point x="308" y="936"/>
      <point x="308" y="1040" type="curve" smooth="yes"/>
      <point x="308" y="1237"/>
      <point x="420" y="1350"/>
      <point x="614" y="1350" type="curve"/>
      <point x="610" y="1440" type="line"/>
      <point x="360" y="1440"/>
      <point x="216" y="1295"/>
      <point x="216" y="1042" type="curve" smooth="yes"/>
      <point x="216" y="917"/>
      <point x="270" y="801"/>
      <point x="355" y="716" type="curve" smooth="yes"/>
    </contour>
    <contour>
      <point x="462" y="-20" type="curve" smooth="yes"/>
      <point x="847" y="-20"/>
      <point x="1068" y="266"/>
      <point x="1068" y="766" type="curve"/>
      <point x="976" y="766" type="line"/>
      <point x="976" y="324"/>
      <point x="797" y="70"/>
      <point x="486" y="70" type="curve" smooth="yes"/>
      <point x="286" y="70"/>
      <point x="172" y="173"/>
      <point x="172" y="354" type="curve" smooth="yes"/>
      <point x="172" y="515"/>
      <point x="286" y="632"/>
      <point x="486" y="676" type="curve"/>
      <point x="436" y="738" type="line"/>
      <point x="210" y="702"/>
      <point x="80" y="558"/>
      <point x="80" y="344" type="curve" smooth="yes"/>
      <point x="80" y="113"/>
      <point x="219" y="-20"/>
    </contour>
    <contour>
      <point x="874" y="1122" type="curve"/>
      <point x="966" y="1122" type="line"/>
      <point x="966" y="1324"/>
      <point x="836" y="1440"/>
      <point x="610" y="1440" type="curve"/>
      <point x="614" y="1350" type="line"/>
      <point x="779" y="1350"/>
      <point x="874" y="1267"/>
    </contour>
  </outline>
</glyph>
<glyph name="quotesingle" format="2">
  <advance width="1200"/>
  <unicode hex="0027"/>
  <outline>
    <contour>
      <point x="553" y="780" type="line"/>
      <point x="643" y="780" type="line"/>
      <point x="648" y="1420" type="line"/>
      <point x="548" y="1420" type="line"/>
    </contour>
  </outline>
</glyph>
<glyph name="parenleft" format="2">
  <advance width="1200"/>
  <unicode hex="0028"/>
  <outline>
    <contour>
      <point x="946" y="-200" type="curve" smooth="yes"/>
      <point x="974" y="-200" type="line"/>
      <point x="974" y="-110" type="line"/>
      <point x="946" y="-110" type="line" smooth="yes"/>
      <point x="588" y="-110"/>
      <point x="386" y="192"/>
      <point x="386" y="716" type="curve" smooth="yes"/>
      <point x="386" y="1232"/>
      <point x="588" y="1530"/>
      <point x="946" y="1530" type="curve" smooth="yes"/>
      <point x="974" y="1530" type="line"/>
      <point x="974" y="1620" type="line"/>
      <point x="946" y="1620" type="line" smooth="yes"/>
      <point x="529" y="1620"/>
      <point x="290" y="1291"/>
      <point x="290" y="716" type="curve" smooth="yes"/>
      <point x="290" y="133"/>
      <point x="529" y="-200"/>
    </contour>
  </outline>
</glyph>
<glyph name="parenright" format="2">
  <advance width="1200"/>
  <unicode hex="0029"/>
  <outline>
    <contour>
      <point x="226" y="-200" type="line"/>
      <point x="274" y="-200" type="line" smooth="yes"/>
      <point x="678" y="-200"/>
      <point x="910" y="133"/>
      <point x="910" y="716" type="curve" smooth="yes"/>
      <point x="910" y="1291"/>
      <point x="678" y="1620"/>
      <point x="274" y="1620" type="curve" smooth="yes"/>
      <point x="226" y="1620" type="line"/>
      <point x="236" y="1530" type="line"/>
      <point x="254" y="1530" type="line" smooth="yes"/>
      <point x="615" y="1530"/>
      <point x="818" y="1232"/>
      <point x="818" y="716" type="curve" smooth="yes"/>
      <point x="818" y="192"/>
      <point x="615" y="-110"/>
      <point x="254" y="-110" type="curve" smooth="yes"/>
      <point x="236" y="-110" type="line"/>
    </contour>
  </outline>
</glyph>
<glyph name="asterisk" format="2">
  <advance width="1200"/>
  <unicode hex="002A"/>
  <outline>
    <contour>
      <point x="844" y="281" type="line"/>
      <point x="917" y="334" type="line"/>
      <point x="627" y="717" type="line"/>
      <point x="569" y="675" type="line"/>
    </contour>
    <contour>
      <point x="352" y="281" type="line"/>
      <point x="627" y="675" type="line"/>
      <point x="569" y="717" type="line"/>
      <point x="279" y="334" type="line"/>
    </contour>
    <contour>
      <point x="587" y="662" type="line"/>
      <point x="609" y="730" type="line"/>
      <point x="155" y="887" type="line"/>
      <point x="128" y="802" type="line"/>
    </contour>
    <contour>
      <point x="562" y="696" type="line"/>
      <point x="634" y="696" type="line"/>
      <point x="643" y="1176" type="line"/>
      <point x="553" y="1176" type="line"/>
    </contour>
    <contour>
      <point x="609" y="662" type="line"/>
      <point x="1068" y="802" type="line"/>
      <point x="1041" y="887" type="line"/>
      <point x="587" y="730" type="line"/>
    </contour>
  </outline>
</glyph>
<glyph name="plus" format="2">
  <advance width="1200"/>
  <unicode hex="002B"/>
  <outline>
    <contour>
      <point x="553" y="190" type="line"/>
      <point x="647" y="190" type="line"/>
      <point x="647" y="1228" type="line"/>
      <point x="553" y="1228" type="line"/>
    </contour>
    <contour>
      <point x="124" y="665" type="line"/>
      <point x="1076" y="665" type="line"/>
      <point x="1076" y="755" type="line"/>
      <point x="124" y="755" type="line"/>
    </contour>
  </outline>
</glyph>
<glyph name="comma" format="2">
  <advance width="1200"/>
  <unicode hex="002C"/>
  <outline>
    <contour>
      <point x="462" y="-436" type="line"/>
      <point x="554" y="-436" type="line"/>
      <point x="639" y="254" type="line"/>
      <point x="542" y="254" type="line"/>
    </contour>
  </outline>
</glyph>
<glyph name="period" format="2">
  <advance width="1200"/>
  <unicode hex="002E"/>
  <outline>
    <contour>
      <point x="600" y="-20" type="curve" smooth="yes"/>
      <point x="655" y="-20"/>
      <point x="700" y="24"/>
      <point x="700" y="79" type="curve" smooth="yes"/>
      <point x="700" y="134"/>
      <point x="655" y="179"/>
      <point x="600" y="179" type="curve" smooth="yes"/>
      <point x="545" y="179"/>
      <point x="500" y="134"/>
      <point x="500" y="79" type="curve" smooth="yes"/>
      <point x="500" y="24"/>
      <point x="545" y="-20"/>
    </contour>
  </outline>
</glyph>
<glyph name="zero" format="2">
  <advance width="1200"/>
  <unicode hex="0030"/>
  <outline>
    <contour>
      <point x="600" y="-20" type="curve" smooth="yes"/>
      <point x="906" y="-20"/>
      <point x="1060" y="218"/>
      <point x="1060" y="700" type="curve" smooth="yes"/>
      <point x="1060" y="1194"/>
      <point x="906" y="1440"/>
      <point x="600" y="1440" type="curve" smooth="yes"/>
      <point x="294" y="1440"/>
      <point x="140" y="1194"/>
      <point x="140" y="700" type="curve" smooth="yes"/>
      <point x="140" y="218"/>
      <point x="294" y="-20"/>
    </contour>
    <contour>
      <point x="600" y="601" type="curve" smooth="yes"/>
      <point x="660" y="601"/>
      <point x="700" y="640"/>
      <point x="700" y="700" type="curve" smooth="yes"/>
      <point x="700" y="760"/>
      <point x="660" y="800"/>
      <point x="600" y="800" type="curve" smooth="yes"/>
      <point x="540" y="800"/>
      <point x="500" y="760"/>
      <point x="500" y="700" type="curve" smooth="yes"/>
      <point x="500" y="640"/>
      <point x="540" y="601"/>
    </contour>
    <contour>
      <point x="600" y="70" type="curve" smooth="yes"/>
      <point x="355" y="70"/>
      <point x="232" y="279"/>
      <point x="232" y="700" type="curve" smooth="yes"/>
      <point x="232" y="1135"/>
      <point x="355" y="1350"/>
      <point x="600" y="1350" type="curve" smooth="yes"/>
      <point x="845" y="1350"/>
      <point x="968" y="1135"/>
      <point x="968" y="700" type="curve" smooth="yes"/>
      <point x="968" y="279"/>
      <point x="845" y="70"/>
    </contour>
  </outline>
</glyph>
<glyph name="one" format="2">
  <advance width="1200"/>
  <unicode hex="0031"/>
  <outline>
    <contour>
      <point x="585" y="0" type="line"/>
      <point x="675" y="0" type="line"/>
      <point x="675" y="1420" type="line"/>
      <point x="585" y="1420" type="line"/>
    </contour>
    <contour>
      <point x="194" y="0" type="line"/>
      <point x="605" y="0" type="line"/>
      <point x="605" y="88" type="line"/>
      <point x="194" y="88" type="line"/>
    </contour>
    <contour>
      <point x="655" y="0" type="line"/>
      <point x="1028" y="0" type="line"/>
      <point x="1028" y="88" type="line"/>
      <point x="655" y="88" type="line"/>
    </contour>
    <contour>
      <point x="214" y="1208" type="line"/>
      <point x="585" y="1324" type="line"/>
      <point x="585" y="1420" type="line"/>
      <point x="214" y="1300" type="line"/>
    </contour>
  </outline>
</glyph>
<glyph name="two" format="2">
  <advance width="1200"/>
  <unicode hex="0032"/>
  <outline>
    <contour>
      <point x="196" y="0" type="line"/>
      <point x="286" y="0" type="line"/>
      <point x="286" y="98" type="line"/>
      <point x="761" y="353"/>
      <point x="1012" y="653"/>
      <point x="1012" y="1002" type="curve" smooth="yes"/>
      <point x="1012" y="1280"/>
      <point x="858" y="1440"/>
      <point x="588" y="1440" type="curve" smooth="yes"/>
      <point x="391" y="1440"/>
      <point x="256" y="1371"/>
      <point x="150" y="1261" type="curve"/>
      <point x="208" y="1204" type="line"/>
      <point x="318" y="1302"/>
      <point x="443" y="1350"/>
      <point x="584" y="1350" type="curve" smooth="yes"/>
      <point x="798" y="1350"/>
      <point x="920" y="1223"/>
      <point x="920" y="1002" type="curve" smooth="yes"/>
      <point x="920" y="687"/>
      <point x="680" y="398"/>
      <point x="196" y="131" type="curve"/>
    </contour>
    <contour>
      <point x="256" y="0" type="line"/>
      <point x="1072" y="0" type="line"/>
      <point x="1072" y="88" type="line"/>
      <point x="256" y="88" type="line"/>
    </contour>
  </outline>
</glyph>
<glyph name="three" format="2">
  <advance width="1200"/>
  <unicode hex="0033"/>
  <outline>
    <contour>
      <point x="514" y="-20" type="curve" smooth="yes"/>
      <point x="836" y="-20"/>
      <point x="1020" y="119"/>
      <point x="1020" y="360" type="curve" smooth="yes"/>
      <point x="1020" y="571"/>
      <point x="850" y="722"/>
      <point x="592" y="742" type="curve" smooth="yes"/>
      <point x="359" y="769" type="line"/>
      <point x="373" y="681" type="line"/>
      <point x="412" y="681" type="line" smooth="yes"/>
      <point x="721" y="681"/>
      <point x="924" y="554"/>
      <point x="924" y="360" type="curve" smooth="yes"/>
      <point x="924" y="176"/>
      <point x="770" y="70"/>
      <point x="506" y="70" type="curve" smooth="yes"/>
      <point x="355" y="70"/>
      <point x="264" y="96"/>
      <point x="186" y="115" type="curve"/>
      <point x="174" y="28" type="line"/>
      <point x="268" y="-1"/>
      <point x="377" y="-20"/>
    </contour>
    <contour>
      <point x="373" y="681" type="line"/>
      <point x="598" y="690" type="line"/>
      <point x="598" y="750" type="line"/>
      <point x="834" y="799"/>
      <point x="990" y="937"/>
      <point x="990" y="1122" type="curve" smooth="yes"/>
      <point x="990" y="1324"/>
      <point x="855" y="1440"/>
      <point x="618" y="1440" type="curve" smooth="yes"/>
      <point x="409" y="1440"/>
      <point x="269" y="1388"/>
      <point x="149" y="1266" type="curve"/>
      <point x="217" y="1199" type="line"/>
      <point x="345" y="1305"/>
      <point x="462" y="1350"/>
      <point x="606" y="1350" type="curve" smooth="yes"/>
      <point x="789" y="1350"/>
      <point x="894" y="1267"/>
      <point x="894" y="1122" type="curve" smooth="yes"/>
      <point x="894" y="953"/>
      <point x="682" y="813"/>
      <point x="359" y="769" type="curve"/>
    </contour>
  </outline>
</glyph>
<glyph name="four" format="2">
  <advance width="1200"/>
  <unicode hex="0034"/>
  <outline>
    <contour>
      <point x="98" y="327" type="line"/>
      <point x="188" y="327" type="line"/>
      <point x="366" y="1340" type="line"/>
      <point x="274" y="1340" type="line"/>
    </contour>
    <contour>
      <point x="96" y="327" type="line"/>
      <point x="836" y="327" type="line"/>
      <point x="836" y="415" type="line"/>
      <point x="178" y="415" type="line"/>
    </contour>
    <contour>
      <point x="886" y="327" type="line"/>
      <point x="1096" y="327" type="line"/>
      <point x="1096" y="415" type="line"/>
      <point x="886" y="415" type="line"/>
    </contour>
    <contour>
      <point x="816" y="0" type="line"/>
      <point x="906" y="0" type="line"/>
      <point x="906" y="1420" type="line"/>
      <point x="816" y="1420" type="line"/>
    </contour>
  </outline>
</glyph>
<glyph name="five" format="2">
  <advance width="1200"/>
  <unicode hex="0035"/>
  <outline>
    <contour>
      <point x="614" y="-20" type="curve" smooth="yes"/>
      <point x="903" y="-20"/>
      <point x="1069" y="154"/>
      <point x="1069" y="458" type="curve" smooth="yes"/>
      <point x="1069" y="736"/>
      <point x="924" y="896"/>
      <point x="672" y="896" type="curve" smooth="yes"/>
      <point x="543" y="896"/>
      <point x="417" y="863"/>
      <point x="288" y="740" type="curve"/>
      <point x="330" y="680" type="line"/>
      <point x="433" y="764"/>
      <point x="543" y="806"/>
      <point x="662" y="806" type="curve" smooth="yes"/>
      <point x="862" y="806"/>
      <point x="977" y="679"/>
      <point x="977" y="458" type="curve" smooth="yes"/>
      <point x="977" y="211"/>
      <point x="845" y="70"/>
      <point x="616" y="70" type="curve" smooth="yes"/>
      <point x="381" y="70"/>
      <point x="249" y="191"/>
      <point x="249" y="398" type="curve"/>
      <point x="157" y="398" type="line"/>
      <point x="157" y="132"/>
      <point x="323" y="-20"/>
    </contour>
    <contour>
      <point x="246" y="680" type="line"/>
      <point x="330" y="680" type="line"/>
      <point x="333" y="754" type="line"/>
      <point x="353" y="1420" type="line"/>
      <point x="263" y="1420" type="line"/>
    </contour>
    <contour>
      <point x="334" y="1332" type="line"/>
      <point x="979" y="1332" type="line"/>
      <point x="979" y="1420" type="line"/>
      <point x="316" y="1420" type="line"/>
    </contour>
  </outline>
</glyph>
<glyph name="six" format="2">
  <advance width="1200"/>
  <unicode hex="0036"/>
  <outline>
    <contour>
      <point x="189" y="325" type="line"/>
      <point x="236" y="666" type="line"/>
      <point x="236" y="1094"/>
      <point x="467" y="1315"/>
      <point x="939" y="1336" type="curve"/>
      <point x="930" y="1426" type="line"/>
      <point x="398" y="1400"/>
      <point x="142" y="1134"/>
      <point x="142" y="624" type="curve" smooth="yes"/>
      <point x="142" y="526" type="line"/>
    </contour>
    <contour>
      <point x="618" y="-20" type="curve" smooth="yes"/>
      <point x="901" y="-20"/>
      <point x="1060" y="156"/>
      <point x="1060" y="460" type="curve" smooth="yes"/>
      <point x="1060" y="740"/>
      <point x="900" y="900"/>
      <point x="616" y="900" type="curve" smooth="yes"/>
      <point x="427" y="900"/>
      <point x="288" y="816"/>
      <point x="244" y="668" type="curve"/>
      <point x="180" y="668" type="line"/>
      <point x="180" y="408" type="line"/>
      <point x="142" y="526" type="line"/>
      <point x="142" y="178"/>
      <point x="313" y="-20"/>
    </contour>
    <contour>
      <point x="620" y="70" type="curve" smooth="yes"/>
      <point x="364" y="70"/>
      <point x="234" y="216"/>
      <point x="234" y="440" type="curve" smooth="yes"/>
      <point x="234" y="676"/>
      <point x="369" y="810"/>
      <point x="606" y="810" type="curve" smooth="yes"/>
      <point x="839" y="810"/>
      <point x="968" y="684"/>
      <point x="968" y="460" type="curve" smooth="yes"/>
      <point x="968" y="234"/>
      <point x="842" y="70"/>
    </contour>
  </outline>
</glyph>
<glyph name="seven" format="2">
  <advance width="1200"/>
  <unicode hex="0037"/>
  <outline>
    <contour>
      <point x="572" y="0" type="line"/>
      <point x="666" y="0" type="line"/>
      <point x="1130" y="1420" type="line"/>
      <point x="1036" y="1420" type="line"/>
    </contour>
    <contour>
      <point x="136" y="982" type="line"/>
      <point x="226" y="982" type="line"/>
      <point x="226" y="1390" type="line"/>
      <point x="136" y="1390" type="line"/>
    </contour>
    <contour>
      <point x="136" y="1332" type="line"/>
      <point x="1068" y="1332" type="line"/>
      <point x="1130" y="1420" type="line"/>
      <point x="136" y="1420" type="line"/>
    </contour>
  </outline>
</glyph>
<glyph name="eight" format="2">
  <advance width="1200"/>
  <unicode hex="0038"/>
  <outline>
    <contour>
      <point x="600" y="-20" type="curve" smooth="yes"/>
      <point x="893" y="-20"/>
      <point x="1060" y="123"/>
      <point x="1060" y="370" type="curve" smooth="yes"/>
      <point x="1060" y="626"/>
      <point x="893" y="772"/>
      <point x="600" y="772" type="curve" smooth="yes"/>
      <point x="307" y="772"/>
      <point x="140" y="626"/>
      <point x="140" y="370" type="curve" smooth="yes"/>
      <point x="140" y="123"/>
      <point x="307" y="-20"/>
    </contour>
    <contour>
      <point x="600" y="70" type="curve" smooth="yes"/>
      <point x="366" y="70"/>
      <point x="232" y="183"/>
      <point x="232" y="380" type="curve" smooth="yes"/>
      <point x="232" y="585"/>
      <point x="366" y="705"/>
      <point x="600" y="705" type="curve" smooth="yes"/>
      <point x="834" y="705"/>
      <point x="968" y="585"/>
      <point x="968" y="380" type="curve" smooth="yes"/>
      <point x="968" y="183"/>
      <point x="834" y="70"/>
    </contour>
    <contour>
      <point x="434" y="726" type="line"/>
      <point x="768" y="726" type="line"/>
      <point x="768" y="788" type="line"/>
      <point x="434" y="788" type="line"/>
    </contour>
    <contour>
      <point x="600" y="795" type="curve" smooth="yes"/>
      <point x="392" y="795"/>
      <point x="272" y="893"/>
      <point x="272" y="1060" type="curve" smooth="yes"/>
      <point x="272" y="1245"/>
      <point x="392" y="1350"/>
      <point x="600" y="1350" type="curve" smooth="yes"/>
      <point x="808" y="1350"/>
      <point x="928" y="1245"/>
      <point x="928" y="1060" type="curve" smooth="yes"/>
      <point x="928" y="893"/>
      <point x="808" y="795"/>
    </contour>
    <contour>
      <point x="600" y="738" type="curve" smooth="yes"/>
      <point x="867" y="738"/>
      <point x="1020" y="870"/>
      <point x="1020" y="1100" type="curve" smooth="yes"/>
      <point x="1020" y="1315"/>
      <point x="867" y="1440"/>
      <point x="600" y="1440" type="curve" smooth="yes"/>
      <point x="333" y="1440"/>
      <point x="180" y="1315"/>
      <point x="180" y="1100" type="curve" smooth="yes"/>
      <point x="180" y="870"/>
      <point x="333" y="738"/>
    </contour>
  </outline>
</glyph>
<glyph name="nine" format="2">
  <advance width="1200"/>
  <unicode hex="0039"/>
  <outline>
    <contour>
      <point x="272" y="-6" type="line"/>
      <point x="804" y="20"/>
      <point x="1060" y="286"/>
      <point x="1060" y="796" type="curve" smooth="yes"/>
      <point x="1060" y="894" type="line"/>
      <point x="1013" y="1095" type="line"/>
      <point x="966" y="754" type="line"/>
      <point x="966" y="326"/>
      <point x="735" y="105"/>
      <point x="263" y="84" type="curve"/>
    </contour>
    <contour>
      <point x="596" y="610" type="curve" smooth="yes"/>
      <point x="363" y="610"/>
      <point x="234" y="736"/>
      <point x="234" y="960" type="curve" smooth="yes"/>
      <point x="234" y="1186"/>
      <point x="360" y="1350"/>
      <point x="582" y="1350" type="curve" smooth="yes"/>
      <point x="838" y="1350"/>
      <point x="968" y="1204"/>
      <point x="968" y="980" type="curve" smooth="yes"/>
      <point x="968" y="744"/>
      <point x="833" y="610"/>
    </contour>
    <contour>
      <point x="586" y="520" type="curve" smooth="yes"/>
      <point x="775" y="520"/>
      <point x="914" y="604"/>
      <point x="958" y="752" type="curve"/>
      <point x="1022" y="752" type="line"/>
      <point x="1022" y="1012" type="line"/>
      <point x="1060" y="894" type="line"/>
      <point x="1060" y="1242"/>
      <point x="889" y="1440"/>
      <point x="584" y="1440" type="curve" smooth="yes"/>
      <point x="301" y="1440"/>
      <point x="142" y="1264"/>
      <point x="142" y="960" type="curve" smooth="yes"/>
      <point x="142" y="680"/>
      <point x="302" y="520"/>
    </contour>
  </outline>
</glyph>
<glyph name="colon" format="2">
  <advance width="1200"/>
  <unicode hex="003A"/>
  <outline>
    <contour>
      <point x="600" y="881" type="curve" smooth="yes"/>
      <point x="655" y="881"/>
      <point x="700" y="925"/>
      <point x="700" y="980" type="curve" smooth="yes"/>
      <point x="700" y="1035"/>
      <point x="655" y="1080"/>
      <point x="600" y="1080" type="curve" smooth="yes"/>
      <point x="545" y="1080"/>
      <point x="500" y="1035"/>
      <point x="500" y="980" type="curve" smooth="yes"/>
      <point x="500" y="925"/>
      <point x="545" y="881"/>
    </contour>
    <contour>
      <point x="600" y="-20" type="curve" smooth="yes"/>
      <point x="655" y="-20"/>
      <point x="700" y="24"/>
      <point x="700" y="79" type="curve" smooth="yes"/>
      <point x="700" y="134"/>
      <point x="655" y="179"/>
      <point x="600" y="179" type="curve" smooth="yes"/>
      <point x="545" y="179"/>
      <point x="500" y="134"/>
      <point x="500" y="79" type="curve" smooth="yes"/>
      <point x="500" y="24"/>
      <point x="545" y="-20"/>
    </contour>
  </outline>
</glyph>
<glyph name="semicolon" format="2">
  <advance width="1200"/>
  <unicode hex="003B"/>
  <outline>
    <contour>
      <point x="600" y="881" type="curve" smooth="yes"/>
      <point x="655" y="881"/>
      <point x="700" y="925"/>
      <point x="700" y="980" type="curve" smooth="yes"/>
      <point x="700" y="1035"/>
      <point x="655" y="1080"/>
      <point x="600" y="1080" type="curve" smooth="yes"/>
      <point x="545" y="1080"/>
      <point x="500" y="1035"/>
      <point x="500" y="980" type="curve" smooth="yes"/>
      <point x="500" y="925"/>
      <point x="545" y="881"/>
    </contour>
    <component base="comma"/>
  </outline>
</glyph>
<glyph name="less" format="2">
  <advance width="1200"/>
  <unicode hex="003C"/>
  <outline>
    <contour>
      <point x="1030" y="214" type="line"/>
      <point x="1030" y="309" type="line"/>
      <point x="198" y="705" type="line"/>
      <point x="198" y="713" type="line"/>
      <point x="1030" y="1109" type="line"/>
      <point x="1030" y="1204" type="line"/>
      <point x="120" y="765" type="line"/>
      <point x="120" y="653" type="line"/>
    </contour>
  </outline>
</glyph>
<glyph name="equal" format="2">
  <advance width="1200"/>
  <unicode hex="003D"/>
  <outline>
    <contour>
      <point x="124" y="914" type="line"/>
      <point x="1076" y="914" type="line"/>
      <point x="1076" y="1004" type="line"/>
      <point x="124" y="1004" type="line"/>
    </contour>
    <contour>
      <point x="124" y="414" type="line"/>
      <point x="1076" y="414" type="line"/>
      <point x="1076" y="504" type="line"/>
      <point x="124" y="504" type="line"/>
    </contour>
  </outline>
</glyph>
<glyph name="greater" format="2">
  <advance width="1200"/>
  <unicode hex="003E"/>
  <outline>
    <contour>
      <point x="170" y="214" type="line"/>
      <point x="1080" y="653" type="line"/>
      <point x="1080" y="765" type="line"/>
      <point x="170" y="1204" type="line"/>
      <point x="170" y="1104" type="line"/>
      <point x="1002" y="713" type="line"/>
      <point x="1002" y="705" type="line"/>
      <point x="170" y="314" type="line"/>
    </contour>
  </outline>
</glyph>
<glyph name="question" format="2">
  <advance width="1200"/>
  <unicode hex="003F"/>
  <outline>
    <contour>
      <point x="553" y="356" type="line"/>
      <point x="643" y="356" type="line"/>
      <point x="643" y="458" type="line" smooth="yes"/>
      <point x="643" y="558"/>
      <point x="684" y="630"/>
      <point x="781" y="698" type="curve" smooth="yes"/>
      <point x="950" y="818"/>
      <point x="1022" y="935"/>
      <point x="1022" y="1092" type="curve" smooth="yes"/>
      <point x="1022" y="1313"/>
      <point x="881" y="1440"/>
      <point x="636" y="1440" type="curve"/>
      <point x="634" y="1350" type="line"/>
      <point x="822" y="1350"/>
      <point x="930" y="1252"/>
      <point x="930" y="1082" type="curve" smooth="yes"/>
      <point x="930" y="960"/>
      <point x="872" y="868"/>
      <point x="737" y="774" type="curve" smooth="yes"/>
      <point x="608" y="684"/>
      <point x="553" y="594"/>
      <point x="553" y="472" type="curve" smooth="yes"/>
    </contour>
    <contour>
      <point x="239" y="1198" type="line"/>
      <point x="376" y="1305"/>
      <point x="494" y="1350"/>
      <point x="634" y="1350" type="curve"/>
      <point x="636" y="1440" type="line"/>
      <point x="464" y="1440"/>
      <point x="328" y="1387"/>
      <point x="180" y="1261" type="curve"/>
    </contour>
    <component base="period" xOffset="2"/>
  </outline>
</glyph>
<glyph name="at" format="2">
  <advance width="1200"/>
  <unicode hex="0040"/>
  <outline>
    <contour>
      <point x="710" y="-203" type="curve" smooth="yes"/>
      <point x="792" y="-203"/>
      <point x="850" y="-196"/>
      <point x="907" y="-178" type="curve"/>
      <point x="907" y="-88" type="line"/>
      <point x="855" y="-106"/>
      <point x="796" y="-113"/>
      <point x="710" y="-113" type="curve" smooth="yes"/>
      <point x="370" y="-113"/>
      <point x="224" y="99"/>
      <point x="224" y="598" type="curve" smooth="yes"/>
      <point x="224" y="1101"/>
      <point x="358" y="1349"/>
      <point x="630" y="1349" type="curve" smooth="yes"/>
      <point x="845" y="1349"/>
      <point x="958" y="1196"/>
      <point x="958" y="887" type="curve" smooth="yes"/>
      <point x="958" y="769"/>
      <point x="958" y="667"/>
      <point x="958" y="524" type="curve"/>
      <point x="1048" y="524" type="line"/>
      <point x="1048" y="669"/>
      <point x="1048" y="773"/>
      <point x="1048" y="893" type="curve" smooth="yes"/>
      <point x="1048" y="1258"/>
      <point x="908" y="1439"/>
      <point x="630" y="1439" type="curve" smooth="yes"/>
      <point x="297" y="1439"/>
      <point x="132" y="1160"/>
      <point x="132" y="598" type="curve" smooth="yes"/>
      <point x="132" y="36"/>
      <point x="305" y="-203"/>
    </contour>
    <contour>
      <point x="696" y="148" type="curve" smooth="yes"/>
      <point x="828" y="148"/>
      <point x="922" y="228"/>
      <point x="951" y="370" type="curve"/>
      <point x="970" y="370" type="line"/>
      <point x="970" y="867" type="line"/>
      <point x="951" y="867" type="line"/>
      <point x="915" y="1009"/>
      <point x="821" y="1089"/>
      <point x="698" y="1089" type="curve" smooth="yes"/>
      <point x="505" y="1089"/>
      <point x="396" y="935"/>
      <point x="396" y="619" type="curve" smooth="yes"/>
      <point x="396" y="320"/>
      <point x="505" y="148"/>
    </contour>
    <contour>
      <point x="694" y="238" type="curve" smooth="yes"/>
      <point x="562" y="238"/>
      <point x="486" y="376"/>
      <point x="486" y="620" type="curve" smooth="yes"/>
      <point x="486" y="884"/>
      <point x="566" y="999"/>
      <point x="708" y="999" type="curve" smooth="yes"/>
      <point x="869" y="999"/>
      <point x="958" y="884"/>
      <point x="958" y="620" type="curve" smooth="yes"/>
      <point x="958" y="376"/>
      <point x="863" y="238"/>
    </contour>
    <contour>
      <point x="958" y="168" type="line"/>
      <point x="1048" y="168" type="line"/>
      <point x="1048" y="769" type="line"/>
      <point x="958" y="769" type="line"/>
    </contour>
  </outline>
</glyph>
<glyph name="A" format="2">
  <advance width="1200"/>
  <unicode hex="0041"/>
  <anchor x="600" y="0" name="bottom"/>
  <anchor x="1080" y="10" name="ogonek"/>
  <anchor x="600" y="1420" name="top"/>
  <outline>
    <contour>
      <point x="69" y="0" type="line"/>
      <point x="160" y="0" type="line"/>
      <point x="595" y="1343" type="line"/>
      <point x="605" y="1343" type="line"/>
      <point x="1040" y="0" type="line"/>
      <point x="1131" y="0" type="line"/>
      <point x="664" y="1420" type="line"/>
      <point x="536" y="1420" type="line"/>
    </contour>
    <contour>
      <point x="235" y="397" type="line"/>
      <point x="955" y="397" type="line"/>
      <point x="955" y="485" type="line"/>
      <point x="235" y="485" type="line"/>
    </contour>
  </outline>
</glyph>
<glyph name="B" format="2">
  <advance width="1200"/>
  <unicode hex="0042"/>
  <anchor x="560" y="0" name="bottom"/>
  <anchor x="560" y="1420" name="top"/>
  <outline>
    <contour>
      <point x="264" y="0" type="line"/>
      <point x="664" y="0" type="line" smooth="yes"/>
      <point x="948" y="0"/>
      <point x="1110" y="138"/>
      <point x="1110" y="380" type="curve" smooth="yes"/>
      <point x="1110" y="615"/>
      <point x="958" y="750"/>
      <point x="692" y="750" type="curve" smooth="yes"/>
      <point x="244" y="750" type="line"/>
      <point x="268" y="705" type="line"/>
      <point x="672" y="705" type="line" smooth="yes"/>
      <point x="889" y="705"/>
      <point x="1014" y="586"/>
      <point x="1014" y="380" type="curve" smooth="yes"/>
      <point x="1014" y="195"/>
      <point x="887" y="90"/>
      <point x="666" y="90" type="curve" smooth="yes"/>
      <point x="264" y="90" type="line"/>
    </contour>
    <contour>
      <point x="184" y="0" type="line"/>
      <point x="278" y="0" type="line"/>
      <point x="278" y="1420" type="line"/>
      <point x="184" y="1420" type="line"/>
    </contour>
    <contour>
      <point x="256" y="733" type="line"/>
      <point x="704" y="733" type="line"/>
      <point x="704" y="771" type="line"/>
      <point x="256" y="771" type="line"/>
    </contour>
    <contour>
      <point x="264" y="758" type="line"/>
      <point x="674" y="758" type="line" smooth="yes"/>
      <point x="888" y="758"/>
      <point x="1010" y="871"/>
      <point x="1010" y="1070" type="curve" smooth="yes"/>
      <point x="1010" y="1292"/>
      <point x="854" y="1420"/>
      <point x="582" y="1420" type="curve" smooth="yes"/>
      <point x="244" y="1420" type="line"/>
      <point x="268" y="1330" type="line"/>
      <point x="592" y="1330" type="line" smooth="yes"/>
      <point x="796" y="1330"/>
      <point x="914" y="1236"/>
      <point x="914" y="1070" type="curve" smooth="yes"/>
      <point x="914" y="896"/>
      <point x="794" y="795"/>
      <point x="586" y="795" type="curve" smooth="yes"/>
      <point x="264" y="795" type="line"/>
    </contour>
  </outline>
</glyph>
<glyph name="C" format="2">
  <advance width="1200"/>
  <unicode hex="0043"/>
  <anchor x="665" y="0" name="bottom"/>
  <anchor x="695" y="1420" name="top"/>
  <outline>
    <contour>
      <point x="738" y="-20" type="curve" smooth="yes"/>
      <point x="867" y="-20"/>
      <point x="992" y="5"/>
      <point x="1112" y="57" type="curve"/>
      <point x="1087" y="146" type="line"/>
      <point x="976" y="95"/>
      <point x="867" y="70"/>
      <point x="752" y="70" type="curve" smooth="yes"/>
      <point x="383" y="70"/>
      <point x="196" y="287"/>
      <point x="196" y="722" type="curve" smooth="yes"/>
      <point x="196" y="1123"/>
      <point x="401" y="1350"/>
      <point x="716" y="1350" type="curve" smooth="yes"/>
      <point x="848" y="1350"/>
      <point x="967" y="1293"/>
      <point x="1040" y="1194" type="curve"/>
      <point x="1105" y="1261" type="line"/>
      <point x="1042" y="1375"/>
      <point x="899" y="1440"/>
      <point x="714" y="1440" type="curve" smooth="yes"/>
      <point x="323" y="1440"/>
      <point x="100" y="1174"/>
      <point x="100" y="712" type="curve" smooth="yes"/>
      <point x="100" y="224"/>
      <point x="314" y="-20"/>
    </contour>
  </outline>
</glyph>
<glyph name="D" format="2">
  <advance width="1200"/>
  <unicode hex="0044"/>
  <anchor x="550" y="0" name="bottom"/>
  <anchor x="550" y="710" name="center"/>
  <anchor x="550" y="1420" name="top"/>
  <outline>
    <contour>
      <point x="260" y="0" type="line"/>
      <point x="504" y="0" type="line" smooth="yes"/>
      <point x="923" y="0"/>
      <point x="1130" y="229"/>
      <point x="1130" y="690" type="curve" smooth="yes"/>
      <point x="1130" y="1178"/>
      <point x="923" y="1420"/>
      <point x="504" y="1420" type="curve" smooth="yes"/>
      <point x="240" y="1420" type="line"/>
      <point x="264" y="1332" type="line"/>
      <point x="504" y="1332" type="line" smooth="yes"/>
      <point x="861" y="1332"/>
      <point x="1038" y="1119"/>
      <point x="1038" y="690" type="curve" smooth="yes"/>
      <point x="1038" y="288"/>
      <point x="861" y="88"/>
      <point x="504" y="88" type="curve" smooth="yes"/>
      <point x="260" y="88" type="line"/>
    </contour>
    <contour>
      <point x="184" y="0" type="line"/>
      <point x="274" y="0" type="line"/>
      <point x="274" y="1420" type="line"/>
      <point x="184" y="1420" type="line"/>
    </contour>
  </outline>
</glyph>
<glyph name="E" format="2">
  <advance width="1200"/>
  <unicode hex="0045"/>
  <anchor x="630" y="0" name="bottom"/>
  <anchor x="1080" y="10" name="ogonek"/>
  <anchor x="630" y="1420" name="top"/>
  <anchor x="20" y="1420" name="topleft"/>
  <outline>
    <contour>
      <point x="184" y="0" type="line"/>
      <point x="278" y="0" type="line"/>
      <point x="278" y="1420" type="line"/>
      <point x="184" y="1420" type="line"/>
    </contour>
    <contour>
      <point x="184" y="0" type="line"/>
      <point x="1076" y="0" type="line"/>
      <point x="1076" y="90" type="line"/>
      <point x="184" y="90" type="line"/>
    </contour>
    <contour>
      <point x="184" y="666" type="line"/>
      <point x="896" y="666" type="line"/>
      <point x="896" y="756" type="line"/>
      <point x="184" y="756" type="line"/>
    </contour>
    <contour>
      <point x="184" y="1330" type="line"/>
      <point x="1076" y="1330" type="line"/>
      <point x="1076" y="1420" type="line"/>
      <point x="184" y="1420" type="line"/>
    </contour>
  </outline>
</glyph>
<glyph name="F" format="2">
  <advance width="1200"/>
  <unicode hex="0046"/>
  <anchor x="660" y="0" name="bottom"/>
  <anchor x="660" y="1420" name="top"/>
  <outline>
    <contour>
      <point x="184" y="0" type="line"/>
      <point x="274" y="0" type="line"/>
      <point x="274" y="1420" type="line"/>
      <point x="184" y="1420" type="line"/>
    </contour>
    <contour>
      <point x="184" y="607" type="line"/>
      <point x="936" y="607" type="line"/>
      <point x="936" y="695" type="line"/>
      <point x="184" y="695" type="line"/>
    </contour>
    <contour>
      <point x="184" y="1332" type="line"/>
      <point x="1076" y="1332" type="line"/>
      <point x="1076" y="1420" type="line"/>
      <point x="184" y="1420" type="line"/>
    </contour>
  </outline>
</glyph>
<glyph name="G" format="2">
  <advance width="1200"/>
  <unicode hex="0047"/>
  <anchor x="715" y="0" name="bottom"/>
  <anchor x="695" y="1420" name="top"/>
  <outline>
    <contour>
      <point x="722" y="-20" type="curve" smooth="yes"/>
      <point x="891" y="-20"/>
      <point x="1030" y="22"/>
      <point x="1086" y="40" type="curve"/>
      <point x="1028" y="120" type="line"/>
      <point x="967" y="102"/>
      <point x="870" y="70"/>
      <point x="746" y="70" type="curve" smooth="yes"/>
      <point x="400" y="70"/>
      <point x="202" y="308"/>
      <point x="202" y="722" type="curve" smooth="yes"/>
      <point x="202" y="1121"/>
      <point x="393" y="1350"/>
      <point x="726" y="1350" type="curve" smooth="yes"/>
      <point x="855" y="1350"/>
      <point x="973" y="1302"/>
      <point x="1050" y="1217" type="curve"/>
      <point x="1119" y="1285" type="line"/>
      <point x="1042" y="1384"/>
      <point x="895" y="1440"/>
      <point x="714" y="1440" type="curve" smooth="yes"/>
      <point x="330" y="1440"/>
      <point x="110" y="1175"/>
      <point x="110" y="712" type="curve" smooth="yes"/>
      <point x="110" y="247"/>
      <point x="333" y="-20"/>
    </contour>
    <contour>
      <point x="996" y="40" type="line"/>
      <point x="1086" y="40" type="line"/>
      <point x="1086" y="660" type="line"/>
      <point x="996" y="660" type="line"/>
    </contour>
    <contour>
      <point x="630" y="572" type="line"/>
      <point x="1080" y="572" type="line"/>
      <point x="1080" y="660" type="line"/>
      <point x="630" y="660" type="line"/>
    </contour>
  </outline>
</glyph>
<glyph name="H" format="2">
  <advance width="1200"/>
  <unicode hex="0048"/>
  <anchor x="600" y="0" name="bottom"/>
  <anchor x="600" y="710" name="center"/>
  <anchor x="600" y="1420" name="top"/>
  <anchor x="20" y="1420" name="topleft"/>
  <outline>
    <contour>
      <point x="946" y="0" type="line"/>
      <point x="1036" y="0" type="line"/>
      <point x="1036" y="1420" type="line"/>
      <point x="946" y="1420" type="line"/>
    </contour>
    <contour>
      <point x="164" y="0" type="line"/>
      <point x="254" y="0" type="line"/>
      <point x="254" y="1420" type="line"/>
      <point x="164" y="1420" type="line"/>
    </contour>
    <contour>
      <point x="206" y="663" type="line"/>
      <point x="999" y="663" type="line"/>
      <point x="999" y="751" type="line"/>
      <point x="206" y="751" type="line"/>
    </contour>
  </outline>
</glyph>
<glyph name="I" format="2">
  <advance width="1200"/>
  <unicode hex="0049"/>
  <anchor x="600" y="0" name="bottom"/>
  <anchor x="600" y="10" name="ogonek"/>
  <anchor x="600" y="1420" name="top"/>
  <anchor x="20" y="1420" name="topleft"/>
  <outline>
    <contour>
      <point x="552" y="0" type="line"/>
      <point x="646" y="0" type="line"/>
      <point x="646" y="1420" type="line"/>
      <point x="552" y="1420" type="line"/>
    </contour>
    <contour>
      <point x="192" y="0" type="line"/>
      <point x="1008" y="0" type="line"/>
      <point x="1008" y="90" type="line"/>
      <point x="192" y="90" type="line"/>
    </contour>
    <contour>
      <point x="192" y="1330" type="line"/>
      <point x="1008" y="1330" type="line"/>
      <point x="1008" y="1420" type="line"/>
      <point x="192" y="1420" type="line"/>
    </contour>
  </outline>
</glyph>
<glyph name="J" format="2">
  <advance width="1200"/>
  <unicode hex="004A"/>
  <anchor x="600" y="0" name="bottom"/>
  <anchor x="790" y="1420" name="top"/>
  <outline>
    <contour>
      <point x="584" y="-20" type="curve" smooth="yes"/>
      <point x="894" y="-20"/>
      <point x="1048" y="144"/>
      <point x="1048" y="476" type="curve" smooth="yes"/>
      <point x="1048" y="1420" type="line"/>
      <point x="958" y="1420" type="line"/>
      <point x="958" y="476" type="line" smooth="yes"/>
      <point x="958" y="205"/>
      <point x="836" y="70"/>
      <point x="589" y="70" type="curve" smooth="yes"/>
      <point x="337" y="70"/>
      <point x="212" y="205"/>
      <point x="212" y="476" type="curve"/>
      <point x="120" y="476" type="line"/>
      <point x="120" y="144"/>
      <point x="274" y="-20"/>
    </contour>
    <contour>
      <point x="500" y="1332" type="line"/>
      <point x="1006" y="1332" type="line"/>
      <point x="1006" y="1420" type="line"/>
      <point x="500" y="1420" type="line"/>
    </contour>
  </outline>
</glyph>
<glyph name="K" format="2">
  <advance width="1200"/>
  <unicode hex="004B"/>
  <anchor x="640" y="0" name="bottom"/>
  <anchor x="600" y="1420" name="top"/>
  <outline>
    <contour>
      <point x="246" y="492" type="line"/>
      <point x="776" y="492"/>
      <point x="1080" y="830"/>
      <point x="1080" y="1420" type="curve"/>
      <point x="988" y="1420" type="line"/>
      <point x="988" y="887"/>
      <point x="724" y="582"/>
      <point x="264" y="582" type="curve"/>
    </contour>
    <contour>
      <point x="184" y="0" type="line"/>
      <point x="274" y="0" type="line"/>
      <point x="274" y="1420" type="line"/>
      <point x="184" y="1420" type="line"/>
    </contour>
    <contour>
      <point x="1040" y="0" type="line"/>
      <point x="1148" y="0" type="line"/>
      <point x="792" y="710" type="line"/>
      <point x="714" y="650" type="line"/>
    </contour>
  </outline>
</glyph>
<glyph name="L" format="2">
  <advance width="1200"/>
  <unicode hex="004C"/>
  <anchor x="620" y="0" name="bottom"/>
  <anchor x="600" y="710" name="center"/>
  <anchor x="229" y="1420" name="top"/>
  <anchor x="1180" y="1420" name="topright"/>
  <outline>
    <contour>
      <point x="184" y="0" type="line"/>
      <point x="278" y="0" type="line"/>
      <point x="278" y="1420" type="line"/>
      <point x="184" y="1420" type="line"/>
    </contour>
    <contour>
      <point x="184" y="0" type="line"/>
      <point x="1076" y="0" type="line"/>
      <point x="1076" y="90" type="line"/>
      <point x="184" y="90" type="line"/>
    </contour>
  </outline>
</glyph>
<glyph name="M" format="2">
  <advance width="1200"/>
  <unicode hex="004D"/>
  <anchor x="600" y="0" name="bottom"/>
  <anchor x="600" y="1420" name="top"/>
  <outline>
    <contour>
      <point x="587" y="660" type="line"/>
      <point x="660" y="660" type="line"/>
      <point x="944" y="1332" type="line"/>
      <point x="986" y="1332" type="line"/>
      <point x="986" y="1420" type="line"/>
      <point x="886" y="1420" type="line"/>
      <point x="602" y="748" type="line"/>
      <point x="600" y="748" type="line"/>
    </contour>
    <contour>
      <point x="152" y="0" type="line"/>
      <point x="246" y="0" type="line"/>
      <point x="246" y="1420" type="line"/>
      <point x="152" y="1420" type="line"/>
    </contour>
    <contour>
      <point x="540" y="660" type="line"/>
      <point x="614" y="660" type="line"/>
      <point x="601" y="748" type="line"/>
      <point x="598" y="748" type="line"/>
      <point x="314" y="1420" type="line"/>
      <point x="232" y="1420" type="line"/>
      <point x="232" y="1332" type="line"/>
      <point x="256" y="1332" type="line"/>
    </contour>
    <contour>
      <point x="954" y="0" type="line"/>
      <point x="1048" y="0" type="line"/>
      <point x="1048" y="1420" type="line"/>
      <point x="954" y="1420" type="line"/>
    </contour>
  </outline>
</glyph>
<glyph name="N" format="2">
  <advance width="1200"/>
  <unicode hex="004E"/>
  <anchor x="600" y="0" name="bottom"/>
  <anchor x="600" y="1420" name="top"/>
  <outline>
    <contour>
      <point x="881" y="0" type="line"/>
      <point x="973" y="0" type="line"/>
      <point x="973" y="88" type="line"/>
      <point x="931" y="88" type="line"/>
      <point x="320" y="1420" type="line"/>
      <point x="215" y="1420" type="line"/>
      <point x="215" y="1332" type="line"/>
      <point x="270" y="1332" type="line"/>
    </contour>
    <contour>
      <point x="172" y="0" type="line"/>
      <point x="262" y="0" type="line"/>
      <point x="262" y="1420" type="line"/>
      <point x="172" y="1420" type="line"/>
    </contour>
    <contour>
      <point x="938" y="0" type="line"/>
      <point x="1028" y="0" type="line"/>
      <point x="1028" y="1420" type="line"/>
      <point x="938" y="1420" type="line"/>
    </contour>
  </outline>
</glyph>
<glyph name="O" format="2">
  <advance width="1200"/>
  <unicode hex="004F"/>
  <anchor x="600" y="0" name="bottom"/>
  <anchor x="600" y="710" name="center"/>
  <anchor x="1080" y="10" name="ogonek"/>
  <anchor x="600" y="1420" name="top"/>
  <anchor x="20" y="1420" name="topleft"/>
  <anchor x="1180" y="1420" name="topright"/>
  <outline>
    <contour>
      <point x="600" y="-20" type="curve" smooth="yes"/>
      <point x="932" y="-20"/>
      <point x="1100" y="218"/>
      <point x="1100" y="700" type="curve" smooth="yes"/>
      <point x="1100" y="1194"/>
      <point x="932" y="1440"/>
      <point x="600" y="1440" type="curve" smooth="yes"/>
      <point x="268" y="1440"/>
      <point x="100" y="1194"/>
      <point x="100" y="700" type="curve" smooth="yes"/>
      <point x="100" y="218"/>
      <point x="268" y="-20"/>
    </contour>
    <contour>
      <point x="600" y="60" type="curve" smooth="yes"/>
      <point x="328" y="60"/>
      <point x="192" y="273"/>
      <point x="192" y="700" type="curve" smooth="yes"/>
      <point x="192" y="1135"/>
      <point x="328" y="1350"/>
      <point x="600" y="1350" type="curve" smooth="yes"/>
      <point x="872" y="1350"/>
      <point x="1008" y="1135"/>
      <point x="1008" y="700" type="curve" smooth="yes"/>
      <point x="1008" y="273"/>
      <point x="872" y="60"/>
    </contour>
  </outline>
</glyph>
<glyph name="P" format="2">
  <advance width="1200"/>
  <unicode hex="0050"/>
  <anchor x="560" y="0" name="bottom"/>
  <anchor x="560" y="1580" name="top"/>
  <outline>
    <contour>
      <point x="254" y="489" type="line"/>
      <point x="598" y="489" type="line" smooth="yes"/>
      <point x="915" y="489"/>
      <point x="1096" y="658"/>
      <point x="1096" y="955" type="curve" smooth="yes"/>
      <point x="1096" y="1251"/>
      <point x="915" y="1420"/>
      <point x="598" y="1420" type="curve" smooth="yes"/>
      <point x="258" y="1420" type="line"/>
      <point x="258" y="1330" type="line"/>
      <point x="598" y="1330" type="line" smooth="yes"/>
      <point x="853" y="1330"/>
      <point x="1000" y="1194"/>
      <point x="1000" y="955" type="curve" smooth="yes"/>
      <point x="1000" y="716"/>
      <point x="853" y="579"/>
      <point x="598" y="579" type="curve" smooth="yes"/>
      <point x="254" y="579" type="line"/>
    </contour>
    <contour>
      <point x="184" y="0" type="line"/>
      <point x="278" y="0" type="line"/>
      <point x="278" y="1420" type="line"/>
      <point x="184" y="1420" type="line"/>
    </contour>
  </outline>
</glyph>
<glyph name="Q" format="2">
  <advance width="1200"/>
  <unicode hex="0051"/>
  <anchor x="600" y="-460" name="bottom"/>
  <outline>
    <contour>
      <point x="980" y="-460" type="curve" smooth="yes"/>
      <point x="1012" y="-460" type="line"/>
      <point x="1024" y="-372" type="line"/>
      <point x="980" y="-372" type="line" smooth="yes"/>
      <point x="764" y="-372"/>
      <point x="640" y="-244"/>
      <point x="640" y="-22" type="curve" smooth="yes"/>
      <point x="640" y="42" type="line"/>
      <point x="550" y="42" type="line"/>
      <point x="550" y="-20" type="line" smooth="yes"/>
      <point x="550" y="-300"/>
      <point x="707" y="-460"/>
    </contour>
    <component base="O"/>
  </outline>
</glyph>
<glyph name="R" format="2">
  <advance width="1200"/>
  <unicode hex="0052"/>
  <anchor x="610" y="0" name="bottom"/>
  <anchor x="560" y="1420" name="top"/>
  <outline>
    <contour>
      <point x="240" y="591" type="line"/>
      <point x="668" y="591" type="line" smooth="yes"/>
      <point x="921" y="591"/>
      <point x="1066" y="744"/>
      <point x="1066" y="1010" type="curve" smooth="yes"/>
      <point x="1066" y="1271"/>
      <point x="921" y="1420"/>
      <point x="668" y="1420" type="curve" smooth="yes"/>
      <point x="220" y="1420" type="line"/>
      <point x="244" y="1332" type="line"/>
      <point x="668" y="1332" type="line" smooth="yes"/>
      <point x="863" y="1332"/>
      <point x="974" y="1207"/>
      <point x="974" y="990" type="curve" smooth="yes"/>
      <point x="974" y="792"/>
      <point x="863" y="679"/>
      <point x="668" y="679" type="curve" smooth="yes"/>
      <point x="240" y="679" type="line"/>
    </contour>
    <contour>
      <point x="164" y="0" type="line"/>
      <point x="254" y="0" type="line"/>
      <point x="254" y="1420" type="line"/>
      <point x="164" y="1420" type="line"/>
    </contour>
    <contour>
      <point x="1008" y="0" type="line"/>
      <point x="1118" y="0" type="line"/>
      <point x="764" y="668" type="line"/>
      <point x="664" y="668" type="line"/>
    </contour>
  </outline>
</glyph>
<glyph name="S" format="2">
  <advance width="1200"/>
  <unicode hex="0053"/>
  <anchor x="610" y="0" name="bottom"/>
  <anchor x="620" y="1420" name="top"/>
  <outline>
    <contour>
      <point x="551" y="-20" type="curve" smooth="yes"/>
      <point x="873" y="-20"/>
      <point x="1033" y="96"/>
      <point x="1033" y="331" type="curve" smooth="yes"/>
      <point x="1033" y="479"/>
      <point x="959" y="600"/>
      <point x="801" y="677" type="curve" smooth="yes"/>
      <point x="425" y="861" type="line" smooth="yes"/>
      <point x="330" y="907"/>
      <point x="283" y="980"/>
      <point x="283" y="1080" type="curve" smooth="yes"/>
      <point x="283" y="1261"/>
      <point x="390" y="1350"/>
      <point x="607" y="1350" type="curve" smooth="yes"/>
      <point x="729" y="1350"/>
      <point x="851" y="1303"/>
      <point x="975" y="1208" type="curve"/>
      <point x="1040" y="1273" type="line"/>
      <point x="924" y="1385"/>
      <point x="780" y="1440"/>
      <point x="606" y="1440" type="curve" smooth="yes"/>
      <point x="329" y="1440"/>
      <point x="191" y="1317"/>
      <point x="191" y="1070" type="curve" smooth="yes"/>
      <point x="191" y="939"/>
      <point x="252" y="843"/>
      <point x="376" y="781" type="curve" smooth="yes"/>
      <point x="779" y="578" type="line" smooth="yes"/>
      <point x="889" y="523"/>
      <point x="941" y="436"/>
      <point x="941" y="327" type="curve" smooth="yes"/>
      <point x="941" y="155"/>
      <point x="817" y="70"/>
      <point x="567" y="70" type="curve" smooth="yes"/>
      <point x="437" y="70"/>
      <point x="304" y="95"/>
      <point x="167" y="145" type="curve"/>
      <point x="153" y="48" type="line"/>
      <point x="271" y="3"/>
      <point x="403" y="-20"/>
    </contour>
  </outline>
</glyph>
<glyph name="T" format="2">
  <advance width="1200"/>
  <unicode hex="0054"/>
  <anchor x="595" y="0" name="bottom"/>
  <anchor x="600" y="710" name="center"/>
  <anchor x="600" y="1420" name="top"/>
  <outline>
    <contour>
      <point x="553" y="0" type="line"/>
      <point x="647" y="0" type="line"/>
      <point x="647" y="1420" type="line"/>
      <point x="553" y="1420" type="line"/>
    </contour>
    <contour>
      <point x="104" y="1330" type="line"/>
      <point x="1096" y="1330" type="line"/>
      <point x="1096" y="1420" type="line"/>
      <point x="104" y="1420" type="line"/>
    </contour>
  </outline>
</glyph>
<glyph name="U" format="2">
  <advance width="1200"/>
  <unicode hex="0055"/>
  <anchor x="600" y="0" name="bottom"/>
  <anchor x="1080" y="10" name="ogonek"/>
  <anchor x="600" y="1420" name="top"/>
  <anchor x="1180" y="1420" name="topright"/>
  <outline>
    <contour>
      <point x="596" y="-20" type="curve" smooth="yes"/>
      <point x="884" y="-20"/>
      <point x="1036" y="138"/>
      <point x="1036" y="456" type="curve" smooth="yes"/>
      <point x="1036" y="1420" type="line"/>
      <point x="946" y="1420" type="line"/>
      <point x="946" y="456" type="line" smooth="yes"/>
      <point x="946" y="200"/>
      <point x="829" y="70"/>
      <point x="600" y="70" type="curve" smooth="yes"/>
      <point x="360" y="70"/>
      <point x="254" y="200"/>
      <point x="254" y="456" type="curve" smooth="yes"/>
      <point x="254" y="1420" type="line"/>
      <point x="164" y="1420" type="line"/>
      <point x="164" y="456" type="line" smooth="yes"/>
      <point x="164" y="138"/>
      <point x="308" y="-20"/>
    </contour>
  </outline>
</glyph>
<glyph name="V" format="2">
  <advance width="1200"/>
  <unicode hex="0056"/>
  <anchor x="600" y="0" name="bottom"/>
  <anchor x="600" y="1420" name="top"/>
  <outline>
    <contour>
      <point x="536" y="0" type="line"/>
      <point x="664" y="0" type="line"/>
      <point x="1131" y="1420" type="line"/>
      <point x="1040" y="1420" type="line"/>
      <point x="605" y="77" type="line"/>
      <point x="595" y="77" type="line"/>
      <point x="160" y="1420" type="line"/>
      <point x="69" y="1420" type="line"/>
    </contour>
  </outline>
</glyph>
<glyph name="W" format="2">
  <advance width="1200"/>
  <unicode hex="0057"/>
  <anchor x="600" y="0" name="bottom"/>
  <anchor x="600" y="1420" name="top"/>
  <outline>
    <contour>
      <point x="264" y="0" type="line"/>
      <point x="419" y="0" type="line"/>
      <point x="594" y="990" type="line"/>
      <point x="634" y="990" type="line"/>
      <point x="676" y="1060" type="line"/>
      <point x="526" y="1060" type="line"/>
      <point x="350" y="80" type="line"/>
      <point x="330" y="80" type="line"/>
      <point x="130" y="1420" type="line"/>
      <point x="44" y="1420" type="line"/>
    </contour>
    <contour>
      <point x="781" y="0" type="line"/>
      <point x="936" y="0" type="line"/>
      <point x="1156" y="1420" type="line"/>
      <point x="1070" y="1420" type="line"/>
      <point x="870" y="80" type="line"/>
      <point x="850" y="80" type="line"/>
      <point x="676" y="1060" type="line"/>
      <point x="526" y="1060" type="line"/>
      <point x="566" y="990" type="line"/>
      <point x="606" y="990" type="line"/>
    </contour>
  </outline>
</glyph>
<glyph name="X" format="2">
  <advance width="1200"/>
  <unicode hex="0058"/>
  <anchor x="600" y="0" name="bottom"/>
  <anchor x="600" y="1420" name="top"/>
  <outline>
    <contour>
      <point x="1012" y="0" type="line"/>
      <point x="1112" y="0" type="line"/>
      <point x="637" y="715" type="line"/>
      <point x="190" y="1420" type="line"/>
      <point x="90" y="1420" type="line"/>
      <point x="578" y="667" type="line"/>
    </contour>
    <contour>
      <point x="90" y="0" type="line"/>
      <point x="190" y="0" type="line"/>
      <point x="624" y="667" type="line"/>
      <point x="1112" y="1420" type="line"/>
      <point x="1012" y="1420" type="line"/>
      <point x="564" y="714" type="line"/>
    </contour>
  </outline>
</glyph>
<glyph name="Y" format="2">
  <advance width="1200"/>
  <unicode hex="0059"/>
  <anchor x="600" y="0" name="bottom"/>
  <anchor x="600" y="1420" name="top"/>
  <anchor x="20" y="1420" name="topleft"/>
  <outline>
    <contour>
      <point x="575" y="474" type="line"/>
      <point x="625" y="474" type="line"/>
      <point x="1151" y="1420" type="line"/>
      <point x="1052" y="1420" type="line"/>
      <point x="604" y="605" type="line"/>
      <point x="596" y="605" type="line"/>
      <point x="148" y="1420" type="line"/>
      <point x="49" y="1420" type="line"/>
    </contour>
    <contour>
      <point x="555" y="0" type="line"/>
      <point x="645" y="0" type="line"/>
      <point x="645" y="590" type="line"/>
      <point x="555" y="590" type="line"/>
    </contour>
  </outline>
</glyph>
<glyph name="Z" format="2">
  <advance width="1200"/>
  <unicode hex="005A"/>
  <anchor x="600" y="0" name="bottom"/>
  <anchor x="600" y="710" name="center"/>
  <anchor x="600" y="1420" name="top"/>
  <outline>
    <contour>
      <point x="246" y="36" type="line"/>
      <point x="1026" y="1332" type="line"/>
      <point x="954" y="1384" type="line"/>
      <point x="174" y="88" type="line"/>
    </contour>
    <contour>
      <point x="174" y="0" type="line"/>
      <point x="1046" y="0" type="line"/>
      <point x="1046" y="88" type="line"/>
      <point x="174" y="88" type="line"/>
    </contour>
    <contour>
      <point x="174" y="1332" type="line"/>
      <point x="1026" y="1332" type="line"/>
      <point x="1026" y="1420" type="line"/>
      <point x="174" y="1420" type="line"/>
    </contour>
  </outline>
</glyph>
<glyph name="bracketleft" format="2">
  <advance width="1200"/>
  <unicode hex="005B"/>
  <outline>
    <contour>
      <point x="396" y="-214" type="line"/>
      <point x="486" y="-214" type="line"/>
      <point x="486" y="1634" type="line"/>
      <point x="396" y="1634" type="line"/>
    </contour>
    <contour>
      <point x="466" y="-214" type="line"/>
      <point x="974" y="-214" type="line"/>
      <point x="974" y="-126" type="line"/>
      <point x="466" y="-126" type="line"/>
    </contour>
    <contour>
      <point x="466" y="1546" type="line"/>
      <point x="974" y="1546" type="line"/>
      <point x="974" y="1634" type="line"/>
      <point x="466" y="1634" type="line"/>
    </contour>
  </outline>
</glyph>
<glyph name="backslash" format="2">
  <advance width="1200"/>
  <unicode hex="005C"/>
  <outline>
    <contour>
      <point x="998" y="-190" type="line"/>
      <point x="1096" y="-190" type="line"/>
      <point x="226" y="1610" type="line"/>
      <point x="128" y="1610" type="line"/>
    </contour>
  </outline>
</glyph>
<glyph name="bracketright" format="2">
  <advance width="1200"/>
  <unicode hex="005D"/>
  <outline>
    <contour>
      <point x="714" y="-214" type="line"/>
      <point x="804" y="-214" type="line"/>
      <point x="804" y="1634" type="line"/>
      <point x="714" y="1634" type="line"/>
    </contour>
    <contour>
      <point x="226" y="-214" type="line"/>
      <point x="734" y="-214" type="line"/>
      <point x="734" y="-126" type="line"/>
      <point x="226" y="-126" type="line"/>
    </contour>
    <contour>
      <point x="226" y="1546" type="line"/>
      <point x="734" y="1546" type="line"/>
      <point x="734" y="1634" type="line"/>
      <point x="226" y="1634" type="line"/>
    </contour>
  </outline>
</glyph>
<glyph name="asciicircum" format="2">
  <advance width="1200"/>
  <unicode hex="005E"/>
  <outline>
    <contour>
      <point x="228" y="820" type="line"/>
      <point x="329" y="820" type="line"/>
      <point x="595" y="1340" type="line"/>
      <point x="603" y="1340" type="line"/>
      <point x="869" y="820" type="line"/>
      <point x="970" y="820" type="line"/>
      <point x="660" y="1420" type="line"/>
      <point x="538" y="1420" type="line"/>
    </contour>
  </outline>
</glyph>
<glyph name="grave" format="2">
  <advance width="1200"/>
  <unicode hex="0060"/>
  <outline>
    <contour>
      <point x="680" y="1068" type="line"/>
      <point x="786" y="1068" type="line"/>
      <point x="459" y="1628" type="line"/>
      <point x="355" y="1628" type="line"/>
    </contour>
  </outline>
</glyph>
<glyph name="a" format="2">
  <advance width="1200"/>
  <unicode hex="0061"/>
  <anchor x="600" y="0" name="bottom"/>
  <anchor x="1057" y="10" name="ogonek"/>
  <anchor x="580" y="1060" name="top"/>
  <outline>
    <contour>
      <point x="878" y="-10" type="line"/>
      <point x="1134" y="0" type="line"/>
      <point x="1134" y="63" type="line"/>
      <point x="951" y="76" type="line"/>
      <point x="951" y="597" type="line" smooth="yes"/>
      <point x="951" y="921"/>
      <point x="804" y="1062"/>
      <point x="460" y="1067" type="curve" smooth="yes"/>
      <point x="270" y="1070" type="line"/>
      <point x="250" y="978" type="line"/>
      <point x="460" y="975" type="line" smooth="yes"/>
      <point x="737" y="971"/>
      <point x="855" y="864"/>
      <point x="855" y="610" type="curve" smooth="yes"/>
      <point x="855" y="383" type="line"/>
      <point x="861" y="408" type="line"/>
    </contour>
    <contour>
      <point x="448" y="-20" type="curve" smooth="yes"/>
      <point x="671" y="-20"/>
      <point x="842" y="94"/>
      <point x="859" y="244" type="curve"/>
      <point x="842" y="224" type="line"/>
      <point x="930" y="224" type="line"/>
      <point x="855" y="496" type="line"/>
      <point x="855" y="371" type="line"/>
      <point x="855" y="201"/>
      <point x="680" y="72"/>
      <point x="448" y="72" type="curve" smooth="yes"/>
      <point x="301" y="72"/>
      <point x="216" y="140"/>
      <point x="216" y="261" type="curve" smooth="yes"/>
      <point x="216" y="420"/>
      <point x="334" y="499"/>
      <point x="573" y="499" type="curve" smooth="yes"/>
      <point x="693" y="499"/>
      <point x="842" y="499"/>
      <point x="927" y="466" type="curve"/>
      <point x="936" y="547" type="line"/>
      <point x="866" y="574"/>
      <point x="727" y="586"/>
      <point x="578" y="586" type="curve" smooth="yes"/>
      <point x="272" y="586"/>
      <point x="120" y="476"/>
      <point x="120" y="254" type="curve" smooth="yes"/>
      <point x="120" y="80"/>
      <point x="239" y="-20"/>
    </contour>
  </outline>
</glyph>
<glyph name="b" format="2">
  <advance width="1200"/>
  <unicode hex="0062"/>
  <anchor x="640" y="0" name="bottom"/>
  <anchor x="280" y="1568" name="top"/>
  <outline>
    <contour>
      <point x="402" y="-20" type="curve" smooth="yes"/>
      <point x="833" y="-20"/>
      <point x="1080" y="206"/>
      <point x="1080" y="600" type="curve" smooth="yes"/>
      <point x="1080" y="906"/>
      <point x="927" y="1080"/>
      <point x="660" y="1080" type="curve" smooth="yes"/>
      <point x="462" y="1080"/>
      <point x="340" y="1010"/>
      <point x="292" y="868" type="curve"/>
      <point x="220" y="868" type="line"/>
      <point x="282" y="596" type="line"/>
      <point x="282" y="859"/>
      <point x="405" y="988"/>
      <point x="650" y="988" type="curve" smooth="yes"/>
      <point x="864" y="988"/>
      <point x="984" y="848"/>
      <point x="984" y="600" type="curve" smooth="yes"/>
      <point x="984" y="264"/>
      <point x="788" y="72"/>
      <point x="444" y="72" type="curve" smooth="yes"/>
      <point x="379" y="72"/>
      <point x="309" y="77"/>
      <point x="254" y="86" type="curve"/>
      <point x="192" y="0" type="line"/>
      <point x="265" y="-12"/>
      <point x="331" y="-20"/>
    </contour>
    <contour>
      <point x="192" y="0" type="line"/>
      <point x="282" y="18" type="line"/>
      <point x="282" y="1500" type="line"/>
      <point x="192" y="1500" type="line"/>
    </contour>
  </outline>
</glyph>
<glyph name="c" format="2">
  <advance width="1200"/>
  <unicode hex="0063"/>
  <anchor x="650" y="0" name="bottom"/>
  <anchor x="650" y="1060" name="top"/>
  <outline>
    <contour>
      <point x="702" y="-20" type="curve" smooth="yes"/>
      <point x="812" y="-20"/>
      <point x="929" y="-13"/>
      <point x="1038" y="15" type="curve"/>
      <point x="1026" y="106" type="line"/>
      <point x="923" y="85"/>
      <point x="815" y="72"/>
      <point x="706" y="72" type="curve" smooth="yes"/>
      <point x="410" y="72"/>
      <point x="256" y="233"/>
      <point x="256" y="542" type="curve" smooth="yes"/>
      <point x="256" y="827"/>
      <point x="407" y="988"/>
      <point x="666" y="988" type="curve" smooth="yes"/>
      <point x="800" y="988"/>
      <point x="918" y="942"/>
      <point x="990" y="807" type="curve"/>
      <point x="1073" y="860" type="line"/>
      <point x="1014" y="1000"/>
      <point x="868" y="1080"/>
      <point x="674" y="1080" type="curve" smooth="yes"/>
      <point x="344" y="1080"/>
      <point x="160" y="878"/>
      <point x="160" y="532" type="curve" smooth="yes"/>
      <point x="160" y="169"/>
      <point x="346" y="-20"/>
    </contour>
  </outline>
</glyph>
<glyph name="d" format="2">
  <advance width="1200"/>
  <unicode hex="0064"/>
  <anchor x="540" y="0" name="bottom"/>
  <anchor x="600" y="530" name="center"/>
  <anchor x="903" y="1568" name="top"/>
  <anchor x="1157" y="1060" name="topright"/>
  <outline>
    <contour>
      <point x="563" y="-20" type="curve" smooth="yes"/>
      <point x="750" y="-20"/>
      <point x="890" y="73"/>
      <point x="910" y="210" type="curve"/>
      <point x="986" y="210" type="line"/>
      <point x="914" y="540" type="line"/>
      <point x="914" y="399" type="line" smooth="yes"/>
      <point x="914" y="181"/>
      <point x="799" y="72"/>
      <point x="563" y="72" type="curve" smooth="yes"/>
      <point x="334" y="72"/>
      <point x="216" y="224"/>
      <point x="216" y="520" type="curve" smooth="yes"/>
      <point x="216" y="819"/>
      <point x="341" y="988"/>
      <point x="561" y="988" type="curve" smooth="yes"/>
      <point x="797" y="988"/>
      <point x="914" y="845"/>
      <point x="914" y="551" type="curve"/>
      <point x="976" y="822" type="line"/>
      <point x="906" y="822" type="line"/>
      <point x="876" y="984"/>
      <point x="751" y="1080"/>
      <point x="569" y="1080" type="curve" smooth="yes"/>
      <point x="283" y="1080"/>
      <point x="120" y="876"/>
      <point x="120" y="520" type="curve" smooth="yes"/>
      <point x="120" y="172"/>
      <point x="281" y="-20"/>
    </contour>
    <contour>
      <point x="935" y="-10" type="line"/>
      <point x="1008" y="-5" type="line"/>
      <point x="1008" y="1500" type="line"/>
      <point x="914" y="1500" type="line"/>
      <point x="914" y="268" type="line"/>
    </contour>
  </outline>
</glyph>
<glyph name="e" format="2">
  <advance width="1200"/>
  <unicode hex="0065"/>
  <anchor x="620" y="0" name="bottom"/>
  <anchor x="1047" y="10" name="ogonek"/>
  <anchor x="600" y="1060" name="top"/>
  <outline>
    <contour>
      <point x="693" y="-20" type="curve" smooth="yes"/>
      <point x="796" y="-20"/>
      <point x="902" y="-9"/>
      <point x="978" y="8" type="curve"/>
      <point x="963" y="100" type="line"/>
      <point x="885" y="82"/>
      <point x="792" y="72"/>
      <point x="717" y="72" type="curve" smooth="yes"/>
      <point x="418" y="72"/>
      <point x="246" y="245"/>
      <point x="246" y="542" type="curve" smooth="yes"/>
      <point x="246" y="825"/>
      <point x="378" y="988"/>
      <point x="607" y="988" type="curve" smooth="yes"/>
      <point x="815" y="988"/>
      <point x="934" y="846"/>
      <point x="934" y="598" type="curve"/>
      <point x="223" y="598" type="line"/>
      <point x="223" y="508" type="line"/>
      <point x="1024" y="508" type="line"/>
      <point x="1028" y="529"/>
      <point x="1030" y="562"/>
      <point x="1030" y="596" type="curve" smooth="yes"/>
      <point x="1030" y="902"/>
      <point x="874" y="1080"/>
      <point x="605" y="1080" type="curve" smooth="yes"/>
      <point x="316" y="1080"/>
      <point x="150" y="885"/>
      <point x="150" y="544" type="curve" smooth="yes"/>
      <point x="150" y="186"/>
      <point x="348" y="-20"/>
    </contour>
  </outline>
</glyph>
<glyph name="f" format="2">
  <advance width="1200"/>
  <unicode hex="0066"/>
  <anchor x="508" y="0" name="bottom"/>
  <anchor x="740" y="1500" name="top"/>
  <outline>
    <contour>
      <point x="461" y="0" type="line"/>
      <point x="555" y="0" type="line"/>
      <point x="555" y="980" type="line" smooth="yes"/>
      <point x="555" y="1280"/>
      <point x="669" y="1428"/>
      <point x="898" y="1428" type="curve" smooth="yes"/>
      <point x="951" y="1428"/>
      <point x="1004" y="1424"/>
      <point x="1078" y="1414" type="curve"/>
      <point x="1100" y="1500" type="line"/>
      <point x="1034" y="1514"/>
      <point x="975" y="1520"/>
      <point x="904" y="1520" type="curve" smooth="yes"/>
      <point x="607" y="1520"/>
      <point x="461" y="1338"/>
      <point x="461" y="970" type="curve" smooth="yes"/>
    </contour>
    <contour>
      <point x="92" y="688" type="line"/>
      <point x="1024" y="688" type="line"/>
      <point x="1024" y="778" type="line"/>
      <point x="92" y="778" type="line"/>
    </contour>
  </outline>
</glyph>
<glyph name="g" format="2">
  <advance width="1200"/>
  <unicode hex="0067"/>
  <anchor x="540" y="-480" name="bottom"/>
  <anchor x="580" y="1060" name="top"/>
  <outline>
    <contour>
      <point x="558" y="-20" type="curve" smooth="yes"/>
      <point x="744" y="-20"/>
      <point x="871" y="47"/>
      <point x="906" y="164" type="curve"/>
      <point x="986" y="164" type="line"/>
      <point x="914" y="456" type="line"/>
      <point x="914" y="340" type="line" smooth="yes"/>
      <point x="914" y="170"/>
      <point x="786" y="72"/>
      <point x="562" y="72" type="curve" smooth="yes"/>
      <point x="342" y="72"/>
      <point x="216" y="235"/>
      <point x="216" y="520" type="curve" smooth="yes"/>
      <point x="216" y="818"/>
      <point x="341" y="988"/>
      <point x="560" y="988" type="curve" smooth="yes"/>
      <point x="785" y="988"/>
      <point x="914" y="852"/>
      <point x="914" y="616" type="curve"/>
      <point x="976" y="868" type="line"/>
      <point x="906" y="868" type="line"/>
      <point x="866" y="1003"/>
      <point x="740" y="1080"/>
      <point x="560" y="1080" type="curve" smooth="yes"/>
      <point x="280" y="1080"/>
      <point x="120" y="876"/>
      <point x="120" y="520" type="curve" smooth="yes"/>
      <point x="120" y="177"/>
      <point x="280" y="-20"/>
    </contour>
    <contour>
      <point x="206" y="-478" type="line"/>
      <point x="492" y="-468" type="line" smooth="yes"/>
      <point x="851" y="-456"/>
      <point x="1008" y="-284"/>
      <point x="1008" y="94" type="curve" smooth="yes"/>
      <point x="1008" y="304" type="line"/>
      <point x="912" y="304" type="line"/>
      <point x="912" y="62" type="line" smooth="yes"/>
      <point x="912" y="-223"/>
      <point x="791" y="-367"/>
      <point x="512" y="-378" type="curve" smooth="yes"/>
      <point x="202" y="-390" type="line"/>
    </contour>
    <contour>
      <point x="914" y="260" type="line"/>
      <point x="1008" y="260" type="line"/>
      <point x="1008" y="1060" type="line"/>
      <point x="924" y="1060" type="line"/>
      <point x="914" y="836" type="line"/>
    </contour>
  </outline>
</glyph>
<glyph name="h" format="2">
  <advance width="1200"/>
  <unicode hex="0068"/>
  <anchor x="600" y="0" name="bottom"/>
  <anchor x="600" y="784" name="center"/>
  <anchor x="239" y="1500" name="top"/>
  <outline>
    <contour>
      <point x="914" y="0" type="line"/>
      <point x="1008" y="0" type="line"/>
      <point x="1008" y="690" type="line" smooth="yes"/>
      <point x="1008" y="938"/>
      <point x="867" y="1080"/>
      <point x="621" y="1080" type="curve" smooth="yes"/>
      <point x="441" y="1080"/>
      <point x="333" y="1010"/>
      <point x="294" y="868" type="curve"/>
      <point x="222" y="868" type="line"/>
      <point x="286" y="600" type="line"/>
      <point x="286" y="860"/>
      <point x="402" y="988"/>
      <point x="630" y="988" type="curve" smooth="yes"/>
      <point x="809" y="988"/>
      <point x="914" y="882"/>
      <point x="914" y="694" type="curve" smooth="yes"/>
    </contour>
    <contour>
      <point x="192" y="0" type="line"/>
      <point x="286" y="0" type="line"/>
      <point x="286" y="1500" type="line"/>
      <point x="192" y="1500" type="line"/>
    </contour>
  </outline>
</glyph>
<glyph name="i" format="2">
  <advance width="1200"/>
  <unicode hex="0069"/>
  <anchor x="670" y="0" name="bottom"/>
  <outline>
    <contour>
      <point x="623" y="0" type="line"/>
      <point x="717" y="0" type="line"/>
      <point x="717" y="1012" type="line"/>
      <point x="623" y="1012" type="line"/>
    </contour>
    <contour>
      <point x="184" y="0" type="line"/>
      <point x="644" y="0" type="line"/>
      <point x="644" y="90" type="line"/>
      <point x="184" y="90" type="line"/>
    </contour>
    <contour>
      <point x="696" y="0" type="line"/>
      <point x="1078" y="0" type="line"/>
      <point x="1078" y="90" type="line"/>
      <point x="696" y="90" type="line"/>
    </contour>
    <contour>
      <point x="244" y="970" type="line"/>
      <point x="717" y="970" type="line"/>
      <point x="717" y="1060" type="line"/>
      <point x="244" y="1060" type="line"/>
    </contour>
    <contour>
      <point x="653" y="1323" type="curve" smooth="yes"/>
      <point x="708" y="1323"/>
      <point x="753" y="1367"/>
      <point x="753" y="1422" type="curve" smooth="yes"/>
      <point x="753" y="1477"/>
      <point x="708" y="1522"/>
      <point x="653" y="1522" type="curve" smooth="yes"/>
      <point x="598" y="1522"/>
      <point x="553" y="1477"/>
      <point x="553" y="1422" type="curve" smooth="yes"/>
      <point x="553" y="1367"/>
      <point x="598" y="1323"/>
    </contour>
  </outline>
</glyph>
<glyph name="j" format="2">
  <advance width="1200"/>
  <unicode hex="006A"/>
  <anchor x="558" y="-480" name="bottom"/>
  <anchor x="798" y="1480" name="top"/>
  <outline>
    <contour>
      <point x="198" y="-480" type="line"/>
      <point x="350" y="-468" type="line" smooth="yes"/>
      <point x="712" y="-439"/>
      <point x="864" y="-284"/>
      <point x="864" y="94" type="curve" smooth="yes"/>
      <point x="864" y="384" type="line"/>
      <point x="770" y="384" type="line"/>
      <point x="770" y="62" type="line" smooth="yes"/>
      <point x="770" y="-227"/>
      <point x="652" y="-352"/>
      <point x="370" y="-378" type="curve" smooth="yes"/>
      <point x="194" y="-394" type="line"/>
    </contour>
    <contour>
      <point x="282" y="970" type="line"/>
      <point x="786" y="970" type="line"/>
      <point x="786" y="1060" type="line"/>
      <point x="282" y="1060" type="line"/>
    </contour>
    <contour>
      <point x="770" y="350" type="line"/>
      <point x="864" y="350" type="line"/>
      <point x="864" y="1060" type="line"/>
      <point x="770" y="1060" type="line"/>
    </contour>
    <contour>
      <point x="798" y="1323" type="curve" smooth="yes"/>
      <point x="853" y="1323"/>
      <point x="898" y="1367"/>
      <point x="898" y="1422" type="curve" smooth="yes"/>
      <point x="898" y="1477"/>
      <point x="853" y="1522"/>
      <point x="798" y="1522" type="curve" smooth="yes"/>
      <point x="743" y="1522"/>
      <point x="698" y="1477"/>
      <point x="698" y="1422" type="curve" smooth="yes"/>
      <point x="698" y="1367"/>
      <point x="743" y="1323"/>
    </contour>
  </outline>
</glyph>
<glyph name="k" format="2">
  <advance width="1200"/>
  <unicode hex="006B"/>
  <anchor x="620" y="0" name="bottom"/>
  <anchor x="229" y="1500" name="top"/>
  <outline>
    <contour>
      <point x="212" y="432" type="line"/>
      <point x="370" y="432" type="line" smooth="yes"/>
      <point x="778" y="432"/>
      <point x="980" y="620"/>
      <point x="1048" y="1060" type="curve"/>
      <point x="948" y="1060" type="line"/>
      <point x="883" y="666"/>
      <point x="725" y="522"/>
      <point x="350" y="522" type="curve" smooth="yes"/>
      <point x="212" y="522" type="line"/>
    </contour>
    <contour>
      <point x="184" y="0" type="line"/>
      <point x="274" y="0" type="line"/>
      <point x="274" y="1500" type="line"/>
      <point x="184" y="1500" type="line"/>
    </contour>
    <contour>
      <point x="1001" y="0" type="line"/>
      <point x="1116" y="0" type="line"/>
      <point x="776" y="598" type="line"/>
      <point x="698" y="546" type="line"/>
    </contour>
  </outline>
</glyph>
<glyph name="l" format="2">
  <advance width="1200"/>
  <unicode hex="006C"/>
  <anchor x="670" y="0" name="bottom"/>
  <anchor x="510" y="784" name="center"/>
  <anchor x="506" y="1500" name="top"/>
  <anchor x="960" y="1500" name="topright"/>
  <outline>
    <contour>
      <point x="818" y="-20" type="curve" smooth="yes"/>
      <point x="898" y="-20"/>
      <point x="964" y="-11"/>
      <point x="1040" y="12" type="curve"/>
      <point x="1029" y="101" type="line"/>
      <point x="946" y="81"/>
      <point x="885" y="72"/>
      <point x="828" y="72" type="curve" smooth="yes"/>
      <point x="644" y="72"/>
      <point x="553" y="164"/>
      <point x="553" y="350" type="curve" smooth="yes"/>
      <point x="553" y="1500" type="line"/>
      <point x="459" y="1500" type="line"/>
      <point x="459" y="350" type="line" smooth="yes"/>
      <point x="459" y="103"/>
      <point x="578" y="-20"/>
    </contour>
    <contour>
      <point x="112" y="1410" type="line"/>
      <point x="477" y="1410" type="line"/>
      <point x="477" y="1500" type="line"/>
      <point x="112" y="1500" type="line"/>
    </contour>
  </outline>
</glyph>
<glyph name="m" format="2">
  <advance width="1200"/>
  <unicode hex="006D"/>
  <anchor x="600" y="0" name="bottom"/>
  <anchor x="600" y="1060" name="top"/>
  <outline>
    <contour>
      <point x="970" y="0" type="line"/>
      <point x="1064" y="0" type="line"/>
      <point x="1064" y="830" type="line" smooth="yes"/>
      <point x="1064" y="997"/>
      <point x="992" y="1080"/>
      <point x="848" y="1080" type="curve" smooth="yes"/>
      <point x="733" y="1080"/>
      <point x="666" y="1030"/>
      <point x="645" y="928" type="curve"/>
      <point x="575" y="928" type="line"/>
      <point x="647" y="776" type="line"/>
      <point x="647" y="917"/>
      <point x="705" y="988"/>
      <point x="824" y="988" type="curve" smooth="yes"/>
      <point x="924" y="988"/>
      <point x="970" y="930"/>
      <point x="970" y="810" type="curve" smooth="yes"/>
    </contour>
    <contour>
      <point x="136" y="0" type="line"/>
      <point x="230" y="0" type="line"/>
      <point x="230" y="836" type="line"/>
      <point x="216" y="1060" type="line"/>
      <point x="136" y="1060" type="line"/>
    </contour>
    <contour>
      <point x="553" y="0" type="line"/>
      <point x="647" y="0" type="line"/>
      <point x="647" y="850" type="line" smooth="yes"/>
      <point x="647" y="1004"/>
      <point x="579" y="1080"/>
      <point x="442" y="1080" type="curve" smooth="yes"/>
      <point x="325" y="1080"/>
      <point x="255" y="1030"/>
      <point x="231" y="928" type="curve"/>
      <point x="168" y="928" type="line"/>
      <point x="230" y="776" type="line"/>
      <point x="230" y="917"/>
      <point x="289" y="988"/>
      <point x="406" y="988" type="curve" smooth="yes"/>
      <point x="504" y="988"/>
      <point x="553" y="935"/>
      <point x="553" y="830" type="curve" smooth="yes"/>
    </contour>
  </outline>
</glyph>
<glyph name="n" format="2">
  <advance width="1200"/>
  <unicode hex="006E"/>
  <anchor x="600" y="0" name="bottom"/>
  <anchor x="590" y="1060" name="top"/>
  <outline>
    <contour>
      <point x="914" y="0" type="line"/>
      <point x="1008" y="0" type="line"/>
      <point x="1008" y="690" type="line" smooth="yes"/>
      <point x="1008" y="938"/>
      <point x="867" y="1080"/>
      <point x="621" y="1080" type="curve" smooth="yes"/>
      <point x="441" y="1080"/>
      <point x="333" y="1010"/>
      <point x="294" y="868" type="curve"/>
      <point x="222" y="868" type="line"/>
      <point x="286" y="600" type="line"/>
      <point x="286" y="860"/>
      <point x="402" y="988"/>
      <point x="630" y="988" type="curve" smooth="yes"/>
      <point x="809" y="988"/>
      <point x="914" y="882"/>
      <point x="914" y="694" type="curve" smooth="yes"/>
    </contour>
    <contour>
      <point x="192" y="0" type="line"/>
      <point x="286" y="0" type="line"/>
      <point x="286" y="836" type="line"/>
      <point x="278" y="1060" type="line"/>
      <point x="192" y="1060" type="line"/>
    </contour>
  </outline>
</glyph>
<glyph name="o" format="2">
  <advance width="1200"/>
  <unicode hex="006F"/>
  <anchor x="600" y="0" name="bottom"/>
  <anchor x="600" y="530" name="center"/>
  <anchor x="600" y="10" name="ogonek"/>
  <anchor x="600" y="1060" name="top"/>
  <anchor x="1017" y="1060" name="topright"/>
  <outline>
    <contour>
      <point x="600" y="-20" type="curve" smooth="yes"/>
      <point x="878" y="-20"/>
      <point x="1040" y="180"/>
      <point x="1040" y="530" type="curve" smooth="yes"/>
      <point x="1040" y="880"/>
      <point x="878" y="1080"/>
      <point x="600" y="1080" type="curve" smooth="yes"/>
      <point x="322" y="1080"/>
      <point x="160" y="880"/>
      <point x="160" y="530" type="curve" smooth="yes"/>
      <point x="160" y="180"/>
      <point x="322" y="-20"/>
    </contour>
    <contour>
      <point x="600" y="72" type="curve" smooth="yes"/>
      <point x="381" y="72"/>
      <point x="256" y="238"/>
      <point x="256" y="530" type="curve" smooth="yes"/>
      <point x="256" y="822"/>
      <point x="381" y="988"/>
      <point x="600" y="988" type="curve" smooth="yes"/>
      <point x="819" y="988"/>
      <point x="944" y="822"/>
      <point x="944" y="530" type="curve" smooth="yes"/>
      <point x="944" y="238"/>
      <point x="819" y="72"/>
    </contour>
  </outline>
</glyph>
<glyph name="p" format="2">
  <advance width="1200"/>
  <unicode hex="0070"/>
  <anchor x="650" y="0" name="bottom"/>
  <anchor x="650" y="1060" name="top"/>
  <outline>
    <contour>
      <point x="192" y="-460" type="line"/>
      <point x="286" y="-460" type="line"/>
      <point x="286" y="806" type="line"/>
      <point x="266" y="1060" type="line"/>
      <point x="192" y="1060" type="line"/>
    </contour>
    <contour>
      <point x="657" y="-20" type="curve" smooth="yes"/>
      <point x="935" y="-20"/>
      <point x="1080" y="165"/>
      <point x="1080" y="520" type="curve" smooth="yes"/>
      <point x="1080" y="888"/>
      <point x="933" y="1080"/>
      <point x="651" y="1080" type="curve" smooth="yes"/>
      <point x="450" y="1080"/>
      <point x="327" y="992"/>
      <point x="294" y="822" type="curve"/>
      <point x="224" y="822" type="line"/>
      <point x="286" y="535" type="line"/>
      <point x="286" y="833"/>
      <point x="407" y="988"/>
      <point x="639" y="988" type="curve" smooth="yes"/>
      <point x="866" y="988"/>
      <point x="984" y="828"/>
      <point x="984" y="520" type="curve" smooth="yes"/>
      <point x="984" y="226"/>
      <point x="865" y="72"/>
      <point x="637" y="72" type="curve" smooth="yes"/>
      <point x="406" y="72"/>
      <point x="286" y="227"/>
      <point x="286" y="524" type="curve"/>
      <point x="214" y="250" type="line"/>
      <point x="295" y="250" type="line"/>
      <point x="329" y="83"/>
      <point x="442" y="-20"/>
    </contour>
  </outline>
</glyph>
<glyph name="q" format="2">
  <advance width="1200"/>
  <unicode hex="0071"/>
  <anchor x="552" y="0" name="bottom"/>
  <anchor x="552" y="1060" name="top"/>
  <outline>
    <contour>
      <point x="558" y="-20" type="curve" smooth="yes"/>
      <point x="744" y="-20"/>
      <point x="871" y="47"/>
      <point x="906" y="164" type="curve"/>
      <point x="986" y="164" type="line"/>
      <point x="914" y="456" type="line"/>
      <point x="914" y="340" type="line" smooth="yes"/>
      <point x="914" y="170"/>
      <point x="786" y="72"/>
      <point x="562" y="72" type="curve" smooth="yes"/>
      <point x="342" y="72"/>
      <point x="216" y="235"/>
      <point x="216" y="520" type="curve" smooth="yes"/>
      <point x="216" y="818"/>
      <point x="341" y="988"/>
      <point x="560" y="988" type="curve" smooth="yes"/>
      <point x="785" y="988"/>
      <point x="914" y="845"/>
      <point x="914" y="596" type="curve"/>
      <point x="976" y="868" type="line"/>
      <point x="906" y="868" type="line"/>
      <point x="866" y="1003"/>
      <point x="740" y="1080"/>
      <point x="560" y="1080" type="curve" smooth="yes"/>
      <point x="280" y="1080"/>
      <point x="120" y="876"/>
      <point x="120" y="520" type="curve" smooth="yes"/>
      <point x="120" y="177"/>
      <point x="280" y="-20"/>
    </contour>
    <contour>
      <point x="914" y="-460" type="line"/>
      <point x="1008" y="-460" type="line"/>
      <point x="1008" y="1060" type="line"/>
      <point x="934" y="1060" type="line"/>
      <point x="914" y="836" type="line"/>
    </contour>
  </outline>
</glyph>
<glyph name="r" format="2">
  <advance width="1200"/>
  <unicode hex="0072"/>
  <anchor x="430" y="0" name="bottom"/>
  <anchor x="600" y="1060" name="top"/>
  <outline>
    <contour>
      <point x="469" y="456" type="line"/>
      <point x="469" y="796"/>
      <point x="576" y="988"/>
      <point x="796" y="988" type="curve" smooth="yes"/>
      <point x="961" y="988"/>
      <point x="1032" y="898"/>
      <point x="1032" y="682" type="curve"/>
      <point x="1128" y="682" type="line"/>
      <point x="1128" y="962"/>
      <point x="1029" y="1080"/>
      <point x="800" y="1080" type="curve" smooth="yes"/>
      <point x="615" y="1080"/>
      <point x="508" y="983"/>
      <point x="477" y="788" type="curve"/>
      <point x="407" y="788" type="line"/>
    </contour>
    <contour>
      <point x="104" y="0" type="line"/>
      <point x="788" y="0" type="line"/>
      <point x="788" y="90" type="line"/>
      <point x="104" y="90" type="line"/>
    </contour>
    <contour>
      <point x="375" y="0" type="line"/>
      <point x="469" y="0" type="line"/>
      <point x="469" y="756" type="line"/>
      <point x="449" y="1060" type="line"/>
      <point x="375" y="1060" type="line"/>
    </contour>
    <contour>
      <point x="144" y="970" type="line"/>
      <point x="415" y="970" type="line"/>
      <point x="415" y="1060" type="line"/>
      <point x="144" y="1060" type="line"/>
    </contour>
  </outline>
</glyph>
<glyph name="s" format="2">
  <advance width="1200"/>
  <unicode hex="0073"/>
  <anchor x="590" y="0" name="bottom"/>
  <anchor x="630" y="1060" name="top"/>
  <outline>
    <contour>
      <point x="518" y="-20" type="curve" smooth="yes"/>
      <point x="871" y="-20"/>
      <point x="1020" y="64"/>
      <point x="1020" y="266" type="curve" smooth="yes"/>
      <point x="1020" y="415"/>
      <point x="933" y="509"/>
      <point x="717" y="561" type="curve" smooth="yes"/>
      <point x="530" y="606" type="line" smooth="yes"/>
      <point x="361" y="647"/>
      <point x="292" y="710"/>
      <point x="292" y="790" type="curve" smooth="yes"/>
      <point x="292" y="929"/>
      <point x="422" y="988"/>
      <point x="730" y="988" type="curve" smooth="yes"/>
      <point x="797" y="988"/>
      <point x="872" y="984"/>
      <point x="981" y="974" type="curve"/>
      <point x="992" y="1060" type="line"/>
      <point x="892" y="1074"/>
      <point x="824" y="1080"/>
      <point x="736" y="1080" type="curve" smooth="yes"/>
      <point x="356" y="1080"/>
      <point x="196" y="995"/>
      <point x="196" y="791" type="curve" smooth="yes"/>
      <point x="196" y="660"/>
      <point x="279" y="570"/>
      <point x="484" y="519" type="curve" smooth="yes"/>
      <point x="719" y="460" type="line" smooth="yes"/>
      <point x="863" y="424"/>
      <point x="924" y="360"/>
      <point x="924" y="266" type="curve" smooth="yes"/>
      <point x="924" y="130"/>
      <point x="802" y="72"/>
      <point x="518" y="72" type="curve" smooth="yes"/>
      <point x="424" y="72"/>
      <point x="328" y="82"/>
      <point x="192" y="105" type="curve"/>
      <point x="180" y="10" type="line"/>
      <point x="264" y="-11"/>
      <point x="365" y="-20"/>
    </contour>
  </outline>
</glyph>
<glyph name="t" format="2">
  <advance width="1200"/>
  <unicode hex="0074"/>
  <anchor x="655" y="0" name="bottom"/>
  <anchor x="432" y="570" name="center"/>
  <anchor x="600" y="1380" name="top"/>
  <anchor x="1070" y="1060" name="topright"/>
  <outline>
    <contour>
      <point x="782" y="-20" type="curve" smooth="yes"/>
      <point x="873" y="-20"/>
      <point x="950" y="-12"/>
      <point x="1036" y="4" type="curve"/>
      <point x="1025" y="93" type="line"/>
      <point x="954" y="80"/>
      <point x="885" y="72"/>
      <point x="802" y="72" type="curve" smooth="yes"/>
      <point x="602" y="72"/>
      <point x="503" y="184"/>
      <point x="503" y="410" type="curve" smooth="yes"/>
      <point x="503" y="580" type="line"/>
      <point x="409" y="580" type="line"/>
      <point x="409" y="410" type="line" smooth="yes"/>
      <point x="409" y="123"/>
      <point x="533" y="-20"/>
    </contour>
    <contour>
      <point x="409" y="500" type="line"/>
      <point x="503" y="500" type="line"/>
      <point x="503" y="1380" type="line"/>
      <point x="409" y="1380" type="line"/>
    </contour>
    <contour>
      <point x="84" y="970" type="line"/>
      <point x="996" y="970" type="line"/>
      <point x="996" y="1060" type="line"/>
      <point x="84" y="1060" type="line"/>
    </contour>
  </outline>
</glyph>
<glyph name="u" format="2">
  <advance width="1200"/>
  <unicode hex="0075"/>
  <anchor x="570" y="0" name="bottom"/>
  <anchor x="1080" y="10" name="ogonek"/>
  <anchor x="590" y="1060" name="top"/>
  <anchor x="1120" y="1060" name="topright"/>
  <outline>
    <contour>
      <point x="556" y="-20" type="curve" smooth="yes"/>
      <point x="726" y="-20"/>
      <point x="847" y="62"/>
      <point x="888" y="204" type="curve"/>
      <point x="948" y="204" type="line"/>
      <point x="894" y="490" type="line"/>
      <point x="894" y="188"/>
      <point x="782" y="72"/>
      <point x="566" y="72" type="curve" smooth="yes"/>
      <point x="382" y="72"/>
      <point x="274" y="175"/>
      <point x="274" y="360" type="curve" smooth="yes"/>
      <point x="274" y="1060" type="line"/>
      <point x="180" y="1060" type="line"/>
      <point x="180" y="360" type="line" smooth="yes"/>
      <point x="180" y="118"/>
      <point x="316" y="-20"/>
    </contour>
    <contour>
      <point x="912" y="-10" type="line"/>
      <point x="1134" y="0" type="line"/>
      <point x="1134" y="63" type="line"/>
      <point x="988" y="73" type="line"/>
      <point x="988" y="430" type="line"/>
      <point x="894" y="430" type="line"/>
      <point x="894" y="244" type="line"/>
    </contour>
    <contour>
      <point x="894" y="300" type="line"/>
      <point x="988" y="260" type="line"/>
      <point x="988" y="1060" type="line"/>
      <point x="894" y="1060" type="line"/>
    </contour>
  </outline>
</glyph>
<glyph name="v" format="2">
  <advance width="1200"/>
  <unicode hex="0076"/>
  <anchor x="605" y="0" name="bottom"/>
  <anchor x="605" y="1060" name="top"/>
  <outline>
    <contour>
      <point x="537" y="0" type="line"/>
      <point x="669" y="0" type="line"/>
      <point x="1096" y="1060" type="line"/>
      <point x="995" y="1060" type="line"/>
      <point x="609" y="80" type="line"/>
      <point x="601" y="80" type="line"/>
      <point x="205" y="1060" type="line"/>
      <point x="104" y="1060" type="line"/>
    </contour>
  </outline>
</glyph>
<glyph name="w" format="2">
  <advance width="1200"/>
  <unicode hex="0077"/>
  <anchor x="590" y="0" name="bottom"/>
  <anchor x="590" y="1060" name="top"/>
  <outline>
    <contour>
      <point x="757" y="0" type="line"/>
      <point x="902" y="0" type="line"/>
      <point x="1106" y="1060" type="line"/>
      <point x="1022" y="1060" type="line"/>
      <point x="842" y="80" type="line"/>
      <point x="829" y="80" type="line"/>
      <point x="664" y="1060" type="line"/>
      <point x="517" y="1060" type="line"/>
      <point x="582" y="980" type="line"/>
      <point x="596" y="980" type="line"/>
    </contour>
    <contour>
      <point x="268" y="0" type="line"/>
      <point x="428" y="0" type="line"/>
      <point x="584" y="980" type="line"/>
      <point x="600" y="980" type="line"/>
      <point x="664" y="1060" type="line"/>
      <point x="517" y="1060" type="line"/>
      <point x="351" y="80" type="line"/>
      <point x="338" y="80" type="line"/>
      <point x="178" y="1060" type="line"/>
      <point x="94" y="1060" type="line"/>
    </contour>
  </outline>
</glyph>
<glyph name="x" format="2">
  <advance width="1200"/>
  <unicode hex="0078"/>
  <anchor x="600" y="0" name="bottom"/>
  <anchor x="600" y="1060" name="top"/>
  <outline>
    <contour>
      <point x="130" y="0" type="line"/>
      <point x="248" y="0" type="line"/>
      <point x="632" y="492" type="line"/>
      <point x="1070" y="1060" type="line"/>
      <point x="952" y="1060" type="line"/>
      <point x="572" y="560" type="line"/>
    </contour>
    <contour>
      <point x="952" y="0" type="line"/>
      <point x="1070" y="0" type="line"/>
      <point x="633" y="565" type="line"/>
      <point x="248" y="1060" type="line"/>
      <point x="130" y="1060" type="line"/>
      <point x="571" y="497" type="line"/>
    </contour>
  </outline>
</glyph>
<glyph name="y" format="2">
  <advance width="1200"/>
  <unicode hex="0079"/>
  <anchor x="945" y="0" name="bottom"/>
  <anchor x="615" y="1060" name="top"/>
  <outline>
    <contour>
      <point x="99" y="-480" type="line"/>
      <point x="186" y="-467" type="line" smooth="yes"/>
      <point x="403" y="-435"/>
      <point x="542" y="-289"/>
      <point x="698" y="94" type="curve" smooth="yes"/>
      <point x="1091" y="1060" type="line"/>
      <point x="985" y="1060" type="line"/>
      <point x="626" y="144" type="line" smooth="yes"/>
      <point x="487" y="-210"/>
      <point x="355" y="-342"/>
      <point x="162" y="-377" type="curve" smooth="yes"/>
      <point x="95" y="-389" type="line"/>
    </contour>
    <contour>
      <point x="542" y="0" type="line"/>
      <point x="617" y="0" type="line"/>
      <point x="622" y="90" type="line"/>
      <point x="600" y="90" type="line"/>
      <point x="185" y="1060" type="line"/>
      <point x="79" y="1060" type="line"/>
    </contour>
  </outline>
</glyph>
<glyph name="z" format="2">
  <advance width="1200"/>
  <unicode hex="007A"/>
  <anchor x="600" y="0" name="bottom"/>
  <anchor x="600" y="530" name="center"/>
  <anchor x="600" y="1060" name="top"/>
  <outline>
    <contour>
      <point x="249" y="33" type="line"/>
      <point x="992" y="970" type="line"/>
      <point x="927" y="1025" type="line"/>
      <point x="184" y="90" type="line"/>
    </contour>
    <contour>
      <point x="184" y="0" type="line"/>
      <point x="1012" y="0" type="line"/>
      <point x="1012" y="90" type="line"/>
      <point x="184" y="90" type="line"/>
    </contour>
    <contour>
      <point x="184" y="970" type="line"/>
      <point x="992" y="970" type="line"/>
      <point x="992" y="1060" type="line"/>
      <point x="184" y="1060" type="line"/>
    </contour>
  </outline>
</glyph>
<glyph name="braceleft" format="2">
  <advance width="1200"/>
  <unicode hex="007B"/>
  <outline>
    <contour>
      <point x="826" y="-214" type="curve" smooth="yes"/>
      <point x="893" y="-214"/>
      <point x="934" y="-206"/>
      <point x="972" y="-194" type="curve"/>
      <point x="959" y="-112" type="line"/>
      <point x="917" y="-119"/>
      <point x="877" y="-124"/>
      <point x="844" y="-124" type="curve" smooth="yes"/>
      <point x="668" y="-124"/>
      <point x="574" y="-22"/>
      <point x="574" y="156" type="curve" smooth="yes"/>
      <point x="574" y="267"/>
      <point x="620" y="367"/>
      <point x="620" y="488" type="curve" smooth="yes"/>
      <point x="620" y="623"/>
      <point x="523" y="708"/>
      <point x="358" y="711" type="curve"/>
      <point x="358" y="719" type="line"/>
      <point x="523" y="722"/>
      <point x="620" y="802"/>
      <point x="620" y="942" type="curve" smooth="yes"/>
      <point x="620" y="1058"/>
      <point x="574" y="1158"/>
      <point x="574" y="1274" type="curve" smooth="yes"/>
      <point x="574" y="1440"/>
      <point x="668" y="1536"/>
      <point x="844" y="1536" type="curve" smooth="yes"/>
      <point x="877" y="1536"/>
      <point x="916" y="1531"/>
      <point x="958" y="1524" type="curve"/>
      <point x="972" y="1606" type="line"/>
      <point x="934" y="1618"/>
      <point x="893" y="1626"/>
      <point x="826" y="1626" type="curve" smooth="yes"/>
      <point x="609" y="1626"/>
      <point x="484" y="1499"/>
      <point x="484" y="1274" type="curve" smooth="yes"/>
      <point x="484" y="1162"/>
      <point x="526" y="1060"/>
      <point x="526" y="938" type="curve" smooth="yes"/>
      <point x="526" y="838"/>
      <point x="435" y="781"/>
      <point x="280" y="781" type="curve"/>
      <point x="280" y="649" type="line"/>
      <point x="439" y="649"/>
      <point x="526" y="614"/>
      <point x="526" y="492" type="curve" smooth="yes"/>
      <point x="526" y="375"/>
      <point x="484" y="268"/>
      <point x="484" y="156" type="curve" smooth="yes"/>
      <point x="484" y="-78"/>
      <point x="609" y="-214"/>
    </contour>
  </outline>
</glyph>
<glyph name="braceright" format="2">
  <advance width="1200"/>
  <unicode hex="007D"/>
  <outline>
    <contour>
      <point x="374" y="-214" type="curve" smooth="yes"/>
      <point x="591" y="-214"/>
      <point x="716" y="-78"/>
      <point x="716" y="156" type="curve" smooth="yes"/>
      <point x="716" y="268"/>
      <point x="674" y="375"/>
      <point x="674" y="492" type="curve" smooth="yes"/>
      <point x="674" y="614"/>
      <point x="761" y="649"/>
      <point x="920" y="649" type="curve"/>
      <point x="920" y="781" type="line"/>
      <point x="765" y="781"/>
      <point x="674" y="838"/>
      <point x="674" y="938" type="curve" smooth="yes"/>
      <point x="674" y="1060"/>
      <point x="716" y="1162"/>
      <point x="716" y="1274" type="curve" smooth="yes"/>
      <point x="716" y="1499"/>
      <point x="591" y="1626"/>
      <point x="374" y="1626" type="curve" smooth="yes"/>
      <point x="307" y="1626"/>
      <point x="266" y="1618"/>
      <point x="228" y="1606" type="curve"/>
      <point x="242" y="1524" type="line"/>
      <point x="284" y="1531"/>
      <point x="323" y="1536"/>
      <point x="356" y="1536" type="curve" smooth="yes"/>
      <point x="532" y="1536"/>
      <point x="626" y="1440"/>
      <point x="626" y="1274" type="curve" smooth="yes"/>
      <point x="626" y="1158"/>
      <point x="580" y="1058"/>
      <point x="580" y="942" type="curve" smooth="yes"/>
      <point x="580" y="802"/>
      <point x="677" y="722"/>
      <point x="842" y="719" type="curve"/>
      <point x="842" y="711" type="line"/>
      <point x="677" y="708"/>
      <point x="580" y="623"/>
      <point x="580" y="488" type="curve" smooth="yes"/>
      <point x="580" y="367"/>
      <point x="626" y="267"/>
      <point x="626" y="156" type="curve" smooth="yes"/>
      <point x="626" y="-22"/>
      <point x="532" y="-124"/>
      <point x="356" y="-124" type="curve" smooth="yes"/>
      <point x="323" y="-124"/>
      <point x="283" y="-119"/>
      <point x="241" y="-112" type="curve"/>
      <point x="228" y="-194" type="line"/>
      <point x="266" y="-206"/>
      <point x="307" y="-214"/>
    </contour>
  </outline>
</glyph>
<glyph name="asciitilde" format="2">
  <advance width="1200"/>
  <unicode hex="007E"/>
  <outline>
    <contour>
      <point x="124" y="486" type="line"/>
      <point x="214" y="486" type="line"/>
      <point x="214" y="576" type="line" smooth="yes"/>
      <point x="214" y="737"/>
      <point x="260" y="806"/>
      <point x="369" y="806" type="curve" smooth="yes"/>
      <point x="431" y="806"/>
      <point x="485" y="774"/>
      <point x="594" y="664" type="curve" smooth="yes"/>
      <point x="702" y="555"/>
      <point x="763" y="520"/>
      <point x="860" y="520" type="curve" smooth="yes"/>
      <point x="1011" y="520"/>
      <point x="1076" y="619"/>
      <point x="1076" y="850" type="curve" smooth="yes"/>
      <point x="1076" y="930" type="line"/>
      <point x="986" y="930" type="line"/>
      <point x="986" y="840" type="line" smooth="yes"/>
      <point x="986" y="679"/>
      <point x="949" y="610"/>
      <point x="859" y="610" type="curve" smooth="yes"/>
      <point x="801" y="610"/>
      <point x="748" y="641"/>
      <point x="635" y="747" type="curve" smooth="yes"/>
      <point x="514" y="860"/>
      <point x="453" y="896"/>
      <point x="370" y="896" type="curve" smooth="yes"/>
      <point x="198" y="896"/>
      <point x="124" y="797"/>
      <point x="124" y="566" type="curve" smooth="yes"/>
    </contour>
  </outline>
</glyph>
<glyph name="exclamdown" format="2">
  <advance width="1200"/>
  <unicode hex="00A1"/>
  <outline>
    <contour>
      <point x="555" y="-370" type="line"/>
      <point x="645" y="-370" type="line"/>
      <point x="639" y="704" type="line"/>
      <point x="557" y="704" type="line"/>
    </contour>
    <component base="period" yScale="-1" yOffset="1060"/>
  </outline>
</glyph>
<glyph name="cent" format="2">
  <advance width="1200"/>
  <unicode hex="00A2"/>
  <anchor x="650" y="0" name="bottom"/>
  <anchor x="650" y="1060" name="top"/>
  <outline>
    <contour>
      <point x="618" y="-334" type="line"/>
      <point x="708" y="-334" type="line"/>
      <point x="708" y="1394" type="line"/>
      <point x="618" y="1394" type="line"/>
    </contour>
    <component base="c"/>
  </outline>
</glyph>
<glyph name="currency" format="2">
  <advance width="1200"/>
  <unicode hex="00A4"/>
  <outline>
    <contour>
      <point x="603" y="300" type="curve" smooth="yes"/>
      <point x="845" y="300"/>
      <point x="1003" y="459"/>
      <point x="1003" y="700" type="curve" smooth="yes"/>
      <point x="1003" y="941"/>
      <point x="845" y="1100"/>
      <point x="603" y="1100" type="curve" smooth="yes"/>
      <point x="361" y="1100"/>
      <point x="203" y="941"/>
      <point x="203" y="700" type="curve" smooth="yes"/>
      <point x="203" y="459"/>
      <point x="361" y="300"/>
    </contour>
    <contour>
      <point x="172" y="189" type="line"/>
      <point x="372" y="404" type="line"/>
      <point x="279" y="450" type="line"/>
      <point x="96" y="263" type="line"/>
    </contour>
    <contour>
      <point x="1028" y="189" type="line"/>
      <point x="1104" y="263" type="line"/>
      <point x="902" y="471" type="line"/>
      <point x="824" y="410" type="line"/>
    </contour>
    <contour>
      <point x="603" y="390" type="curve" smooth="yes"/>
      <point x="417" y="390"/>
      <point x="295" y="513"/>
      <point x="295" y="700" type="curve" smooth="yes"/>
      <point x="295" y="887"/>
      <point x="417" y="1010"/>
      <point x="603" y="1010" type="curve" smooth="yes"/>
      <point x="789" y="1010"/>
      <point x="911" y="887"/>
      <point x="911" y="700" type="curve" smooth="yes"/>
      <point x="911" y="513"/>
      <point x="789" y="390"/>
    </contour>
    <contour>
      <point x="282" y="946" type="line"/>
      <point x="379" y="988" type="line"/>
      <point x="172" y="1201" type="line"/>
      <point x="96" y="1135" type="line"/>
    </contour>
    <contour>
      <point x="919" y="946" type="line"/>
      <point x="1104" y="1135" type="line"/>
      <point x="1028" y="1201" type="line"/>
      <point x="826" y="994" type="line"/>
    </contour>
  </outline>
</glyph>
<glyph name="yen" format="2">
  <advance width="1200"/>
  <unicode hex="00A5"/>
  <anchor x="600" y="0" name="bottom"/>
  <anchor x="600" y="1420" name="top"/>
  <anchor x="20" y="1420" name="topleft"/>
  <outline>
    <contour>
      <point x="162" y="509" type="line"/>
      <point x="1040" y="509" type="line"/>
      <point x="1040" y="599" type="line"/>
      <point x="162" y="599" type="line"/>
    </contour>
    <contour>
      <point x="162" y="215" type="line"/>
      <point x="1040" y="215" type="line"/>
      <point x="1040" y="305" type="line"/>
      <point x="162" y="305" type="line"/>
    </contour>
    <component base="Y"/>
  </outline>
</glyph>
<glyph name="brokenbar" format="2">
  <advance width="1200"/>
  <unicode hex="00A6"/>
  <outline>
    <contour>
      <point x="555" y="870" type="line"/>
      <point x="645" y="870" type="line"/>
      <point x="645" y="1730" type="line"/>
      <point x="555" y="1730" type="line"/>
    </contour>
    <contour>
      <point x="555" y="-310" type="line"/>
      <point x="645" y="-310" type="line"/>
      <point x="645" y="550" type="line"/>
      <point x="555" y="550" type="line"/>
    </contour>
  </outline>
</glyph>
<glyph name="section" format="2">
  <advance width="1200"/>
  <unicode hex="00A7"/>
  <outline>
    <contour>
      <point x="1107" y="674" type="curve" smooth="yes"/>
      <point x="1107" y="838"/>
      <point x="1008" y="941"/>
      <point x="809" y="984" type="curve" smooth="yes"/>
      <point x="533" y="1043" type="line" smooth="yes"/>
      <point x="367" y="1078"/>
      <point x="285" y="1146"/>
      <point x="285" y="1248" type="curve" smooth="yes"/>
      <point x="285" y="1402"/>
      <point x="418" y="1478"/>
      <point x="687" y="1478" type="curve" smooth="yes"/>
      <point x="757" y="1478"/>
      <point x="837" y="1473"/>
      <point x="927" y="1464" type="curve"/>
      <point x="949" y="1548" type="line"/>
      <point x="869" y="1561"/>
      <point x="784" y="1568"/>
      <point x="693" y="1568" type="curve" smooth="yes"/>
      <point x="359" y="1568"/>
      <point x="193" y="1459"/>
      <point x="193" y="1238" type="curve" smooth="yes"/>
      <point x="193" y="1103"/>
      <point x="303" y="1014"/>
      <point x="524" y="970" type="curve"/>
      <point x="524" y="962" type="line"/>
      <point x="236" y="963"/>
      <point x="93" y="862"/>
      <point x="93" y="658" type="curve" smooth="yes"/>
      <point x="93" y="497"/>
      <point x="202" y="401"/>
      <point x="423" y="366" type="curve" smooth="yes"/>
      <point x="707" y="321" type="line" smooth="yes"/>
      <point x="846" y="299"/>
      <point x="915" y="226"/>
      <point x="915" y="102" type="curve" smooth="yes"/>
      <point x="915" y="-53"/>
      <point x="786" y="-130"/>
      <point x="525" y="-130" type="curve" smooth="yes"/>
      <point x="443" y="-130"/>
      <point x="339" y="-119"/>
      <point x="211" y="-98" type="curve"/>
      <point x="187" y="-190" type="line"/>
      <point x="267" y="-210"/>
      <point x="379" y="-220"/>
      <point x="525" y="-220" type="curve" smooth="yes"/>
      <point x="847" y="-220"/>
      <point x="1007" y="-112"/>
      <point x="1007" y="106" type="curve" smooth="yes"/>
      <point x="1007" y="262"/>
      <point x="926" y="353"/>
      <point x="762" y="380" type="curve"/>
      <point x="762" y="393" type="line"/>
      <point x="993" y="395"/>
      <point x="1107" y="488"/>
    </contour>
    <contour>
      <point x="189" y="668" type="curve" smooth="yes"/>
      <point x="189" y="828"/>
      <point x="328" y="908"/>
      <point x="607" y="908" type="curve" smooth="yes"/>
      <point x="877" y="908"/>
      <point x="1011" y="829"/>
      <point x="1011" y="670" type="curve" smooth="yes"/>
      <point x="1011" y="515"/>
      <point x="883" y="438"/>
      <point x="625" y="438" type="curve" smooth="yes"/>
      <point x="334" y="438"/>
      <point x="189" y="514"/>
    </contour>
  </outline>
</glyph>
<glyph name="copyright" format="2">
  <advance width="1200"/>
  <unicode hex="00A9"/>
  <outline>
    <contour>
      <point x="600" y="15" type="curve" smooth="yes"/>
      <point x="950" y="15"/>
      <point x="1150" y="263"/>
      <point x="1150" y="695" type="curve" smooth="yes"/>
      <point x="1150" y="1146"/>
      <point x="950" y="1405"/>
      <point x="600" y="1405" type="curve" smooth="yes"/>
      <point x="250" y="1405"/>
      <point x="50" y="1146"/>
      <point x="50" y="695" type="curve" smooth="yes"/>
      <point x="50" y="263"/>
      <point x="250" y="15"/>
    </contour>
    <contour>
      <point x="652" y="414" type="curve" smooth="yes"/>
      <point x="725" y="414"/>
      <point x="802" y="420"/>
      <point x="872" y="444" type="curve"/>
      <point x="848" y="532" type="line"/>
      <point x="793" y="516"/>
      <point x="735" y="506"/>
      <point x="676" y="506" type="curve" smooth="yes"/>
      <point x="517" y="506"/>
      <point x="429" y="582"/>
      <point x="429" y="722" type="curve" smooth="yes"/>
      <point x="429" y="845"/>
      <point x="504" y="914"/>
      <point x="636" y="914" type="curve" smooth="yes"/>
      <point x="707" y="914"/>
      <point x="770" y="882"/>
      <point x="807" y="828" type="curve"/>
      <point x="877" y="890" type="line"/>
      <point x="842" y="963"/>
      <point x="757" y="1006"/>
      <point x="644" y="1006" type="curve" smooth="yes"/>
      <point x="445" y="1006"/>
      <point x="333" y="898"/>
      <point x="333" y="712" type="curve" smooth="yes"/>
      <point x="333" y="520"/>
      <point x="449" y="414"/>
    </contour>
    <contour>
      <point x="600" y="105" type="curve" smooth="yes"/>
      <point x="309" y="105"/>
      <point x="142" y="320"/>
      <point x="142" y="695" type="curve" smooth="yes"/>
      <point x="142" y="1087"/>
      <point x="309" y="1313"/>
      <point x="600" y="1313" type="curve" smooth="yes"/>
      <point x="891" y="1313"/>
      <point x="1058" y="1087"/>
      <point x="1058" y="695" type="curve" smooth="yes"/>
      <point x="1058" y="320"/>
      <point x="891" y="105"/>
    </contour>
  </outline>
</glyph>
<glyph name="ordfeminine" format="2">
  <advance width="1200"/>
  <unicode hex="00AA"/>
  <outline>
    <contour>
      <point x="795" y="779" type="line"/>
      <point x="970" y="785" type="line"/>
      <point x="970" y="857" type="line"/>
      <point x="863" y="870" type="line"/>
      <point x="863" y="1159" type="line" smooth="yes"/>
      <point x="863" y="1340"/>
      <point x="774" y="1438"/>
      <point x="534" y="1439" type="curve" smooth="yes"/>
      <point x="396" y="1440" type="line"/>
      <point x="385" y="1354" type="line"/>
      <point x="546" y="1354" type="line" smooth="yes"/>
      <point x="695" y="1354"/>
      <point x="771" y="1290"/>
      <point x="771" y="1178" type="curve" smooth="yes"/>
      <point x="771" y="963" type="line"/>
      <point x="787" y="964" type="line"/>
    </contour>
    <contour>
      <point x="531" y="773" type="curve" smooth="yes"/>
      <point x="680" y="773"/>
      <point x="738" y="823"/>
      <point x="776" y="921" type="curve"/>
      <point x="756" y="914" type="line"/>
      <point x="807" y="914" type="line"/>
      <point x="771" y="1078" type="line"/>
      <point x="771" y="1039" type="line"/>
      <point x="771" y="950"/>
      <point x="695" y="853"/>
      <point x="545" y="853" type="curve" smooth="yes"/>
      <point x="448" y="853"/>
      <point x="399" y="895"/>
      <point x="399" y="973" type="curve" smooth="yes"/>
      <point x="399" y="1059"/>
      <point x="459" y="1103"/>
      <point x="573" y="1103" type="curve" smooth="yes"/>
      <point x="651" y="1103"/>
      <point x="726" y="1103"/>
      <point x="805" y="1087" type="curve"/>
      <point x="831" y="1157" type="line"/>
      <point x="777" y="1175"/>
      <point x="679" y="1183"/>
      <point x="569" y="1183" type="curve" smooth="yes"/>
      <point x="402" y="1183"/>
      <point x="308" y="1105"/>
      <point x="308" y="966" type="curve" smooth="yes"/>
      <point x="308" y="843"/>
      <point x="390" y="773"/>
    </contour>
  </outline>
</glyph>
<glyph name="guillemetleft" format="2">
  <advance width="1200"/>
  <unicode hex="00AB"/>
  <outline>
    <contour>
      <point x="1060" y="74" type="line"/>
      <point x="1060" y="189" type="line"/>
      <point x="700" y="520" type="line"/>
      <point x="700" y="538" type="line"/>
      <point x="1060" y="869" type="line"/>
      <point x="1060" y="984" type="line"/>
      <point x="596" y="565" type="line"/>
      <point x="596" y="493" type="line"/>
    </contour>
    <contour>
      <point x="564" y="74" type="line"/>
      <point x="564" y="189" type="line"/>
      <point x="204" y="520" type="line"/>
      <point x="204" y="538" type="line"/>
      <point x="564" y="869" type="line"/>
      <point x="564" y="984" type="line"/>
      <point x="100" y="565" type="line"/>
      <point x="100" y="493" type="line"/>
    </contour>
  </outline>
</glyph>
<glyph name="logicalnot" format="2">
  <advance width="1200"/>
  <unicode hex="00AC"/>
  <outline>
    <contour>
      <point x="124" y="813" type="line"/>
      <point x="1076" y="813" type="line"/>
      <point x="1076" y="903" type="line"/>
      <point x="124" y="903" type="line"/>
    </contour>
    <contour>
      <point x="982" y="350" type="line"/>
      <point x="1076" y="350" type="line"/>
      <point x="1076" y="867" type="line"/>
      <point x="982" y="867" type="line"/>
    </contour>
  </outline>
</glyph>
<glyph name="registered" format="2">
  <advance width="1200"/>
  <unicode hex="00AE"/>
  <outline>
    <contour>
      <point x="600" y="15" type="curve" smooth="yes"/>
      <point x="950" y="15"/>
      <point x="1150" y="263"/>
      <point x="1150" y="695" type="curve" smooth="yes"/>
      <point x="1150" y="1146"/>
      <point x="950" y="1405"/>
      <point x="600" y="1405" type="curve" smooth="yes"/>
      <point x="250" y="1405"/>
      <point x="50" y="1146"/>
      <point x="50" y="695" type="curve" smooth="yes"/>
      <point x="50" y="263"/>
      <point x="250" y="15"/>
    </contour>
    <contour>
      <point x="381" y="396" type="line"/>
      <point x="475" y="396" type="line"/>
      <point x="475" y="1010" type="line"/>
      <point x="381" y="1010" type="line"/>
    </contour>
    <contour>
      <point x="782" y="396" type="line"/>
      <point x="880" y="396" type="line"/>
      <point x="757" y="655" type="line"/>
      <point x="673" y="628" type="line"/>
    </contour>
    <contour>
      <point x="600" y="105" type="curve" smooth="yes"/>
      <point x="309" y="105"/>
      <point x="142" y="320"/>
      <point x="142" y="695" type="curve" smooth="yes"/>
      <point x="142" y="1087"/>
      <point x="309" y="1313"/>
      <point x="600" y="1313" type="curve" smooth="yes"/>
      <point x="891" y="1313"/>
      <point x="1058" y="1087"/>
      <point x="1058" y="695" type="curve" smooth="yes"/>
      <point x="1058" y="320"/>
      <point x="891" y="105"/>
    </contour>
    <contour>
      <point x="461" y="620" type="line"/>
      <point x="648" y="620" type="line" smooth="yes"/>
      <point x="787" y="620"/>
      <point x="866" y="695"/>
      <point x="866" y="825" type="curve" smooth="yes"/>
      <point x="866" y="942"/>
      <point x="787" y="1010"/>
      <point x="648" y="1010" type="curve" smooth="yes"/>
      <point x="441" y="1010" type="line"/>
      <point x="441" y="920" type="line"/>
      <point x="648" y="920" type="line" smooth="yes"/>
      <point x="725" y="920"/>
      <point x="770" y="882"/>
      <point x="770" y="815" type="curve" smooth="yes"/>
      <point x="770" y="748"/>
      <point x="725" y="710"/>
      <point x="648" y="710" type="curve" smooth="yes"/>
      <point x="461" y="710" type="line"/>
    </contour>
  </outline>
</glyph>
<glyph name="degree" format="2">
  <advance width="1200"/>
  <unicode hex="00B0"/>
  <outline>
    <contour>
      <point x="600" y="770" type="curve" smooth="yes"/>
      <point x="798" y="770"/>
      <point x="928" y="903"/>
      <point x="928" y="1105" type="curve" smooth="yes"/>
      <point x="928" y="1307"/>
      <point x="798" y="1440"/>
      <point x="600" y="1440" type="curve" smooth="yes"/>
      <point x="402" y="1440"/>
      <point x="272" y="1307"/>
      <point x="272" y="1105" type="curve" smooth="yes"/>
      <point x="272" y="903"/>
      <point x="402" y="770"/>
    </contour>
    <contour>
      <point x="600" y="862" type="curve" smooth="yes"/>
      <point x="460" y="862"/>
      <point x="368" y="959"/>
      <point x="368" y="1105" type="curve" smooth="yes"/>
      <point x="368" y="1251"/>
      <point x="460" y="1348"/>
      <point x="600" y="1348" type="curve" smooth="yes"/>
      <point x="740" y="1348"/>
      <point x="832" y="1251"/>
      <point x="832" y="1105" type="curve" smooth="yes"/>
      <point x="832" y="959"/>
      <point x="740" y="862"/>
    </contour>
  </outline>
</glyph>
<glyph name="plusminus" format="2">
  <advance width="1200"/>
  <unicode hex="00B1"/>
  <outline>
    <contour>
      <point x="553" y="246" type="line"/>
      <point x="647" y="246" type="line"/>
      <point x="647" y="1224" type="line"/>
      <point x="553" y="1224" type="line"/>
    </contour>
    <contour>
      <point x="124" y="731" type="line"/>
      <point x="1076" y="731" type="line"/>
      <point x="1076" y="821" type="line"/>
      <point x="124" y="821" type="line"/>
    </contour>
    <component base="minus" yOffset="-430"/>
  </outline>
</glyph>
<glyph name="twosuperior" format="2">
  <advance width="1200"/>
  <unicode hex="00B2"/>
  <outline>
    <contour>
      <point x="366" y="802" type="line"/>
      <point x="508" y="802" type="line"/>
      <point x="508" y="905" type="line"/>
      <point x="709" y="988"/>
      <point x="808" y="1100"/>
      <point x="808" y="1242" type="curve" smooth="yes"/>
      <point x="808" y="1374"/>
      <point x="730" y="1440"/>
      <point x="574" y="1440" type="curve" smooth="yes"/>
      <point x="479" y="1440"/>
      <point x="394" y="1416"/>
      <point x="341" y="1372" type="curve"/>
      <point x="376" y="1298" type="line"/>
      <point x="443" y="1331"/>
      <point x="514" y="1348"/>
      <point x="574" y="1348" type="curve" smooth="yes"/>
      <point x="666" y="1348"/>
      <point x="712" y="1312"/>
      <point x="712" y="1240" type="curve" smooth="yes"/>
      <point x="712" y="1124"/>
      <point x="598" y="1021"/>
      <point x="366" y="909" type="curve"/>
    </contour>
    <contour>
      <point x="392" y="802" type="line"/>
      <point x="834" y="802" type="line"/>
      <point x="834" y="892" type="line"/>
      <point x="392" y="892" type="line"/>
    </contour>
  </outline>
</glyph>
<glyph name="threesuperior" format="2">
  <advance width="1200"/>
  <unicode hex="00B3"/>
  <outline>
    <contour>
      <point x="554" y="793" type="curve" smooth="yes"/>
      <point x="725" y="795"/>
      <point x="823" y="857"/>
      <point x="823" y="968" type="curve" smooth="yes"/>
      <point x="823" y="1062"/>
      <point x="740" y="1116"/>
      <point x="616" y="1126" type="curve"/>
      <point x="483" y="1115" type="line"/>
      <point x="483" y="1072" type="line"/>
      <point x="547" y="1072" type="line" smooth="yes"/>
      <point x="662" y="1072"/>
      <point x="728" y="1041"/>
      <point x="728" y="987" type="curve" smooth="yes"/>
      <point x="728" y="922"/>
      <point x="659" y="885"/>
      <point x="540" y="885" type="curve" smooth="yes"/>
      <point x="477" y="885"/>
      <point x="426" y="898"/>
      <point x="388" y="906" type="curve"/>
      <point x="360" y="819" type="line"/>
      <point x="411" y="802"/>
      <point x="477" y="792"/>
    </contour>
    <contour>
      <point x="483" y="1072" type="line"/>
      <point x="631" y="1087" type="line"/>
      <point x="631" y="1134" type="line"/>
      <point x="736" y="1153"/>
      <point x="806" y="1210"/>
      <point x="806" y="1282" type="curve" smooth="yes"/>
      <point x="806" y="1384"/>
      <point x="723" y="1440"/>
      <point x="574" y="1440" type="curve" smooth="yes"/>
      <point x="499" y="1440"/>
      <point x="431" y="1431"/>
      <point x="372" y="1410" type="curve"/>
      <point x="385" y="1319" type="line"/>
      <point x="437" y="1338"/>
      <point x="495" y="1348"/>
      <point x="564" y="1348" type="curve" smooth="yes"/>
      <point x="662" y="1348"/>
      <point x="710" y="1326"/>
      <point x="710" y="1281" type="curve" smooth="yes"/>
      <point x="710" y="1223"/>
      <point x="640" y="1178"/>
      <point x="473" y="1162" type="curve"/>
    </contour>
  </outline>
</glyph>
<glyph name="paragraph" format="2">
  <advance width="1200"/>
  <unicode hex="00B6"/>
  <outline>
    <contour>
      <point x="512" y="700" type="curve"/>
      <point x="524" y="1420" type="line"/>
      <point x="226" y="1420"/>
      <point x="60" y="1284"/>
      <point x="60" y="1052" type="curve" smooth="yes"/>
      <point x="60" y="824"/>
      <point x="224" y="700"/>
    </contour>
    <contour>
      <point x="477" y="0" type="line"/>
      <point x="567" y="0" type="line"/>
      <point x="567" y="1386" type="line"/>
      <point x="477" y="1386" type="line"/>
    </contour>
    <contour>
      <point x="847" y="0" type="line"/>
      <point x="937" y="0" type="line"/>
      <point x="937" y="1420" type="line"/>
      <point x="847" y="1420" type="line"/>
    </contour>
    <contour>
      <point x="504" y="1332" type="line"/>
      <point x="1136" y="1332" type="line"/>
      <point x="1136" y="1420" type="line"/>
      <point x="524" y="1420" type="line"/>
    </contour>
  </outline>
</glyph>
<glyph name="onesuperior" format="2">
  <advance width="1200"/>
  <unicode hex="00B9"/>
  <outline>
    <contour>
      <point x="572" y="802" type="line"/>
      <point x="666" y="802" type="line"/>
      <point x="666" y="1422" type="line"/>
      <point x="572" y="1422" type="line"/>
    </contour>
    <contour>
      <point x="366" y="802" type="line"/>
      <point x="580" y="802" type="line"/>
      <point x="580" y="892" type="line"/>
      <point x="366" y="892" type="line"/>
    </contour>
    <contour>
      <point x="657" y="802" type="line"/>
      <point x="836" y="802" type="line"/>
      <point x="836" y="892" type="line"/>
      <point x="657" y="892" type="line"/>
    </contour>
    <contour>
      <point x="375" y="1276" type="line"/>
      <point x="572" y="1327" type="line"/>
      <point x="572" y="1422" type="line"/>
      <point x="375" y="1369" type="line"/>
    </contour>
  </outline>
</glyph>
<glyph name="ordmasculine" format="2">
  <advance width="1200"/>
  <unicode hex="00BA"/>
  <anchor x="300" y="5" name="ogonek"/>
  <outline>
    <contour>
      <point x="600" y="770" type="curve" smooth="yes"/>
      <point x="792" y="770"/>
      <point x="918" y="903"/>
      <point x="918" y="1105" type="curve" smooth="yes"/>
      <point x="918" y="1307"/>
      <point x="792" y="1440"/>
      <point x="600" y="1440" type="curve" smooth="yes"/>
      <point x="408" y="1440"/>
      <point x="282" y="1307"/>
      <point x="282" y="1105" type="curve" smooth="yes"/>
      <point x="282" y="903"/>
      <point x="408" y="770"/>
    </contour>
    <contour>
      <point x="600" y="850" type="curve" smooth="yes"/>
      <point x="463" y="850"/>
      <point x="373" y="952"/>
      <point x="373" y="1105" type="curve" smooth="yes"/>
      <point x="373" y="1259"/>
      <point x="463" y="1360"/>
      <point x="600" y="1360" type="curve" smooth="yes"/>
      <point x="737" y="1360"/>
      <point x="827" y="1259"/>
      <point x="827" y="1105" type="curve" smooth="yes"/>
      <point x="827" y="952"/>
      <point x="737" y="850"/>
    </contour>
  </outline>
</glyph>
<glyph name="guillemetright" format="2">
  <advance width="1200"/>
  <unicode hex="00BB"/>
  <guideline x="697" y="519" angle="0"/>
  <outline>
    <contour>
      <point x="636" y="74" type="line"/>
      <point x="1100" y="493" type="line"/>
      <point x="1100" y="565" type="line"/>
      <point x="636" y="984" type="line"/>
      <point x="636" y="869" type="line"/>
      <point x="996" y="538" type="line"/>
      <point x="996" y="520" type="line"/>
      <point x="636" y="189" type="line"/>
    </contour>
    <contour>
      <point x="140" y="74" type="line"/>
      <point x="604" y="493" type="line"/>
      <point x="604" y="565" type="line"/>
      <point x="140" y="984" type="line"/>
      <point x="140" y="869" type="line"/>
      <point x="500" y="538" type="line"/>
      <point x="500" y="520" type="line"/>
      <point x="140" y="189" type="line"/>
    </contour>
  </outline>
</glyph>
<glyph name="onequarter" format="2">
  <advance width="1200"/>
  <unicode hex="00BC"/>
  <outline>
    <contour>
      <point x="186" y="286" type="line"/>
      <point x="1078" y="1010" type="line"/>
      <point x="1024" y="1086" type="line"/>
      <point x="132" y="362" type="line"/>
    </contour>
    <component base="foursuperior" xOffset="240" yOffset="-802"/>
    <component base="onesuperior" xOffset="-260"/>
  </outline>
</glyph>
<glyph name="onehalf" format="2">
  <advance width="1200"/>
  <unicode hex="00BD"/>
  <outline>
    <contour>
      <point x="186" y="296" type="line"/>
      <point x="1078" y="1020" type="line"/>
      <point x="1024" y="1096" type="line"/>
      <point x="132" y="372" type="line"/>
    </contour>
    <component base="onesuperior" xOffset="-260"/>
    <component base="twoinferior" xOffset="270"/>
  </outline>
</glyph>
<glyph name="threequarters" format="2">
  <advance width="1200"/>
  <unicode hex="00BE"/>
  <outline>
    <contour>
      <point x="186" y="306" type="line"/>
      <point x="1078" y="1030" type="line"/>
      <point x="1024" y="1106" type="line"/>
      <point x="132" y="382" type="line"/>
    </contour>
    <component base="foursuperior" xOffset="240" yOffset="-802"/>
    <component base="threesuperior" xOffset="-240"/>
  </outline>
</glyph>
<glyph name="questiondown" format="2">
  <advance width="1200"/>
  <unicode hex="00BF"/>
  <outline>
    <contour>
      <point x="604" y="-380" type="curve"/>
      <point x="606" y="-290" type="line"/>
      <point x="418" y="-290"/>
      <point x="310" y="-192"/>
      <point x="310" y="-22" type="curve" smooth="yes"/>
      <point x="310" y="100"/>
      <point x="368" y="192"/>
      <point x="503" y="286" type="curve" smooth="yes"/>
      <point x="632" y="376"/>
      <point x="687" y="466"/>
      <point x="687" y="588" type="curve" smooth="yes"/>
      <point x="687" y="704" type="line"/>
      <point x="597" y="704" type="line"/>
      <point x="597" y="602" type="line" smooth="yes"/>
      <point x="597" y="502"/>
      <point x="556" y="430"/>
      <point x="459" y="362" type="curve" smooth="yes"/>
      <point x="290" y="242"/>
      <point x="218" y="125"/>
      <point x="218" y="-32" type="curve" smooth="yes"/>
      <point x="218" y="-253"/>
      <point x="359" y="-380"/>
    </contour>
    <contour>
      <point x="604" y="-380" type="line"/>
      <point x="776" y="-380"/>
      <point x="912" y="-327"/>
      <point x="1060" y="-201" type="curve"/>
      <point x="1001" y="-138" type="line"/>
      <point x="864" y="-245"/>
      <point x="746" y="-290"/>
      <point x="606" y="-290" type="curve"/>
    </contour>
    <component base="period" xScale="-1" yScale="-1" xOffset="1238" yOffset="1060"/>
  </outline>
</glyph>
<glyph name="AE" format="2">
  <advance width="1200"/>
  <unicode hex="00C6"/>
  <anchor x="640" y="0" name="bottom"/>
  <anchor x="1054" y="10" name="ogonek"/>
  <anchor x="640" y="1420" name="top"/>
  <outline>
    <contour>
      <point x="68" y="0" type="line"/>
      <point x="153" y="0" type="line"/>
      <point x="623" y="1332" type="line"/>
      <point x="697" y="1332" type="line"/>
      <point x="697" y="1420" type="line"/>
      <point x="567" y="1420" type="line"/>
    </contour>
    <contour>
      <point x="252" y="284" type="line"/>
      <point x="702" y="284" type="line"/>
      <point x="702" y="372" type="line"/>
      <point x="252" y="372" type="line"/>
    </contour>
    <contour>
      <point x="640" y="0" type="line"/>
      <point x="1074" y="0" type="line"/>
      <point x="1074" y="88" type="line"/>
      <point x="640" y="88" type="line"/>
    </contour>
    <contour>
      <point x="640" y="0" type="line"/>
      <point x="730" y="0" type="line"/>
      <point x="730" y="1420" type="line"/>
      <point x="640" y="1420" type="line"/>
    </contour>
    <contour>
      <point x="640" y="667" type="line"/>
      <point x="1014" y="667" type="line"/>
      <point x="1014" y="755" type="line"/>
      <point x="640" y="755" type="line"/>
    </contour>
    <contour>
      <point x="640" y="1332" type="line"/>
      <point x="1074" y="1332" type="line"/>
      <point x="1074" y="1420" type="line"/>
      <point x="640" y="1420" type="line"/>
    </contour>
  </outline>
</glyph>
<glyph name="Eth" format="2">
  <advance width="1200"/>
  <unicode hex="00D0"/>
  <anchor x="540" y="0" name="bottom"/>
  <anchor x="540" y="710" name="center"/>
  <anchor x="540" y="1420" name="top"/>
  <outline>
    <contour>
      <point x="12" y="663" type="line"/>
      <point x="651" y="663" type="line"/>
      <point x="651" y="751" type="line"/>
      <point x="12" y="751" type="line"/>
    </contour>
    <component base="D"/>
  </outline>
</glyph>
<glyph name="multiply" format="2">
  <advance width="1200"/>
  <unicode hex="00D7"/>
  <guideline x="511" y="114" angle="0"/>
  <guideline x="511" y="574" angle="0"/>
  <outline>
    <contour>
      <point x="208" y="253" type="line"/>
      <point x="145" y="309" type="line"/>
      <point x="992" y="1123" type="line"/>
      <point x="1055" y="1065" type="line"/>
    </contour>
    <contour>
      <point x="992" y="253" type="line"/>
      <point x="145" y="1065" type="line"/>
      <point x="208" y="1123" type="line"/>
      <point x="1055" y="309" type="line"/>
    </contour>
  </outline>
</glyph>
<glyph name="Oslash" format="2">
  <advance width="1200"/>
  <unicode hex="00D8"/>
  <anchor x="600" y="0" name="bottom"/>
  <anchor x="600" y="710" name="center"/>
  <anchor x="1080" y="10" name="ogonek"/>
  <anchor x="600" y="1420" name="top"/>
  <anchor x="20" y="1420" name="topleft"/>
  <anchor x="1180" y="1420" name="topright"/>
  <outline>
    <contour>
      <point x="191" y="-134" type="line"/>
      <point x="1059" y="1487" type="line"/>
      <point x="989" y="1532" type="line"/>
      <point x="121" y="-89" type="line"/>
    </contour>
    <component base="O"/>
  </outline>
</glyph>
<glyph name="Thorn" format="2">
  <advance width="1200"/>
  <unicode hex="00DE"/>
  <anchor x="560" y="0" name="bottom"/>
  <anchor x="560" y="1420" name="top"/>
  <outline>
    <contour>
      <point x="250" y="245" type="line"/>
      <point x="598" y="245" type="line" smooth="yes"/>
      <point x="915" y="245"/>
      <point x="1096" y="414"/>
      <point x="1096" y="710" type="curve" smooth="yes"/>
      <point x="1096" y="1006"/>
      <point x="915" y="1175"/>
      <point x="598" y="1175" type="curve" smooth="yes"/>
      <point x="254" y="1175" type="line"/>
      <point x="254" y="1087" type="line"/>
      <point x="598" y="1087" type="line" smooth="yes"/>
      <point x="856" y="1087"/>
      <point x="1004" y="950"/>
      <point x="1004" y="710" type="curve" smooth="yes"/>
      <point x="1004" y="470"/>
      <point x="856" y="333"/>
      <point x="598" y="333" type="curve" smooth="yes"/>
      <point x="250" y="333" type="line"/>
    </contour>
    <contour>
      <point x="184" y="0" type="line"/>
      <point x="274" y="0" type="line"/>
      <point x="274" y="1420" type="line"/>
      <point x="184" y="1420" type="line"/>
    </contour>
  </outline>
</glyph>
<glyph name="germandbls" format="2">
  <advance width="1200"/>
  <unicode hex="00DF"/>
  <anchor x="600" y="0" name="bottom"/>
  <anchor x="658" y="1520" name="top"/>
  <outline>
    <contour>
      <point x="818" y="-20" type="curve" smooth="yes"/>
      <point x="1023" y="-20"/>
      <point x="1140" y="91"/>
      <point x="1140" y="286" type="curve" smooth="yes"/>
      <point x="1140" y="428"/>
      <point x="1042" y="514"/>
      <point x="956" y="599" type="curve" smooth="yes"/>
      <point x="896" y="658"/>
      <point x="848" y="715"/>
      <point x="848" y="780" type="curve" smooth="yes"/>
      <point x="848" y="856"/>
      <point x="876" y="901"/>
      <point x="904" y="946" type="curve" smooth="yes"/>
      <point x="950" y="1020"/>
      <point x="1005" y="1069"/>
      <point x="1005" y="1210" type="curve" smooth="yes"/>
      <point x="1005" y="1407"/>
      <point x="881" y="1520"/>
      <point x="664" y="1520" type="curve" smooth="yes"/>
      <point x="398" y="1520"/>
      <point x="246" y="1356"/>
      <point x="246" y="1070" type="curve" smooth="yes"/>
      <point x="246" y="0" type="line"/>
      <point x="340" y="0" type="line"/>
      <point x="340" y="1080" type="line" smooth="yes"/>
      <point x="340" y="1301"/>
      <point x="455" y="1428"/>
      <point x="658" y="1428" type="curve" smooth="yes"/>
      <point x="818" y="1425"/>
      <point x="909" y="1344"/>
      <point x="909" y="1210" type="curve" smooth="yes"/>
      <point x="909" y="1113"/>
      <point x="870" y="1055"/>
      <point x="827" y="991" type="curve" smooth="yes"/>
      <point x="789" y="934"/>
      <point x="752" y="869"/>
      <point x="752" y="780" type="curve" smooth="yes"/>
      <point x="752" y="633"/>
      <point x="841" y="576"/>
      <point x="921" y="494" type="curve" smooth="yes"/>
      <point x="981" y="433"/>
      <point x="1044" y="381"/>
      <point x="1044" y="282" type="curve" smooth="yes"/>
      <point x="1044" y="149"/>
      <point x="961" y="72"/>
      <point x="818" y="72" type="curve" smooth="yes"/>
      <point x="760" y="72"/>
      <point x="687" y="84"/>
      <point x="590" y="104" type="curve"/>
      <point x="566" y="10" type="line"/>
      <point x="631" y="-9"/>
      <point x="712" y="-20"/>
    </contour>
    <contour>
      <point x="92" y="687" type="line"/>
      <point x="308" y="687" type="line"/>
      <point x="308" y="777" type="line"/>
      <point x="92" y="777" type="line"/>
    </contour>
  </outline>
</glyph>
<glyph name="ae" format="2">
  <advance width="1200"/>
  <unicode hex="00E6"/>
  <anchor x="600" y="0" name="bottom"/>
  <anchor x="600" y="1060" name="top"/>
  <outline>
    <contour>
      <point x="328" y="-20" type="curve" smooth="yes"/>
      <point x="483" y="-20"/>
      <point x="588" y="95"/>
      <point x="608" y="294" type="curve"/>
      <point x="592" y="274" type="line"/>
      <point x="665" y="274" type="line"/>
      <point x="550" y="496" type="line"/>
      <point x="550" y="371" type="line"/>
      <point x="550" y="191"/>
      <point x="462" y="72"/>
      <point x="328" y="72" type="curve" smooth="yes"/>
      <point x="210" y="72"/>
      <point x="141" y="143"/>
      <point x="141" y="271" type="curve" smooth="yes"/>
      <point x="141" y="430"/>
      <point x="220" y="509"/>
      <point x="381" y="509" type="curve" smooth="yes"/>
      <point x="463" y="509"/>
      <point x="564" y="509"/>
      <point x="622" y="476" type="curve"/>
      <point x="631" y="562" type="line"/>
      <point x="583" y="589"/>
      <point x="488" y="601"/>
      <point x="386" y="601" type="curve" smooth="yes"/>
      <point x="158" y="601"/>
      <point x="45" y="489"/>
      <point x="45" y="264" type="curve" smooth="yes"/>
      <point x="45" y="83"/>
      <point x="148" y="-20"/>
    </contour>
    <contour>
      <point x="550" y="310" type="line"/>
      <point x="618" y="310" type="line"/>
      <point x="618" y="634" type="line" smooth="yes"/>
      <point x="618" y="901"/>
      <point x="482" y="1057"/>
      <point x="245" y="1067" type="curve" smooth="yes"/>
      <point x="175" y="1070" type="line"/>
      <point x="155" y="978" type="line"/>
      <point x="225" y="975" type="line" smooth="yes"/>
      <point x="432" y="966"/>
      <point x="550" y="855"/>
      <point x="550" y="666" type="curve" smooth="yes"/>
      <point x="550" y="392" type="line"/>
    </contour>
    <contour>
      <point x="954" y="-20" type="curve" smooth="yes"/>
      <point x="1006" y="-20"/>
      <point x="1060" y="-10"/>
      <point x="1099" y="5" type="curve"/>
      <point x="1084" y="97" type="line"/>
      <point x="1050" y="81"/>
      <point x="1010" y="72"/>
      <point x="978" y="72" type="curve" smooth="yes"/>
      <point x="768" y="72"/>
      <point x="647" y="245"/>
      <point x="647" y="542" type="curve" smooth="yes"/>
      <point x="647" y="825"/>
      <point x="732" y="988"/>
      <point x="878" y="988" type="curve" smooth="yes"/>
      <point x="996" y="988"/>
      <point x="1055" y="845"/>
      <point x="1055" y="558" type="curve"/>
      <point x="624" y="558" type="line"/>
      <point x="624" y="468" type="line"/>
      <point x="1145" y="468" type="line"/>
      <point x="1149" y="494"/>
      <point x="1151" y="527"/>
      <point x="1151" y="556" type="curve" smooth="yes"/>
      <point x="1151" y="906"/>
      <point x="1060" y="1080"/>
      <point x="876" y="1080" type="curve" smooth="yes"/>
      <point x="689" y="1080"/>
      <point x="581" y="885"/>
      <point x="581" y="544" type="curve" smooth="yes"/>
      <point x="581" y="176"/>
      <point x="717" y="-20"/>
    </contour>
  </outline>
</glyph>
<glyph name="eth" format="2">
  <advance width="1200"/>
  <unicode hex="00F0"/>
  <outline>
    <contour>
      <point x="963" y="272" type="line"/>
      <point x="1060" y="526" type="line"/>
      <point x="1060" y="574" type="line" smooth="yes"/>
      <point x="1060" y="1087"/>
      <point x="859" y="1358"/>
      <point x="388" y="1516" type="curve"/>
      <point x="348" y="1437" type="line"/>
      <point x="780" y="1298"/>
      <point x="963" y="1068"/>
      <point x="963" y="666" type="curve" smooth="yes"/>
    </contour>
    <contour>
      <point x="582" y="72" type="curve" smooth="yes"/>
      <point x="362" y="72"/>
      <point x="238" y="220"/>
      <point x="238" y="480" type="curve" smooth="yes"/>
      <point x="238" y="703"/>
      <point x="365" y="828"/>
      <point x="596" y="828" type="curve" smooth="yes"/>
      <point x="831" y="828"/>
      <point x="964" y="688"/>
      <point x="964" y="440" type="curve" smooth="yes"/>
      <point x="964" y="195"/>
      <point x="836" y="72"/>
    </contour>
    <contour>
      <point x="584" y="-20" type="curve" smooth="yes"/>
      <point x="889" y="-20"/>
      <point x="1060" y="178"/>
      <point x="1060" y="526" type="curve"/>
      <point x="998" y="408" type="line"/>
      <point x="998" y="708" type="line"/>
      <point x="954" y="708" type="line"/>
      <point x="909" y="843"/>
      <point x="768" y="920"/>
      <point x="576" y="920" type="curve" smooth="yes"/>
      <point x="299" y="920"/>
      <point x="142" y="760"/>
      <point x="142" y="480" type="curve" smooth="yes"/>
      <point x="142" y="163"/>
      <point x="301" y="-20"/>
    </contour>
    <contour>
      <point x="270" y="1037" type="line"/>
      <point x="1084" y="1327" type="line"/>
      <point x="1064" y="1412" type="line"/>
      <point x="248" y="1122" type="line"/>
    </contour>
  </outline>
</glyph>
<glyph name="divide" format="2">
  <advance width="1200"/>
  <unicode hex="00F7"/>
  <outline>
    <contour>
      <point x="124" y="664" type="line"/>
      <point x="1076" y="664" type="line"/>
      <point x="1076" y="754" type="line"/>
      <point x="124" y="754" type="line"/>
    </contour>
    <contour>
      <point x="600" y="187" type="curve" smooth="yes"/>
      <point x="658" y="187"/>
      <point x="705" y="234"/>
      <point x="705" y="291" type="curve" smooth="yes"/>
      <point x="705" y="349"/>
      <point x="658" y="396"/>
      <point x="600" y="396" type="curve" smooth="yes"/>
      <point x="542" y="396"/>
      <point x="495" y="349"/>
      <point x="495" y="291" type="curve" smooth="yes"/>
      <point x="495" y="234"/>
      <point x="542" y="187"/>
    </contour>
    <contour>
      <point x="600" y="1020" type="curve" smooth="yes"/>
      <point x="657" y="1020"/>
      <point x="705" y="1067"/>
      <point x="705" y="1125" type="curve" smooth="yes"/>
      <point x="705" y="1182"/>
      <point x="658" y="1229"/>
      <point x="600" y="1229" type="curve" smooth="yes"/>
      <point x="542" y="1229"/>
      <point x="495" y="1182"/>
      <point x="495" y="1125" type="curve" smooth="yes"/>
      <point x="495" y="1067"/>
      <point x="542" y="1020"/>
    </contour>
  </outline>
</glyph>
<glyph name="oslash" format="2">
  <advance width="1200"/>
  <unicode hex="00F8"/>
  <outline>
    <contour>
      <point x="301" y="-134" type="line"/>
      <point x="981" y="1158" type="line"/>
      <point x="896" y="1198" type="line"/>
      <point x="226" y="-84" type="line"/>
    </contour>
    <component base="o"/>
  </outline>
</glyph>
<glyph name="thorn" format="2">
  <advance width="1200"/>
  <unicode hex="00FE"/>
  <outline>
    <contour>
      <point x="642" y="-20" type="curve" smooth="yes"/>
      <point x="920" y="-20"/>
      <point x="1080" y="177"/>
      <point x="1080" y="520" type="curve" smooth="yes"/>
      <point x="1080" y="876"/>
      <point x="920" y="1080"/>
      <point x="640" y="1080" type="curve" smooth="yes"/>
      <point x="460" y="1080"/>
      <point x="334" y="1003"/>
      <point x="294" y="868" type="curve"/>
      <point x="224" y="868" type="line"/>
      <point x="286" y="596" type="line"/>
      <point x="286" y="845"/>
      <point x="415" y="988"/>
      <point x="640" y="988" type="curve" smooth="yes"/>
      <point x="859" y="988"/>
      <point x="984" y="818"/>
      <point x="984" y="520" type="curve" smooth="yes"/>
      <point x="984" y="235"/>
      <point x="858" y="72"/>
      <point x="638" y="72" type="curve" smooth="yes"/>
      <point x="414" y="72"/>
      <point x="286" y="170"/>
      <point x="286" y="340" type="curve" smooth="yes"/>
      <point x="286" y="456" type="line"/>
      <point x="214" y="164" type="line"/>
      <point x="294" y="164" type="line"/>
      <point x="329" y="47"/>
      <point x="456" y="-20"/>
    </contour>
    <contour>
      <point x="192" y="-460" type="line"/>
      <point x="286" y="-460" type="line"/>
      <point x="286" y="1500" type="line"/>
      <point x="192" y="1500" type="line"/>
    </contour>
  </outline>
</glyph>
<glyph name="Aogonek" format="2">
  <advance width="1200"/>
  <unicode hex="0104"/>
  <anchor x="600" y="-388" name="bottom"/>
  <anchor x="1080" y="10" name="ogonek"/>
  <anchor x="600" y="1420" name="top"/>
  <outline>
    <contour>
      <point x="1013" y="-424" type="curve" smooth="yes"/>
      <point x="1040" y="-424"/>
      <point x="1075" y="-421"/>
      <point x="1107" y="-418" type="curve"/>
      <point x="1114" y="-337" type="line"/>
      <point x="1087" y="-339"/>
      <point x="1060" y="-341"/>
      <point x="1039" y="-341" type="curve" smooth="yes"/>
      <point x="955" y="-341"/>
      <point x="913" y="-313"/>
      <point x="913" y="-258" type="curve" smooth="yes"/>
      <point x="913" y="-181"/>
      <point x="971" y="-112"/>
      <point x="1131" y="0" type="curve"/>
      <point x="1106" y="32" type="line"/>
      <point x="1052" y="50" type="line"/>
      <point x="1040" y="0" type="line"/>
      <point x="884" y="-105"/>
      <point x="823" y="-168"/>
      <point x="823" y="-262" type="curve" smooth="yes"/>
      <point x="823" y="-370"/>
      <point x="886" y="-424"/>
    </contour>
    <component base="A"/>
  </outline>
</glyph>
<glyph name="aogonek" format="2">
  <advance width="1200"/>
  <unicode hex="0105"/>
  <anchor x="600" y="-480" name="bottom"/>
  <outline>
    <contour>
      <point x="1016" y="-424" type="curve" smooth="yes"/>
      <point x="1043" y="-424"/>
      <point x="1078" y="-423"/>
      <point x="1110" y="-415" type="curve"/>
      <point x="1117" y="-332" type="line"/>
      <point x="1090" y="-335"/>
      <point x="1063" y="-337"/>
      <point x="1042" y="-337" type="curve" smooth="yes"/>
      <point x="939" y="-337"/>
      <point x="880" y="-290"/>
      <point x="880" y="-208" type="curve" smooth="yes"/>
      <point x="880" y="-87"/>
      <point x="973" y="0"/>
      <point x="1134" y="0" type="curve"/>
      <point x="1009" y="32" type="line"/>
      <point x="909" y="50" type="line"/>
      <point x="909" y="-15" type="line"/>
      <point x="831" y="-62"/>
      <point x="786" y="-136"/>
      <point x="786" y="-218" type="curve" smooth="yes"/>
      <point x="786" y="-349"/>
      <point x="870" y="-424"/>
    </contour>
    <component base="a"/>
  </outline>
</glyph>
<glyph name="dcaron" format="2">
  <advance width="1200"/>
  <unicode hex="010F"/>
  <anchor x="540" y="0" name="bottom"/>
  <anchor x="600" y="530" name="center"/>
  <anchor x="961" y="1500" name="top"/>
  <anchor x="1157" y="1060" name="topright"/>
  <outline>
    <contour>
      <point x="1169" y="1188" type="line"/>
      <point x="1247" y="1188" type="line"/>
      <point x="1324" y="1568" type="line"/>
      <point x="1232" y="1568" type="line"/>
    </contour>
    <component base="d"/>
  </outline>
</glyph>
<glyph name="Eogonek" format="2">
  <advance width="1200"/>
  <unicode hex="0118"/>
  <anchor x="600" y="-388" name="bottom"/>
  <outline>
    <contour>
      <point x="957" y="-424" type="curve" smooth="yes"/>
      <point x="984" y="-424"/>
      <point x="1019" y="-423"/>
      <point x="1051" y="-415" type="curve"/>
      <point x="1058" y="-332" type="line"/>
      <point x="1031" y="-335"/>
      <point x="1004" y="-337"/>
      <point x="983" y="-337" type="curve" smooth="yes"/>
      <point x="877" y="-337"/>
      <point x="821" y="-293"/>
      <point x="821" y="-208" type="curve" smooth="yes"/>
      <point x="821" y="-83"/>
      <point x="923" y="0"/>
      <point x="1075" y="0" type="curve"/>
      <point x="950" y="32" type="line"/>
      <point x="850" y="50" type="line"/>
      <point x="850" y="-10" type="line"/>
      <point x="766" y="-70"/>
      <point x="727" y="-135"/>
      <point x="727" y="-218" type="curve" smooth="yes"/>
      <point x="727" y="-353"/>
      <point x="806" y="-424"/>
    </contour>
    <component base="E"/>
  </outline>
</glyph>
<glyph name="eogonek" format="2">
  <advance width="1200"/>
  <unicode hex="0119"/>
  <anchor x="630" y="-480" name="bottom"/>
  <anchor x="1057" y="10" name="ogonek"/>
  <anchor x="610" y="1060" name="top"/>
  <outline>
    <contour>
      <point x="868" y="-424" type="curve" smooth="yes"/>
      <point x="895" y="-424"/>
      <point x="930" y="-423"/>
      <point x="962" y="-415" type="curve"/>
      <point x="969" y="-336" type="line"/>
      <point x="942" y="-339"/>
      <point x="915" y="-341"/>
      <point x="894" y="-341" type="curve" smooth="yes"/>
      <point x="788" y="-341"/>
      <point x="728" y="-293"/>
      <point x="728" y="-208" type="curve" smooth="yes"/>
      <point x="728" y="-82"/>
      <point x="822" y="-43"/>
      <point x="988" y="8" type="curve"/>
      <point x="983" y="35" type="line"/>
      <point x="749" y="34" type="line"/>
      <point x="749" y="-34" type="line"/>
      <point x="679" y="-67"/>
      <point x="638" y="-134"/>
      <point x="638" y="-218" type="curve" smooth="yes"/>
      <point x="638" y="-349"/>
      <point x="722" y="-424"/>
    </contour>
    <component base="e"/>
  </outline>
</glyph>
<glyph name="Hbar" format="2">
  <advance width="1200"/>
  <unicode hex="0126"/>
  <outline>
    <contour>
      <point x="42" y="1052" type="line"/>
      <point x="1158" y="1052" type="line"/>
      <point x="1158" y="1142" type="line"/>
      <point x="42" y="1142" type="line"/>
    </contour>
    <component base="H"/>
  </outline>
</glyph>
<glyph name="hbar" format="2">
  <advance width="1200"/>
  <unicode hex="0127"/>
  <outline>
    <contour>
      <point x="22" y="1260" type="line"/>
      <point x="738" y="1260" type="line"/>
      <point x="738" y="1350" type="line"/>
      <point x="22" y="1350" type="line"/>
    </contour>
    <component base="h"/>
  </outline>
</glyph>
<glyph name="Iogonek" format="2">
  <advance width="1200"/>
  <unicode hex="012E"/>
  <anchor x="600" y="-388" name="bottom"/>
  <anchor x="600" y="10" name="ogonek"/>
  <anchor x="600" y="1420" name="top"/>
  <anchor x="20" y="1420" name="topleft"/>
  <outline>
    <contour>
      <point x="632" y="-424" type="curve" smooth="yes"/>
      <point x="659" y="-424"/>
      <point x="694" y="-423"/>
      <point x="726" y="-415" type="curve"/>
      <point x="733" y="-336" type="line"/>
      <point x="706" y="-339"/>
      <point x="679" y="-341"/>
      <point x="658" y="-341" type="curve" smooth="yes"/>
      <point x="552" y="-341"/>
      <point x="492" y="-293"/>
      <point x="492" y="-208" type="curve" smooth="yes"/>
      <point x="492" y="-87"/>
      <point x="593" y="0"/>
      <point x="770" y="0" type="curve"/>
      <point x="770" y="50" type="line"/>
      <point x="525" y="50" type="line"/>
      <point x="525" y="-10" type="line"/>
      <point x="447" y="-58"/>
      <point x="402" y="-134"/>
      <point x="402" y="-218" type="curve" smooth="yes"/>
      <point x="402" y="-349"/>
      <point x="486" y="-424"/>
    </contour>
    <component base="I"/>
  </outline>
</glyph>
<glyph name="iogonek" format="2">
  <advance width="1200"/>
  <unicode hex="012F"/>
  <outline>
    <contour>
      <point x="678" y="-424" type="curve" smooth="yes"/>
      <point x="705" y="-424"/>
      <point x="740" y="-423"/>
      <point x="772" y="-415" type="curve"/>
      <point x="779" y="-332" type="line"/>
      <point x="752" y="-335"/>
      <point x="725" y="-337"/>
      <point x="704" y="-337" type="curve" smooth="yes"/>
      <point x="601" y="-337"/>
      <point x="542" y="-290"/>
      <point x="542" y="-208" type="curve" smooth="yes"/>
      <point x="542" y="-87"/>
      <point x="635" y="0"/>
      <point x="796" y="0" type="curve"/>
      <point x="671" y="32" type="line"/>
      <point x="571" y="50" type="line"/>
      <point x="571" y="-10" type="line"/>
      <point x="493" y="-48"/>
      <point x="448" y="-134"/>
      <point x="448" y="-218" type="curve" smooth="yes"/>
      <point x="448" y="-349"/>
      <point x="532" y="-424"/>
    </contour>
    <component base="i"/>
  </outline>
</glyph>
<glyph name="idotless" format="2">
  <advance width="1200"/>
  <unicode hex="0131"/>
  <anchor x="670" y="0" name="bottom"/>
  <anchor x="731" y="10" name="ogonek"/>
  <anchor x="650" y="1060" name="top"/>
  <outline>
    <contour>
      <point x="623" y="0" type="line"/>
      <point x="717" y="0" type="line"/>
      <point x="717" y="1060" type="line"/>
      <point x="623" y="1060" type="line"/>
    </contour>
    <contour>
      <point x="184" y="0" type="line"/>
      <point x="644" y="0" type="line"/>
      <point x="644" y="90" type="line"/>
      <point x="184" y="90" type="line"/>
    </contour>
    <contour>
      <point x="696" y="0" type="line"/>
      <point x="1078" y="0" type="line"/>
      <point x="1078" y="90" type="line"/>
      <point x="696" y="90" type="line"/>
    </contour>
    <contour>
      <point x="244" y="970" type="line"/>
      <point x="717" y="970" type="line"/>
      <point x="717" y="1060" type="line"/>
      <point x="244" y="1060" type="line"/>
    </contour>
  </outline>
</glyph>
<glyph name="IJ" format="2">
  <advance width="1200"/>
  <unicode hex="0132"/>
  <outline>
    <contour>
      <point x="655" y="-20" type="curve" smooth="yes"/>
      <point x="905" y="-20"/>
      <point x="1048" y="132"/>
      <point x="1048" y="396" type="curve" smooth="yes"/>
      <point x="1048" y="1420" type="line"/>
      <point x="958" y="1420" type="line"/>
      <point x="958" y="396" type="line" smooth="yes"/>
      <point x="958" y="189"/>
      <point x="849" y="70"/>
      <point x="660" y="70" type="curve" smooth="yes"/>
      <point x="471" y="70"/>
      <point x="362" y="181"/>
      <point x="362" y="376" type="curve"/>
      <point x="270" y="376" type="line"/>
      <point x="270" y="124"/>
      <point x="410" y="-20"/>
    </contour>
    <contour>
      <point x="45" y="517" type="line"/>
      <point x="589" y="517" type="line"/>
      <point x="589" y="605" type="line"/>
      <point x="45" y="605" type="line"/>
    </contour>
    <contour>
      <point x="271" y="517" type="line"/>
      <point x="361" y="517" type="line"/>
      <point x="361" y="1420" type="line"/>
      <point x="271" y="1420" type="line"/>
    </contour>
    <contour>
      <point x="45" y="1332" type="line"/>
      <point x="569" y="1332" type="line"/>
      <point x="569" y="1420" type="line"/>
      <point x="45" y="1420" type="line"/>
    </contour>
    <contour>
      <point x="680" y="1332" type="line"/>
      <point x="1006" y="1332" type="line"/>
      <point x="1006" y="1420" type="line"/>
      <point x="680" y="1420" type="line"/>
    </contour>
  </outline>
</glyph>
<glyph name="ij" format="2">
  <advance width="1200"/>
  <unicode hex="0133"/>
  <anchor x="600" y="-480" name="bottom"/>
  <anchor x="600" y="1480" name="top"/>
  <outline>
    <contour>
      <point x="270" y="-480" type="line"/>
      <point x="422" y="-468" type="line" smooth="yes"/>
      <point x="784" y="-439"/>
      <point x="945" y="-284"/>
      <point x="940" y="94" type="curve" smooth="yes"/>
      <point x="936" y="384" type="line"/>
      <point x="842" y="384" type="line"/>
      <point x="846" y="62" type="line" smooth="yes"/>
      <point x="850" y="-227"/>
      <point x="724" y="-352"/>
      <point x="442" y="-378" type="curve" smooth="yes"/>
      <point x="266" y="-394" type="line"/>
    </contour>
    <contour>
      <point x="303" y="0" type="line"/>
      <point x="397" y="0" type="line"/>
      <point x="397" y="1060" type="line"/>
      <point x="303" y="1060" type="line"/>
    </contour>
    <contour>
      <point x="842" y="350" type="line"/>
      <point x="936" y="350" type="line"/>
      <point x="936" y="1060" type="line"/>
      <point x="842" y="1060" type="line"/>
    </contour>
    <contour>
      <point x="350" y="1323" type="curve" smooth="yes"/>
      <point x="405" y="1323"/>
      <point x="450" y="1367"/>
      <point x="450" y="1422" type="curve" smooth="yes"/>
      <point x="450" y="1477"/>
      <point x="405" y="1522"/>
      <point x="350" y="1522" type="curve" smooth="yes"/>
      <point x="295" y="1522"/>
      <point x="250" y="1477"/>
      <point x="250" y="1422" type="curve" smooth="yes"/>
      <point x="250" y="1367"/>
      <point x="295" y="1323"/>
    </contour>
    <contour>
      <point x="889" y="1323" type="curve" smooth="yes"/>
      <point x="944" y="1323"/>
      <point x="989" y="1367"/>
      <point x="989" y="1422" type="curve" smooth="yes"/>
      <point x="989" y="1477"/>
      <point x="944" y="1522"/>
      <point x="889" y="1522" type="curve" smooth="yes"/>
      <point x="834" y="1522"/>
      <point x="789" y="1477"/>
      <point x="789" y="1422" type="curve" smooth="yes"/>
      <point x="789" y="1367"/>
      <point x="834" y="1323"/>
    </contour>
  </outline>
</glyph>
<glyph name="Lcaron" format="2">
  <advance width="1200"/>
  <unicode hex="013D"/>
  <outline>
    <contour>
      <point x="797" y="1188" type="line"/>
      <point x="889" y="1188" type="line"/>
      <point x="969" y="1568" type="line"/>
      <point x="872" y="1568" type="line"/>
    </contour>
    <component base="L"/>
  </outline>
</glyph>
<glyph name="lcaron" format="2">
  <advance width="1200"/>
  <unicode hex="013E"/>
  <outline>
    <contour>
      <point x="812" y="1188" type="line"/>
      <point x="914" y="1188" type="line"/>
      <point x="1014" y="1568" type="line"/>
      <point x="912" y="1568" type="line"/>
    </contour>
    <component base="l"/>
  </outline>
</glyph>
<glyph name="Lslash" format="2">
  <advance width="1200"/>
  <unicode hex="0141"/>
  <anchor x="620" y="0" name="bottom"/>
  <anchor x="600" y="710" name="center"/>
  <anchor x="260" y="1420" name="top"/>
  <anchor x="1180" y="1420" name="topright"/>
  <outline>
    <contour>
      <point x="58" y="455" type="line"/>
      <point x="864" y="960" type="line"/>
      <point x="864" y="1060" type="line"/>
      <point x="58" y="555" type="line"/>
    </contour>
    <contour>
      <point x="184" y="0" type="line"/>
      <point x="1076" y="0" type="line"/>
      <point x="1076" y="88" type="line"/>
      <point x="184" y="88" type="line"/>
    </contour>
    <contour>
      <point x="184" y="0" type="line"/>
      <point x="274" y="0" type="line"/>
      <point x="274" y="1420" type="line"/>
      <point x="184" y="1420" type="line"/>
    </contour>
  </outline>
</glyph>
<glyph name="napostrophe" format="2">
  <advance width="1200"/>
  <unicode hex="0149"/>
  <anchor x="600" y="0" name="bottom"/>
  <anchor x="590" y="1060" name="top"/>
  <outline>
    <contour>
      <point x="20" y="1248" type="line"/>
      <point x="122" y="1248" type="line"/>
      <point x="252" y="1628" type="line"/>
      <point x="150" y="1628" type="line"/>
    </contour>
    <component base="n"/>
  </outline>
</glyph>
<glyph name="Eng" format="2">
  <advance width="1200"/>
  <unicode hex="014A"/>
  <guideline x="860" y="123" angle="90"/>
  <anchor x="600" y="-388" name="bottom"/>
  <outline>
    <contour>
      <point x="648" y="-480" type="line"/>
      <point x="738" y="-463" type="line" smooth="yes"/>
      <point x="951" y="-423"/>
      <point x="1028" y="-320"/>
      <point x="1028" y="-56" type="curve" smooth="yes"/>
      <point x="1028" y="184" type="line"/>
      <point x="934" y="184" type="line"/>
      <point x="934" y="-48" type="line" smooth="yes"/>
      <point x="934" y="-257"/>
      <point x="879" y="-343"/>
      <point x="728" y="-371" type="curve" smooth="yes"/>
      <point x="638" y="-388" type="line"/>
    </contour>
    <component base="N"/>
  </outline>
</glyph>
<glyph name="eng" format="2">
  <advance width="1200"/>
  <unicode hex="014B"/>
  <anchor x="600" y="-480" name="bottom"/>
  <anchor x="600" y="1060" name="top"/>
  <outline>
    <contour>
      <point x="914" y="280" type="line"/>
      <point x="1008" y="280" type="line"/>
      <point x="1008" y="690" type="line" smooth="yes"/>
      <point x="1008" y="938"/>
      <point x="867" y="1080"/>
      <point x="621" y="1080" type="curve" smooth="yes"/>
      <point x="441" y="1080"/>
      <point x="333" y="1010"/>
      <point x="294" y="868" type="curve"/>
      <point x="222" y="868" type="line"/>
      <point x="286" y="600" type="line"/>
      <point x="286" y="860"/>
      <point x="402" y="988"/>
      <point x="630" y="988" type="curve" smooth="yes"/>
      <point x="809" y="988"/>
      <point x="914" y="882"/>
      <point x="914" y="694" type="curve" smooth="yes"/>
    </contour>
    <contour>
      <point x="533" y="-470" type="line"/>
      <point x="564" y="-468" type="line" smooth="yes"/>
      <point x="877" y="-448"/>
      <point x="1008" y="-287"/>
      <point x="1008" y="84" type="curve" smooth="yes"/>
      <point x="1008" y="384" type="line"/>
      <point x="914" y="384" type="line"/>
      <point x="914" y="62" type="line" smooth="yes"/>
      <point x="914" y="-227"/>
      <point x="817" y="-352"/>
      <point x="584" y="-378" type="curve" smooth="yes"/>
      <point x="529" y="-384" type="line"/>
    </contour>
    <contour>
      <point x="192" y="0" type="line"/>
      <point x="286" y="0" type="line"/>
      <point x="286" y="836" type="line"/>
      <point x="278" y="1060" type="line"/>
      <point x="192" y="1060" type="line"/>
    </contour>
  </outline>
</glyph>
<glyph name="OE" format="2">
  <advance width="1200"/>
  <unicode hex="0152"/>
  <anchor x="640" y="0" name="bottom"/>
  <anchor x="640" y="1420" name="top"/>
  <outline>
    <contour>
      <point x="520" y="-20" type="curve" smooth="yes"/>
      <point x="595" y="-20"/>
      <point x="653" y="0"/>
      <point x="700" y="0" type="curve" smooth="yes"/>
      <point x="730" y="0" type="line"/>
      <point x="730" y="1420" type="line"/>
      <point x="700" y="1420" type="line" smooth="yes"/>
      <point x="638" y="1420"/>
      <point x="592" y="1440"/>
      <point x="520" y="1440" type="curve" smooth="yes"/>
      <point x="255" y="1440"/>
      <point x="102" y="1170"/>
      <point x="102" y="700" type="curve" smooth="yes"/>
      <point x="102" y="242"/>
      <point x="255" y="-20"/>
    </contour>
    <contour>
      <point x="650" y="0" type="line"/>
      <point x="1074" y="0" type="line"/>
      <point x="1074" y="90" type="line"/>
      <point x="650" y="90" type="line"/>
    </contour>
    <contour>
      <point x="530" y="70" type="curve" smooth="yes"/>
      <point x="320" y="70"/>
      <point x="198" y="298"/>
      <point x="198" y="700" type="curve" smooth="yes"/>
      <point x="198" y="1114"/>
      <point x="315" y="1350"/>
      <point x="520" y="1350" type="curve" smooth="yes"/>
      <point x="565" y="1350"/>
      <point x="607" y="1342"/>
      <point x="640" y="1328" type="curve"/>
      <point x="640" y="76" type="line"/>
      <point x="609" y="72"/>
      <point x="569" y="70"/>
    </contour>
    <contour>
      <point x="670" y="666" type="line"/>
      <point x="1014" y="666" type="line"/>
      <point x="1014" y="756" type="line"/>
      <point x="670" y="756" type="line"/>
    </contour>
    <contour>
      <point x="640" y="1330" type="line"/>
      <point x="1074" y="1330" type="line"/>
      <point x="1074" y="1420" type="line"/>
      <point x="640" y="1420" type="line"/>
    </contour>
  </outline>
</glyph>
<glyph name="oe" format="2">
  <advance width="1200"/>
  <unicode hex="0153"/>
  <anchor x="610" y="0" name="bottom"/>
  <anchor x="610" y="1060" name="top"/>
  <outline>
    <contour>
      <point x="354" y="-20" type="curve" smooth="yes"/>
      <point x="538" y="-20"/>
      <point x="628" y="162"/>
      <point x="628" y="530" type="curve" smooth="yes"/>
      <point x="628" y="898"/>
      <point x="538" y="1080"/>
      <point x="354" y="1080" type="curve" smooth="yes"/>
      <point x="147" y="1080"/>
      <point x="44" y="898"/>
      <point x="44" y="530" type="curve" smooth="yes"/>
      <point x="44" y="162"/>
      <point x="147" y="-20"/>
    </contour>
    <contour>
      <point x="354" y="72" type="curve" smooth="yes"/>
      <point x="210" y="72"/>
      <point x="140" y="223"/>
      <point x="140" y="530" type="curve" smooth="yes"/>
      <point x="140" y="837"/>
      <point x="210" y="988"/>
      <point x="354" y="988" type="curve" smooth="yes"/>
      <point x="490" y="988"/>
      <point x="556" y="837"/>
      <point x="556" y="530" type="curve" smooth="yes"/>
      <point x="556" y="223"/>
      <point x="490" y="72"/>
    </contour>
    <contour>
      <point x="954" y="-20" type="curve" smooth="yes"/>
      <point x="1006" y="-20"/>
      <point x="1060" y="-10"/>
      <point x="1099" y="5" type="curve"/>
      <point x="1084" y="97" type="line"/>
      <point x="1050" y="81"/>
      <point x="1010" y="72"/>
      <point x="978" y="72" type="curve" smooth="yes"/>
      <point x="768" y="72"/>
      <point x="647" y="245"/>
      <point x="647" y="542" type="curve" smooth="yes"/>
      <point x="647" y="825"/>
      <point x="732" y="988"/>
      <point x="878" y="988" type="curve" smooth="yes"/>
      <point x="996" y="988"/>
      <point x="1055" y="845"/>
      <point x="1055" y="558" type="curve"/>
      <point x="624" y="558" type="line"/>
      <point x="624" y="468" type="line"/>
      <point x="1145" y="468" type="line"/>
      <point x="1149" y="494"/>
      <point x="1151" y="527"/>
      <point x="1151" y="556" type="curve" smooth="yes"/>
      <point x="1151" y="906"/>
      <point x="1060" y="1080"/>
      <point x="876" y="1080" type="curve" smooth="yes"/>
      <point x="689" y="1080"/>
      <point x="581" y="885"/>
      <point x="581" y="544" type="curve" smooth="yes"/>
      <point x="581" y="176"/>
      <point x="717" y="-20"/>
    </contour>
  </outline>
</glyph>
<glyph name="tcaron" format="2">
  <advance width="1200"/>
  <unicode hex="0165"/>
  <anchor x="665" y="0" name="bottom"/>
  <anchor x="442" y="570" name="center"/>
  <anchor x="806" y="1180" name="top"/>
  <anchor x="1080" y="1060" name="topright"/>
  <outline>
    <contour>
      <point x="732" y="1228" type="line"/>
      <point x="824" y="1228" type="line"/>
      <point x="894" y="1608" type="line"/>
      <point x="802" y="1608" type="line"/>
    </contour>
    <component base="t"/>
  </outline>
</glyph>
<glyph name="Tbar" format="2">
  <advance width="1200"/>
  <unicode hex="0166"/>
  <anchor x="595" y="0" name="bottom"/>
  <anchor x="600" y="710" name="center"/>
  <anchor x="600" y="1420" name="top"/>
  <outline>
    <contour>
      <point x="192" y="638" type="line"/>
      <point x="1008" y="638" type="line"/>
      <point x="1008" y="726" type="line"/>
      <point x="192" y="726" type="line"/>
    </contour>
    <component base="T"/>
  </outline>
</glyph>
<glyph name="tbar" format="2">
  <advance width="1200"/>
  <unicode hex="0167"/>
  <anchor x="655" y="0" name="bottom"/>
  <anchor x="432" y="570" name="center"/>
  <anchor x="600" y="1380" name="top"/>
  <anchor x="1070" y="1060" name="topright"/>
  <outline>
    <contour>
      <point x="84" y="538" type="line"/>
      <point x="996" y="538" type="line"/>
      <point x="996" y="628" type="line"/>
      <point x="84" y="628" type="line"/>
    </contour>
    <component base="t"/>
  </outline>
</glyph>
<glyph name="Uogonek" format="2">
  <advance width="1200"/>
  <unicode hex="0172"/>
  <anchor x="600" y="-388" name="bottom"/>
  <outline>
    <contour>
      <point x="632" y="-424" type="curve" smooth="yes"/>
      <point x="659" y="-424"/>
      <point x="694" y="-423"/>
      <point x="726" y="-415" type="curve"/>
      <point x="733" y="-332" type="line"/>
      <point x="706" y="-335"/>
      <point x="679" y="-337"/>
      <point x="658" y="-337" type="curve" smooth="yes"/>
      <point x="555" y="-337"/>
      <point x="496" y="-291"/>
      <point x="496" y="-208" type="curve" smooth="yes"/>
      <point x="496" y="-84"/>
      <point x="596" y="-45"/>
      <point x="770" y="5" type="curve"/>
      <point x="625" y="32" type="line"/>
      <point x="533" y="34" type="line"/>
      <point x="533" y="-26" type="line"/>
      <point x="450" y="-60"/>
      <point x="402" y="-130"/>
      <point x="402" y="-218" type="curve" smooth="yes"/>
      <point x="402" y="-349"/>
      <point x="486" y="-424"/>
    </contour>
    <component base="U"/>
  </outline>
</glyph>
<glyph name="uogonek" format="2">
  <advance width="1200"/>
  <unicode hex="0173"/>
  <anchor x="570" y="0" name="bottom"/>
  <anchor x="1080" y="10" name="ogonek"/>
  <anchor x="590" y="1060" name="top"/>
  <anchor x="1120" y="1060" name="topright"/>
  <outline>
    <contour>
      <point x="1016" y="-424" type="curve" smooth="yes"/>
      <point x="1043" y="-424"/>
      <point x="1078" y="-423"/>
      <point x="1110" y="-415" type="curve"/>
      <point x="1117" y="-336" type="line"/>
      <point x="1090" y="-339"/>
      <point x="1063" y="-341"/>
      <point x="1042" y="-341" type="curve" smooth="yes"/>
      <point x="936" y="-341"/>
      <point x="876" y="-293"/>
      <point x="876" y="-208" type="curve" smooth="yes"/>
      <point x="876" y="-87"/>
      <point x="970" y="0"/>
      <point x="1134" y="0" type="curve"/>
      <point x="1009" y="32" type="line"/>
      <point x="929" y="50" type="line"/>
      <point x="929" y="-15" type="line"/>
      <point x="838" y="-63"/>
      <point x="786" y="-139"/>
      <point x="786" y="-223" type="curve" smooth="yes"/>
      <point x="786" y="-351"/>
      <point x="870" y="-424"/>
    </contour>
    <component base="u"/>
  </outline>
</glyph>
<glyph name="longs" format="2">
  <advance width="1200"/>
  <unicode hex="017F"/>
  <anchor x="548" y="0" name="bottom"/>
  <anchor x="780" y="1500" name="top"/>
  <outline>
    <contour>
      <point x="502" y="0" type="line"/>
      <point x="594" y="0" type="line"/>
      <point x="594" y="980" type="line" smooth="yes"/>
      <point x="594" y="1280"/>
      <point x="708" y="1428"/>
      <point x="938" y="1428" type="curve" smooth="yes"/>
      <point x="991" y="1428"/>
      <point x="1044" y="1424"/>
      <point x="1118" y="1414" type="curve"/>
      <point x="1140" y="1500" type="line"/>
      <point x="1074" y="1514"/>
      <point x="1015" y="1520"/>
      <point x="944" y="1520" type="curve" smooth="yes"/>
      <point x="648" y="1520"/>
      <point x="502" y="1338"/>
      <point x="502" y="970" type="curve" smooth="yes"/>
    </contour>
    <contour>
      <point x="92" y="688" type="line"/>
      <point x="564" y="688" type="line"/>
      <point x="564" y="778" type="line"/>
      <point x="92" y="778" type="line"/>
    </contour>
  </outline>
</glyph>
<glyph name="Oopen" format="2">
  <advance width="1200"/>
  <unicode hex="0186"/>
  <outline>
    <contour>
      <point x="476" y="-20" type="curve" smooth="yes"/>
      <point x="878" y="-20"/>
      <point x="1080" y="256"/>
      <point x="1080" y="713" type="curve" smooth="yes"/>
      <point x="1080" y="1183"/>
      <point x="866" y="1440"/>
      <point x="455" y="1440" type="curve" smooth="yes"/>
      <point x="333" y="1440"/>
      <point x="220" y="1418"/>
      <point x="110" y="1372" type="curve"/>
      <point x="138" y="1288" type="line"/>
      <point x="233" y="1328"/>
      <point x="328" y="1348"/>
      <point x="431" y="1348" type="curve" smooth="yes"/>
      <point x="796" y="1348"/>
      <point x="984" y="1113"/>
      <point x="984" y="705" type="curve" smooth="yes"/>
      <point x="984" y="310"/>
      <point x="800" y="72"/>
      <point x="487" y="72" type="curve" smooth="yes"/>
      <point x="336" y="72"/>
      <point x="247" y="107"/>
      <point x="111" y="220" type="curve"/>
      <point x="41" y="151" type="line"/>
      <point x="154" y="37"/>
      <point x="305" y="-20"/>
    </contour>
  </outline>
</glyph>
<glyph name="Ereversed" format="2">
  <advance width="1200"/>
  <unicode hex="018E"/>
  <anchor x="570" y="0" name="bottom"/>
  <anchor x="120" y="10" name="ogonek"/>
  <anchor x="570" y="1420" name="top"/>
  <anchor x="1180" y="1420" name="topright"/>
  <outline>
    <contour>
      <point x="1016" y="0" type="line"/>
      <point x="1016" y="1420" type="line"/>
      <point x="922" y="1420" type="line"/>
      <point x="922" y="0" type="line"/>
    </contour>
    <contour>
      <point x="1016" y="0" type="line"/>
      <point x="1016" y="90" type="line"/>
      <point x="124" y="90" type="line"/>
      <point x="124" y="0" type="line"/>
    </contour>
    <contour>
      <point x="1016" y="666" type="line"/>
      <point x="1016" y="756" type="line"/>
      <point x="304" y="756" type="line"/>
      <point x="304" y="666" type="line"/>
    </contour>
    <contour>
      <point x="1016" y="1330" type="line"/>
      <point x="1016" y="1420" type="line"/>
      <point x="124" y="1420" type="line"/>
      <point x="124" y="1330" type="line"/>
    </contour>
  </outline>
</glyph>
<glyph name="Schwa" format="2">
  <advance width="1200"/>
  <unicode hex="018F"/>
  <outline>
    <contour>
      <point x="600" y="-20" type="curve" smooth="yes"/>
      <point x="931" y="-20"/>
      <point x="1098" y="218"/>
      <point x="1098" y="700" type="curve" smooth="yes"/>
      <point x="1098" y="1194"/>
      <point x="897" y="1440"/>
      <point x="500" y="1440" type="curve" smooth="yes"/>
      <point x="394" y="1440"/>
      <point x="291" y="1425"/>
      <point x="194" y="1394" type="curve"/>
      <point x="212" y="1306" type="line"/>
      <point x="301" y="1335"/>
      <point x="399" y="1350"/>
      <point x="500" y="1350" type="curve" smooth="yes"/>
      <point x="837" y="1350"/>
      <point x="1006" y="1135"/>
      <point x="1006" y="700" type="curve" smooth="yes"/>
      <point x="1006" y="279"/>
      <point x="870" y="70"/>
      <point x="600" y="70" type="curve" smooth="yes"/>
      <point x="330" y="70"/>
      <point x="194" y="256"/>
      <point x="194" y="630" type="curve" smooth="yes"/>
      <point x="194" y="666"/>
      <point x="195" y="699"/>
      <point x="197" y="732" type="curve"/>
      <point x="106" y="748" type="line"/>
      <point x="103" y="711"/>
      <point x="102" y="671"/>
      <point x="102" y="630" type="curve" smooth="yes"/>
      <point x="102" y="195"/>
      <point x="269" y="-20"/>
    </contour>
    <contour>
      <point x="106" y="658" type="line"/>
      <point x="1021" y="658" type="line"/>
      <point x="1021" y="748" type="line"/>
      <point x="106" y="748" type="line"/>
    </contour>
  </outline>
</glyph>
<glyph name="Eopen" format="2">
  <advance width="1200"/>
  <unicode hex="0190"/>
  <anchor x="680" y="0" name="bottom"/>
  <anchor x="680" y="1420" name="top"/>
  <outline>
    <contour>
      <point x="680" y="1440" type="curve" smooth="yes"/>
      <point x="380" y="1440"/>
      <point x="208" y="1314"/>
      <point x="208" y="1093" type="curve" smooth="yes"/>
      <point x="208" y="920"/>
      <point x="305" y="785"/>
      <point x="546" y="758" type="curve"/>
      <point x="529" y="819" type="line"/>
      <point x="529" y="702" type="line"/>
      <point x="546" y="751" type="line"/>
      <point x="341" y="747"/>
      <point x="152" y="611"/>
      <point x="152" y="354" type="curve" smooth="yes"/>
      <point x="152" y="127"/>
      <point x="353" y="-20"/>
      <point x="674" y="-20" type="curve" smooth="yes"/>
      <point x="861" y="-20"/>
      <point x="955" y="-4"/>
      <point x="1076" y="48" type="curve"/>
      <point x="1052" y="137" type="line"/>
      <point x="908" y="84"/>
      <point x="831" y="70"/>
      <point x="669" y="70" type="curve" smooth="yes"/>
      <point x="404" y="70"/>
      <point x="244" y="184"/>
      <point x="244" y="375" type="curve" smooth="yes"/>
      <point x="244" y="585"/>
      <point x="414" y="702"/>
      <point x="666" y="702" type="curve" smooth="yes"/>
      <point x="816" y="702" type="line"/>
      <point x="838" y="790" type="line"/>
      <point x="452" y="802"/>
      <point x="300" y="883"/>
      <point x="300" y="1058" type="curve" smooth="yes"/>
      <point x="300" y="1244"/>
      <point x="439" y="1350"/>
      <point x="681" y="1350" type="curve" smooth="yes"/>
      <point x="829" y="1350"/>
      <point x="962" y="1290"/>
      <point x="1045" y="1214" type="curve"/>
      <point x="1106" y="1286" type="line"/>
      <point x="1027" y="1374"/>
      <point x="872" y="1440"/>
    </contour>
  </outline>
</glyph>
<glyph name="Fhook" format="2">
  <advance width="1200"/>
  <unicode hex="0191"/>
  <anchor x="660" y="-388" name="bottom"/>
  <outline>
    <contour>
      <point x="-33" y="-468" type="line"/>
      <point x="4" y="-463" type="line" smooth="yes"/>
      <point x="222" y="-434"/>
      <point x="298" y="-320"/>
      <point x="298" y="-56" type="curve" smooth="yes"/>
      <point x="298" y="184" type="line"/>
      <point x="204" y="184" type="line"/>
      <point x="204" y="-48" type="line" smooth="yes"/>
      <point x="204" y="-257"/>
      <point x="149" y="-350"/>
      <point x="-6" y="-371" type="curve" smooth="yes"/>
      <point x="-43" y="-376" type="line"/>
    </contour>
    <component base="F"/>
  </outline>
</glyph>
<glyph name="florin" format="2">
  <advance width="1200"/>
  <unicode hex="0192"/>
  <outline>
    <contour>
      <point x="471" y="220" type="line"/>
      <point x="565" y="220" type="line"/>
      <point x="565" y="960" type="line" smooth="yes"/>
      <point x="565" y="1220"/>
      <point x="679" y="1348"/>
      <point x="908" y="1348" type="curve" smooth="yes"/>
      <point x="961" y="1348"/>
      <point x="1014" y="1344"/>
      <point x="1088" y="1334" type="curve"/>
      <point x="1110" y="1420" type="line"/>
      <point x="1044" y="1434"/>
      <point x="985" y="1440"/>
      <point x="914" y="1440" type="curve" smooth="yes"/>
      <point x="617" y="1440"/>
      <point x="471" y="1278"/>
      <point x="471" y="950" type="curve" smooth="yes"/>
    </contour>
    <contour>
      <point x="98" y="-476" type="line"/>
      <point x="151" y="-468" type="line" smooth="yes"/>
      <point x="440" y="-424"/>
      <point x="565" y="-310"/>
      <point x="565" y="14" type="curve" smooth="yes"/>
      <point x="565" y="304" type="line"/>
      <point x="471" y="304" type="line"/>
      <point x="471" y="-18" type="line" smooth="yes"/>
      <point x="471" y="-254"/>
      <point x="380" y="-345"/>
      <point x="171" y="-378" type="curve" smooth="yes"/>
      <point x="94" y="-390" type="line"/>
    </contour>
    <contour>
      <point x="88" y="606" type="line"/>
      <point x="1068" y="606" type="line"/>
      <point x="1068" y="696" type="line"/>
      <point x="88" y="696" type="line"/>
    </contour>
  </outline>
</glyph>
<glyph name="Gammaafrican" format="2">
  <advance width="1200"/>
  <unicode hex="0194"/>
  <anchor x="600" y="-400" name="bottom"/>
  <anchor x="600" y="1420" name="top"/>
  <outline>
    <contour>
      <point x="600" y="-462" type="line"/>
      <point x="759" y="-462"/>
      <point x="864" y="-372"/>
      <point x="864" y="-236" type="curve" smooth="yes"/>
      <point x="864" y="-132"/>
      <point x="803" y="-52"/>
      <point x="636" y="61" type="curve"/>
      <point x="546" y="36" type="line"/>
      <point x="709" y="-84"/>
      <point x="768" y="-157"/>
      <point x="768" y="-236" type="curve" smooth="yes"/>
      <point x="768" y="-318"/>
      <point x="701" y="-372"/>
      <point x="600" y="-372" type="curve"/>
    </contour>
    <contour>
      <point x="600" y="-462" type="curve"/>
      <point x="600" y="-372" type="line"/>
      <point x="499" y="-372"/>
      <point x="432" y="-318"/>
      <point x="432" y="-236" type="curve" smooth="yes"/>
      <point x="432" y="-157"/>
      <point x="491" y="-85"/>
      <point x="654" y="36" type="curve"/>
      <point x="564" y="61" type="line"/>
      <point x="397" y="-53"/>
      <point x="336" y="-132"/>
      <point x="336" y="-236" type="curve" smooth="yes"/>
      <point x="336" y="-372"/>
      <point x="441" y="-462"/>
    </contour>
    <contour>
      <point x="524" y="0" type="line"/>
      <point x="605" y="30" type="line"/>
      <point x="675" y="0" type="line"/>
      <point x="1131" y="1420" type="line"/>
      <point x="1030" y="1420" type="line"/>
      <point x="605" y="77" type="line"/>
      <point x="595" y="77" type="line"/>
      <point x="170" y="1420" type="line"/>
      <point x="69" y="1420" type="line"/>
    </contour>
  </outline>
</glyph>
<glyph name="lbar" format="2">
  <advance width="1200"/>
  <unicode hex="019A"/>
  <anchor x="670" y="0" name="bottom"/>
  <anchor x="510" y="784" name="center"/>
  <anchor x="506" y="1500" name="top"/>
  <anchor x="960" y="1500" name="topright"/>
  <outline>
    <contour>
      <point x="98" y="678" type="line"/>
      <point x="914" y="678" type="line"/>
      <point x="914" y="766" type="line"/>
      <point x="98" y="766" type="line"/>
    </contour>
    <component base="l"/>
  </outline>
</glyph>
<glyph name="lambdastroke" format="2">
  <advance width="1200"/>
  <unicode hex="019B"/>
  <outline>
    <contour>
      <point x="150" y="987" type="line"/>
      <point x="964" y="1237" type="line"/>
      <point x="944" y="1322" type="line"/>
      <point x="128" y="1072" type="line"/>
    </contour>
    <component base="lambda"/>
  </outline>
</glyph>
<glyph name="Nhookleft" format="2">
  <advance width="1200"/>
  <unicode hex="019D"/>
  <anchor x="600" y="0" name="bottom"/>
  <anchor x="600" y="1420" name="top"/>
  <outline>
    <contour>
      <point x="-118" y="-480" type="line"/>
      <point x="-28" y="-463" type="line" smooth="yes"/>
      <point x="185" y="-423"/>
      <point x="262" y="-320"/>
      <point x="262" y="-56" type="curve" smooth="yes"/>
      <point x="262" y="184" type="line"/>
      <point x="172" y="184" type="line"/>
      <point x="172" y="-48" type="line" smooth="yes"/>
      <point x="172" y="-257"/>
      <point x="116" y="-342"/>
      <point x="-38" y="-371" type="curve" smooth="yes"/>
      <point x="-128" y="-388" type="line"/>
    </contour>
    <component base="N"/>
  </outline>
</glyph>
<glyph name="Uhorn" format="2">
  <advance width="1200"/>
  <unicode hex="01AF"/>
  <anchor x="600" y="0" name="bottom"/>
  <anchor x="1080" y="10" name="ogonek"/>
  <anchor x="600" y="1420" name="top"/>
  <anchor x="1180" y="1420" name="topright"/>
  <outline>
    <contour>
      <point x="968" y="1335" type="line"/>
      <point x="1028" y="1345" type="line" smooth="yes"/>
      <point x="1202" y="1375"/>
      <point x="1278" y="1460"/>
      <point x="1278" y="1653" type="curve"/>
      <point x="1186" y="1653" type="line"/>
      <point x="1186" y="1512"/>
      <point x="1132" y="1451"/>
      <point x="1008" y="1430" type="curve" smooth="yes"/>
      <point x="948" y="1420" type="line"/>
    </contour>
    <component base="U"/>
  </outline>
</glyph>
<glyph name="uhorn" format="2">
  <advance width="1200"/>
  <unicode hex="01B0"/>
  <anchor x="570" y="0" name="bottom"/>
  <anchor x="1080" y="10" name="ogonek"/>
  <anchor x="590" y="1060" name="top"/>
  <anchor x="1120" y="1060" name="topright"/>
  <outline>
    <contour>
      <point x="944" y="995" type="line"/>
      <point x="984" y="1005" type="line" smooth="yes"/>
      <point x="1138" y="1043"/>
      <point x="1214" y="1154"/>
      <point x="1214" y="1343" type="curve"/>
      <point x="1118" y="1343" type="line"/>
      <point x="1118" y="1191"/>
      <point x="1057" y="1100"/>
      <point x="934" y="1070" type="curve" smooth="yes"/>
      <point x="894" y="1060" type="line"/>
    </contour>
    <component base="u"/>
  </outline>
</glyph>
<glyph name="Upsilonafrican" format="2">
  <advance width="1200"/>
  <unicode hex="01B1"/>
  <anchor x="600" y="0" name="bottom"/>
  <anchor x="600" y="1420" name="top"/>
  <outline>
    <contour>
      <point x="350" y="1371" type="line"/>
      <point x="350" y="1323" type="line"/>
      <point x="203" y="1222"/>
      <point x="100" y="1022"/>
      <point x="100" y="620" type="curve" smooth="yes"/>
      <point x="100" y="199"/>
      <point x="271" y="-20"/>
      <point x="600" y="-20" type="curve" smooth="yes"/>
      <point x="929" y="-20"/>
      <point x="1100" y="199"/>
      <point x="1100" y="620" type="curve" smooth="yes"/>
      <point x="1100" y="1028"/>
      <point x="1005" y="1228"/>
      <point x="874" y="1323" type="curve"/>
      <point x="874" y="1363" type="line"/>
      <point x="694" y="1332" type="line"/>
      <point x="903" y="1250"/>
      <point x="1008" y="1027"/>
      <point x="1008" y="660" type="curve" smooth="yes"/>
      <point x="1008" y="272"/>
      <point x="868" y="70"/>
      <point x="600" y="70" type="curve" smooth="yes"/>
      <point x="332" y="70"/>
      <point x="192" y="272"/>
      <point x="192" y="660" type="curve" smooth="yes"/>
      <point x="192" y="1020"/>
      <point x="305" y="1243"/>
      <point x="530" y="1332" type="curve"/>
    </contour>
    <contour>
      <point x="128" y="1420" type="line"/>
      <point x="128" y="1332" type="line"/>
      <point x="530" y="1332" type="line"/>
      <point x="530" y="1420" type="line"/>
    </contour>
    <contour>
      <point x="694" y="1420" type="line"/>
      <point x="694" y="1332" type="line"/>
      <point x="1072" y="1332" type="line"/>
      <point x="1072" y="1420" type="line"/>
    </contour>
  </outline>
</glyph>
<glyph name="Vhook" format="2">
  <advance width="1200"/>
  <unicode hex="01B2"/>
  <anchor x="600" y="0" name="bottom"/>
  <anchor x="1080" y="10" name="ogonek"/>
  <anchor x="600" y="1420" name="top"/>
  <anchor x="1180" y="1420" name="topright"/>
  <outline>
    <contour>
      <point x="676" y="1420" type="line"/>
      <point x="676" y="1330" type="line"/>
      <point x="814" y="1330" type="line" smooth="yes"/>
      <point x="902" y="1330"/>
      <point x="946" y="1277"/>
      <point x="946" y="1170" type="curve" smooth="yes"/>
      <point x="946" y="456" type="line" smooth="yes"/>
      <point x="946" y="200"/>
      <point x="829" y="70"/>
      <point x="600" y="70" type="curve" smooth="yes"/>
      <point x="360" y="70"/>
      <point x="254" y="200"/>
      <point x="254" y="456" type="curve" smooth="yes"/>
      <point x="254" y="1420" type="line"/>
      <point x="164" y="1420" type="line"/>
      <point x="164" y="456" type="line" smooth="yes"/>
      <point x="164" y="138"/>
      <point x="308" y="-20"/>
      <point x="596" y="-20" type="curve" smooth="yes"/>
      <point x="884" y="-20"/>
      <point x="1036" y="138"/>
      <point x="1036" y="456" type="curve" smooth="yes"/>
      <point x="1036" y="1170" type="line" smooth="yes"/>
      <point x="1036" y="1337"/>
      <point x="967" y="1420"/>
      <point x="830" y="1420" type="curve" smooth="yes"/>
    </contour>
  </outline>
</glyph>
<glyph name="Ezh" format="2">
  <advance width="1200"/>
  <unicode hex="01B7"/>
  <outline>
    <contour>
      <point x="556" y="-20" type="curve" smooth="yes"/>
      <point x="869" y="-20"/>
      <point x="1048" y="127"/>
      <point x="1048" y="384" type="curve" smooth="yes"/>
      <point x="1048" y="651"/>
      <point x="841" y="787"/>
      <point x="424" y="793" type="curve"/>
      <point x="419" y="752" type="line"/>
      <point x="982" y="1317" type="line"/>
      <point x="982" y="1420" type="line"/>
      <point x="177" y="1420" type="line"/>
      <point x="177" y="1332" type="line"/>
      <point x="910" y="1332" type="line"/>
      <point x="936" y="1391" type="line"/>
      <point x="313" y="765" type="line"/>
      <point x="327" y="703" type="line"/>
      <point x="424" y="703" type="line" smooth="yes"/>
      <point x="780" y="703"/>
      <point x="956" y="598"/>
      <point x="956" y="385" type="curve" smooth="yes"/>
      <point x="956" y="186"/>
      <point x="812" y="72"/>
      <point x="561" y="72" type="curve" smooth="yes"/>
      <point x="393" y="72"/>
      <point x="295" y="113"/>
      <point x="155" y="218" type="curve"/>
      <point x="88" y="151" type="line"/>
      <point x="209" y="37"/>
      <point x="362" y="-20"/>
    </contour>
  </outline>
</glyph>
<glyph name="Gstroke" format="2">
  <advance width="1200"/>
  <unicode hex="01E4"/>
  <anchor x="715" y="0" name="bottom"/>
  <anchor x="695" y="1420" name="top"/>
  <outline>
    <contour>
      <point x="692" y="-20" type="curve" smooth="yes"/>
      <point x="852" y="-20"/>
      <point x="983" y="22"/>
      <point x="1036" y="40" type="curve"/>
      <point x="978" y="120" type="line"/>
      <point x="921" y="102"/>
      <point x="831" y="70"/>
      <point x="716" y="70" type="curve" smooth="yes"/>
      <point x="370" y="70"/>
      <point x="172" y="308"/>
      <point x="172" y="722" type="curve" smooth="yes"/>
      <point x="172" y="1121"/>
      <point x="363" y="1350"/>
      <point x="696" y="1350" type="curve" smooth="yes"/>
      <point x="825" y="1350"/>
      <point x="943" y="1302"/>
      <point x="1020" y="1217" type="curve"/>
      <point x="1089" y="1285" type="line"/>
      <point x="1012" y="1384"/>
      <point x="865" y="1440"/>
      <point x="684" y="1440" type="curve" smooth="yes"/>
      <point x="300" y="1440"/>
      <point x="80" y="1175"/>
      <point x="80" y="712" type="curve" smooth="yes"/>
      <point x="80" y="247"/>
      <point x="303" y="-20"/>
    </contour>
    <contour>
      <point x="946" y="40" type="line"/>
      <point x="1036" y="40" type="line"/>
      <point x="1036" y="660" type="line"/>
      <point x="946" y="660" type="line"/>
    </contour>
    <contour>
      <point x="630" y="424" type="line"/>
      <point x="1200" y="424" type="line"/>
      <point x="1200" y="512" type="line"/>
      <point x="630" y="512" type="line"/>
    </contour>
  </outline>
</glyph>
<glyph name="gstroke" format="2">
  <advance width="1200"/>
  <unicode hex="01E5"/>
  <anchor x="540" y="-480" name="bottom"/>
  <anchor x="580" y="1060" name="top"/>
  <outline>
    <contour>
      <point x="1156" y="-135" type="line"/>
      <point x="44" y="-135" type="line"/>
      <point x="44" y="-223" type="line"/>
      <point x="1156" y="-223" type="line"/>
    </contour>
    <component base="g"/>
  </outline>
</glyph>
<glyph name="Oogonek" format="2">
  <advance width="1200"/>
  <unicode hex="01EA"/>
  <anchor x="600" y="-388" name="bottom"/>
  <anchor x="600" y="710" name="center"/>
  <anchor x="1080" y="10" name="ogonek"/>
  <anchor x="600" y="1420" name="top"/>
  <anchor x="20" y="1420" name="topleft"/>
  <anchor x="1180" y="1420" name="topright"/>
  <outline>
    <contour>
      <point x="632" y="-424" type="curve" smooth="yes"/>
      <point x="659" y="-424"/>
      <point x="694" y="-423"/>
      <point x="726" y="-415" type="curve"/>
      <point x="733" y="-336" type="line"/>
      <point x="706" y="-339"/>
      <point x="679" y="-341"/>
      <point x="658" y="-341" type="curve" smooth="yes"/>
      <point x="552" y="-341"/>
      <point x="492" y="-293"/>
      <point x="492" y="-208" type="curve" smooth="yes"/>
      <point x="492" y="-84"/>
      <point x="593" y="-45"/>
      <point x="770" y="5" type="curve"/>
      <point x="625" y="32" type="line"/>
      <point x="533" y="34" type="line"/>
      <point x="533" y="-26" type="line"/>
      <point x="450" y="-60"/>
      <point x="402" y="-130"/>
      <point x="402" y="-218" type="curve" smooth="yes"/>
      <point x="402" y="-349"/>
      <point x="486" y="-424"/>
    </contour>
    <component base="O"/>
  </outline>
</glyph>
<glyph name="oogonek" format="2">
  <advance width="1200"/>
  <unicode hex="01EB"/>
  <anchor x="600" y="-480" name="bottom"/>
  <anchor x="600" y="530" name="center"/>
  <anchor x="600" y="10" name="ogonek"/>
  <anchor x="600" y="1060" name="top"/>
  <anchor x="1017" y="1060" name="topright"/>
  <outline>
    <contour>
      <point x="659" y="-424" type="curve" smooth="yes"/>
      <point x="686" y="-424"/>
      <point x="721" y="-423"/>
      <point x="753" y="-415" type="curve"/>
      <point x="760" y="-336" type="line"/>
      <point x="733" y="-339"/>
      <point x="706" y="-341"/>
      <point x="685" y="-341" type="curve" smooth="yes"/>
      <point x="579" y="-341"/>
      <point x="519" y="-293"/>
      <point x="519" y="-208" type="curve" smooth="yes"/>
      <point x="519" y="-79"/>
      <point x="612" y="-44"/>
      <point x="777" y="13" type="curve"/>
      <point x="772" y="40" type="line"/>
      <point x="550" y="34" type="line"/>
      <point x="550" y="-29" type="line"/>
      <point x="474" y="-65"/>
      <point x="429" y="-137"/>
      <point x="429" y="-228" type="curve" smooth="yes"/>
      <point x="429" y="-353"/>
      <point x="513" y="-424"/>
    </contour>
    <component base="o"/>
  </outline>
</glyph>
<glyph name="jdotless" format="2">
  <advance width="1200"/>
  <unicode hex="0237"/>
  <anchor x="558" y="-480" name="bottom"/>
  <anchor x="817" y="1060" name="top"/>
  <outline>
    <contour>
      <point x="198" y="-480" type="line"/>
      <point x="350" y="-468" type="line" smooth="yes"/>
      <point x="712" y="-439"/>
      <point x="873" y="-284"/>
      <point x="868" y="94" type="curve" smooth="yes"/>
      <point x="864" y="384" type="line"/>
      <point x="770" y="384" type="line"/>
      <point x="774" y="62" type="line" smooth="yes"/>
      <point x="778" y="-227"/>
      <point x="652" y="-352"/>
      <point x="370" y="-378" type="curve" smooth="yes"/>
      <point x="194" y="-394" type="line"/>
    </contour>
    <contour>
      <point x="282" y="970" type="line"/>
      <point x="786" y="970" type="line"/>
      <point x="786" y="1060" type="line"/>
      <point x="282" y="1060" type="line"/>
    </contour>
    <contour>
      <point x="770" y="350" type="line"/>
      <point x="864" y="350" type="line"/>
      <point x="864" y="1060" type="line"/>
      <point x="770" y="1060" type="line"/>
    </contour>
  </outline>
</glyph>
<glyph name="Astroke" format="2">
  <advance width="1200"/>
  <unicode hex="023A"/>
  <anchor x="600" y="0" name="bottom"/>
  <anchor x="1080" y="10" name="ogonek"/>
  <anchor x="600" y="1420" name="top"/>
  <outline>
    <contour>
      <point x="483" y="-330" type="line"/>
      <point x="628" y="409" type="line"/>
      <point x="636" y="451" type="line"/>
      <point x="746" y="1011" type="line"/>
      <point x="753" y="1046" type="line"/>
      <point x="879" y="1692" type="line"/>
      <point x="783" y="1716" type="line"/>
      <point x="693" y="1246" type="line"/>
      <point x="684" y="1199" type="line"/>
      <point x="542" y="455" type="line"/>
      <point x="535" y="420" type="line"/>
      <point x="397" y="-306" type="line"/>
    </contour>
    <component base="A"/>
  </outline>
</glyph>
<glyph name="Cstroke" format="2">
  <advance width="1200"/>
  <unicode hex="023B"/>
  <anchor x="675" y="0" name="bottom"/>
  <anchor x="705" y="1420" name="top"/>
  <outline>
    <contour>
      <point x="528" y="-330" type="line"/>
      <point x="924" y="1692" type="line"/>
      <point x="828" y="1716" type="line"/>
      <point x="442" y="-306" type="line"/>
    </contour>
    <component base="C"/>
  </outline>
</glyph>
<glyph name="Lbar" format="2">
  <advance width="1200"/>
  <unicode hex="023D"/>
  <outline>
    <contour>
      <point x="-20" y="677" type="line"/>
      <point x="796" y="677" type="line"/>
      <point x="796" y="767" type="line"/>
      <point x="-20" y="767" type="line"/>
    </contour>
    <component base="L"/>
  </outline>
</glyph>
<glyph name="Tdiagonalstroke" format="2">
  <advance width="1200"/>
  <unicode hex="023E"/>
  <anchor x="600" y="-388" name="bottom"/>
  <anchor x="600" y="1500" name="top"/>
  <outline>
    <contour>
      <point x="428" y="-330" type="line"/>
      <point x="1024" y="1692" type="line"/>
      <point x="928" y="1716" type="line"/>
      <point x="342" y="-306" type="line"/>
    </contour>
    <component base="T"/>
  </outline>
</glyph>
<glyph name="oopen" format="2">
  <advance width="1200"/>
  <unicode hex="0254"/>
  <anchor x="600" y="0" name="bottom"/>
  <anchor x="600" y="1060" name="top"/>
  <outline>
    <contour>
      <point x="526" y="-20" type="curve" smooth="yes"/>
      <point x="856" y="-20"/>
      <point x="1040" y="182"/>
      <point x="1040" y="528" type="curve" smooth="yes"/>
      <point x="1040" y="884"/>
      <point x="844" y="1080"/>
      <point x="498" y="1080" type="curve" smooth="yes"/>
      <point x="377" y="1080"/>
      <point x="299" y="1068"/>
      <point x="204" y="1033" type="curve"/>
      <point x="236" y="947" type="line"/>
      <point x="336" y="977"/>
      <point x="405" y="988"/>
      <point x="494" y="988" type="curve" smooth="yes"/>
      <point x="782" y="988"/>
      <point x="944" y="824"/>
      <point x="944" y="518" type="curve" smooth="yes"/>
      <point x="944" y="233"/>
      <point x="793" y="72"/>
      <point x="534" y="72" type="curve" smooth="yes"/>
      <point x="397" y="72"/>
      <point x="276" y="118"/>
      <point x="201" y="172" type="curve"/>
      <point x="156" y="103" type="line"/>
      <point x="230" y="34"/>
      <point x="364" y="-20"/>
    </contour>
  </outline>
</glyph>
